<?xml version="1.0" encoding="UTF-8"?><svg xmlns="http://www.w3.org/2000/svg" viewBox="0 0 29.9 20.06"><defs><style>.d{fill:#fff;}</style></defs><g id="a"/><g id="b"><g id="c"><path class="d" d="M28.68,0c-.97,0-1.94,0-2.92,0H1.09C.4,0,0,.41,0,1.11V18.94c0,.75,.37,1.12,1.13,1.12H28.69c.31,0,.67-.03,.93-.29,.26-.26,.29-.62,.29-.94V1.24C29.9,.4,29.51,0,28.68,0ZM10.94,9.64L1.95,17.04V2.92l9,6.72Zm4,.57L3.91,1.98H25.97L14.94,10.21Zm-9.58,6.54c2.39-1.96,4.77-3.92,7.19-5.91,.39,.31,.78,.6,1.18,.89l.5,.37c.54,.4,.89,.4,1.44,0l.52-.39c.38-.28,.75-.56,1.15-.87,1.38,1.14,2.76,2.28,4.14,3.41l4.71,3.87H3.7l1.65-1.36ZM27.92,2.93v14.09l-8.99-7.38L27.92,2.93Z"/></g></g></svg>