<svg xmlns="http://www.w3.org/2000/svg" viewBox="0 0 28.03 28.02"><defs><style>.cls-1{fill:#fff;}</style></defs><g id="Layer_2" data-name="Layer 2"><g id="Layer_1-2" data-name="Layer 1"><path class="cls-1" d="M13,12.22,16.8,17l-6.46,1ZM12.35,1.33c.34-.05.64.56.7.72a8.22,8.22,0,0,1,.27,3.47A18,18,0,0,1,13,7.33l-.48,2.25-.35-1.15L12,7.85c-.13-.43-.26-.87-.36-1.32a7.72,7.72,0,0,1-.12-3.9c.34-1.2.83-1.3.83-1.3m8.2,17,.65,0a7,7,0,0,1,1.23.11,26.85,26.85,0,0,1,2.84.69,3.06,3.06,0,0,1,1.08.7.61.61,0,0,1,.24.56c0,.14-.12.33-.46.48a3.12,3.12,0,0,1-2.8-.11,15.82,15.82,0,0,1-1.93-1.29c-.26-.18-1.5-1.2-1.5-1.2ZM6,22.55c-.77,1.06-1.57,2.15-2.4,3.2a2.75,2.75,0,0,1-1.07.69l-.14.07a.9.9,0,0,1-.34.06.85.85,0,0,1-.46-.12.75.75,0,0,1-.1-.79l.12-.23A7.58,7.58,0,0,1,2.48,24a10.88,10.88,0,0,1,4.07-3l.06,0,.74-.32L6,22.55m1.07-3.33c-.45.19-.91.39-1.35.6a12.28,12.28,0,0,0-4.56,3.57A3.85,3.85,0,0,0,.05,26.54a1.75,1.75,0,0,0,2,1.46,4.54,4.54,0,0,0,3.05-1.8A41.29,41.29,0,0,0,9,20.34a1.42,1.42,0,0,1,.69-.6,11.89,11.89,0,0,1,1.95-.52c2-.32,4-.59,6-.87a.91.91,0,0,1,.61.24l.77.73c.31.3.63.6.95.88a7.68,7.68,0,0,0,4.61,2.32,3.7,3.7,0,0,0,2.21-.42A2.16,2.16,0,0,0,28,20.35a2.37,2.37,0,0,0-1.19-2A11.21,11.21,0,0,0,21.71,17h-.05a12.3,12.3,0,0,0-2.36-.08,1.07,1.07,0,0,1-1-.39l-.58-.68c-.27-.31-.55-.63-.81-1-.47-.57-.92-1.14-1.38-1.71l-1.66-2.06a.9.9,0,0,1-.18-1,14.77,14.77,0,0,0,1.06-5.75h0a7.43,7.43,0,0,0-.55-3.21A1.92,1.92,0,0,0,13,.1a2.09,2.09,0,0,0-.6-.1,1.55,1.55,0,0,0-.77.2,2.94,2.94,0,0,0-1.45,2,10,10,0,0,0-.13,3.44,11.5,11.5,0,0,0,1.54,4.61,1.23,1.23,0,0,1,.12,1.22c-.12.24-.23.49-.34.73s-.2.46-.31.69l0,.08c-.84,1.79-1.71,3.65-2.58,5.47a.9.9,0,0,1-.46.37l-1,.41"/></g></g></svg>