<?xml version="1.0" encoding="UTF-8"?><svg xmlns="http://www.w3.org/2000/svg" viewBox="0 0 43 43"><defs><style>.d{fill:#fff;}.e{fill:#d00e46;}</style></defs><g id="a"/><g id="b"><g id="c"><g><path class="e" d="M21.5,43c11.87,0,21.5-9.63,21.5-21.5S33.37,0,21.5,0,0,9.63,0,21.5s9.63,21.5,21.5,21.5"/><path class="d" d="M30.21,32.4c0-.74,.04-1.46,0-2.17-.19-2.84-1.48-5.08-3.8-6.73-.26-.18-.34-.39-.25-.61,.09-.22,.31-.35,.53-.3,.09,.02,.18,.07,.26,.12,2.34,1.66,3.78,3.89,4.13,6.75,.14,1.12,.09,2.27,.11,3.41,0,.3-.21,.49-.51,.51-.07,0-.14,0-.21,0-5.98,0-11.97,0-17.95,0-.56,0-.72-.15-.71-.71,.01-.94-.03-1.89,.06-2.83,.29-3.06,1.75-5.44,4.26-7.19,.27-.19,.54-.14,.7,.1,.16,.23,.09,.52-.19,.71-1.49,1.02-2.58,2.36-3.25,4.04-.39,.96-.59,1.96-.61,2.99-.01,.63,0,1.26,0,1.91H30.21Z"/><path class="d" d="M21.52,21.01c2.89,0,5.2-2.33,5.2-5.22,0-2.88-2.34-5.22-5.21-5.22s-5.23,2.35-5.22,5.27c0,2.85,2.36,5.18,5.23,5.17m-.01,.97c-3.41,0-6.17-2.77-6.18-6.19-.01-3.27,2.6-6.18,6.18-6.18,3.62,0,6.2,2.96,6.18,6.21-.02,3.4-2.78,6.16-6.18,6.16"/></g></g></g></svg>