<svg xmlns="http://www.w3.org/2000/svg" viewBox="0 0 34.21 33.31"><defs><style>.cls-1{fill:#fff;}</style></defs><g id="Layer_2" data-name="Layer 2"><g id="Layer_1-2" data-name="Layer 1"><rect class="cls-1" x="28.17" y="16.83" width="2.71" height="1.88"/><rect class="cls-1" x="28.17" y="25.12" width="2.7" height="1.89"/><path class="cls-1" d="M28.17,12.66V14.6h.28c.82,0,1.63,0,2.43,0,0-.69,0-1.33,0-1.91H28.17Z"/><path class="cls-1" d="M30.89,21H28.18v1.9H30.9v-.23c0-.56,0-1.11,0-1.66"/><path class="cls-1" d="M30.91,29.23H28.17v1.93h2.74v-.12c0-.59,0-1.19,0-1.78v0"/><path class="cls-1" d="M21.79,10.29V10.2H9.87v1.11H21.78c0-.34,0-.68,0-1"/><rect class="cls-1" x="9.87" y="16.84" width="11.9" height="1.05"/><rect class="cls-1" x="9.88" y="13.52" width="6.09" height="1.07"/><rect class="cls-1" x="15.67" y="20.15" width="6.1" height="1.04"/><path class="cls-1" d="M9.87,6.86V8h4.46V7.84c0-.32,0-.63,0-.94V6.85H9.87Z"/><path class="cls-1" d="M21.79,13.63v-.09h-3.6v1.11h3.59c0-.33,0-.66,0-1"/><rect class="cls-1" x="8.27" y="26.75" width="1.89" height="1.09"/><rect class="cls-1" x="3.3" y="26.75" width="1.88" height="1.09"/><rect class="cls-1" x="3.31" y="23.44" width="1.88" height="1.08"/><rect class="cls-1" x="8.28" y="23.44" width="1.9" height="1.07"/><rect class="cls-1" x="3.3" y="30.09" width="1.89" height="1.05"/><rect class="cls-1" x="8.27" y="30.08" width="1.89" height="1.05"/><path class="cls-1" d="M30.64,10.46h2.42V33.31h1.15c0-2,0-4,0-6v-18H27.26v0a5.67,5.67,0,0,1,0,1,.18.18,0,0,0,0,.06h3.39Z"/><path class="cls-1" d="M19.32,30.31l.2-.07a3.3,3.3,0,0,0,1.68-1.17,3,3,0,0,0,0-3.56A2.87,2.87,0,0,0,18,24.35a3,3,0,0,0-2.25,2.45,3,3,0,0,0,2,3.33.62.62,0,0,1,.48.66c0,.54,0,1.09,0,1.64v.88h1.16ZM16.8,27.23a2,2,0,0,1,.65-1.37,2,2,0,0,1,2.66.09,1.94,1.94,0,0,1,.53,1.53,1.91,1.91,0,0,1-1.89,1.75h0A1.93,1.93,0,0,1,16.8,27.23Z"/><path class="cls-1" d="M23.94,33.31H25.1V30.23q0-12,0-24a.24.24,0,0,0,0-.07l-.09,0c-.78-.25-1.42-.47-2-.69a.67.67,0,0,1-.4-.57c0-.73,0-1.47,0-2.2V.26H21.47V5l-2.18-.73v-4H18.17V3.88L6.54,0V20.1h-3V16H2.44v4.15H0V33.31H1.09V21.23H12.35V33.31h1.16V20.14H7.72V1.58l4.46,1.47,2.17.71L17,4.67l2.42.81c1.32.45,2.65.89,4,1.31a.66.66,0,0,1,.52.69Z"/></g></g></svg>