<?xml version="1.0" encoding="utf-8"?>
<!-- Generator: Adobe Illustrator 26.1.0, SVG Export Plug-In . SVG Version: 6.00 Build 0)  -->
<svg version="1.1" id="Layer_1" xmlns="http://www.w3.org/2000/svg" xmlns:xlink="http://www.w3.org/1999/xlink" x="0px" y="0px"
	 viewBox="0 0 62.4 62.4" style="enable-background:new 0 0 62.4 62.4;" xml:space="preserve">
<style type="text/css">
	.st0{fill:#D00E46;}
	.st1{fill:#FFFFFF;}
</style>
<path class="st0" d="M10.5,0C4.7,0,0,4.6,0,10.4c0,0,0,0,0,0V52c0,5.8,4.7,10.4,10.5,10.4h41.4c5.8,0,10.5-4.6,10.5-10.4V10.4
	C62.3,4.6,57.6,0,51.9,0c0,0,0,0,0,0H10.5z"/>
<path class="st1" d="M39.6,19.2c-2-2.5-5-3.9-8.1-3.9c-3.7-0.2-7.2,1.7-9.1,5c-0.9,1.4-1.3,3.1-1.3,4.7c0,0.8,0.6,1.5,1.5,1.5
	c0.8,0,1.5-0.6,1.5-1.4c0-0.1,0-0.1,0-0.2v-0.1c0.1-2.2,1.3-4.3,3.2-5.4c2.9-1.7,6.5-1.4,9,0.8c1.6,1.2,2.4,3.2,1.9,5.2
	c-0.2,1.5-1,2.9-2.2,3.9c-0.6,0.5-1.3,0.9-2,1.3c-1.5,0.8-2.8,2-3.5,3.6c-0.6,1.4-0.9,2.9-0.8,4.4v0.3c0,0.2,0,0.5,0,0.7
	c0,0.8,0.6,1.5,1.5,1.5c0,0,0,0,0,0h0.1c0.8-0.1,1.5-0.8,1.4-1.6c0,0,0,0,0,0v-0.4c0-0.5,0-1.1,0-1.6c0-1.6,0.8-3.1,2.1-3.9l1-0.7
	l0.6-0.4c2.2-1.3,3.8-3.4,4.5-5.8C41.9,24.2,41.4,21.3,39.6,19.2z"/>
<path class="st1" d="M33.3,44.5c0,1.1-0.9,2-2,2c-1.1,0-2-0.9-2-2c0-1.1,0.9-2,2-2C32.5,42.4,33.4,43.3,33.3,44.5
	C33.4,44.5,33.4,44.5,33.3,44.5"/>
</svg>
