<svg xmlns="http://www.w3.org/2000/svg" viewBox="0 0 56 56"><defs><style>.cls-1{fill:#d00e46;}</style></defs><g id="Layer_2" data-name="Layer 2"><g id="Layer_1-2" data-name="Layer 1"><path class="cls-1" d="M23.19.44a27.55,27.55,0,0,0-16,8.9,27.79,27.79,0,0,0-7,15.85v.11c0,.37-.09.72-.12,1.09v3.25c.05.36.09.71.13,1.07.09.69.17,1.41.31,2.11A27.66,27.66,0,0,0,13.75,52.07,26.54,26.54,0,0,0,29.19,56,27.44,27.44,0,0,0,49,46.46a26.7,26.7,0,0,0,6.85-15.63A27.44,27.44,0,0,0,47.6,8,27.48,27.48,0,0,0,32.46.35c-.69-.11-1.4-.19-2.09-.27L29.62,0H26.35c-.3.05-.66.09-1,.13C24.62.22,23.89.31,23.19.44ZM28,2.63h0A25.44,25.44,0,0,1,53.38,28,25.38,25.38,0,0,1,28,53.37h0A25.42,25.42,0,0,1,2.65,28,25.38,25.38,0,0,1,28,2.63Z"/><path class="cls-1" d="M42,28a1.35,1.35,0,0,0-.86-1.28q-.69-.36-1.38-.75c-.43-.24-.86-.48-1.3-.71l-2.08-1.15q-7.6-4.18-15.22-8.37A2.45,2.45,0,0,0,20,15.43H20c-1.07.05-1.15,1.17-1.15,1.51q0,5.55,0,11.08t0,11a1.56,1.56,0,0,0,.65,1.41,1.52,1.52,0,0,0,1.49-.1l20.16-11.1A1.35,1.35,0,0,0,42,28Zm-4.83.41c-5,2.77-9.91,5.48-14.9,8.22l-.74.4V19l4.69,2.58c3.64,2,7.26,4,11,6l.79.44Z"/></g></g></svg>