<?xml version="1.0" encoding="UTF-8"?><svg xmlns="http://www.w3.org/2000/svg" viewBox="0 0 223.19 37.59"><defs><style>.d{fill:#fff;}</style></defs><g id="a"/><g id="b"><g id="c"><path class="d" d="M99.84,11.66c-.38,0-.75,.38-.94,.56-.19,.38-.38,.75-.38,1.13s.19,.56,.38,.94l-3.38,2.82c0-2.63,.19-5.07,.38-7.33,.56,0,.94-.19,1.13-.56,.38-.56,.56-.94,.38-1.31,0-.56-.19-.94-.56-1.31s-.75-.38-1.31-.38l-1.69-6.21h-.56l1.69,6.21c-.19,0-.38,.19-.56,.38l-4.52-3.38V0h-.75V2.64l-3.77-2.64h-.94l4.7,3.58-.19,16.91c-.19,0-.38,.19-.56,.19l-2.44-2.82L77.65,0h-.56l7.14,15.98-10.34-12.4V0h-.56V2.83l-2.45-2.83h-1.13l-7.33,18.23-8.27-1.13c0-.56-.19-.94-.56-1.31-.38-.19-.75-.38-1.31-.38-.38-3.38-.94-7.71-1.5-12.21l6.38-3.2h-1.31l-5.07,2.45c-.19-.75-.19-1.69-.38-2.45h-.57c0,.95,.19,1.89,.38,2.64L31.97,11.66l-5.64-1.51L34.6,0h-.75l-8.27,9.96-12.6-3.19c0-.38-.19-.56-.38-.94L18.62,0h-.75l-5.64,5.45c-.19-.19-.38-.19-.56-.38l.56-5.08h-.56l-.56,4.14-1.31-2.06c.19-.38,.38-.94,.38-1.31s0-.58-.19-.76h-3.2c-.19,.19-.19,.38-.19,.76,0,.19,0,.38,.19,.75,0,.19,.19,.38,.38,.56,.19,.19,.38,.38,.76,.38l-.58,5.07-3.94,1.5c-.19-.38-.56-.56-.94-.75L5.83,0h-.56L1.89,8.08h-.19c-.38,0-.94,.19-1.14,.56-.19,.19-.38,.38-.56,.56v1.51c.19,.19,.38,.38,.56,.56,.2,.38,.76,.56,1.14,.56l3.94,13.34c-.38,.19-.56,.38-.75,.56-.19,.38-.38,.75-.38,1.13,0,.56,.19,.94,.56,1.31,.38,.38,.75,.56,1.31,.56h.38l2.64,8.65h.75l-2.83-9.02c.19,0,.19-.19,.38-.19l4.89,3.01,.56,6.19h.56l-.38-5.82,6.02,3.57,.56,2.44h.75l-.56-1.88,3.01,1.88h1.13l-4.52-2.82-4.13-13.71,2.44-1.7c.38,.38,.75,.56,1.31,.56h.38l6.77,17.48h.56l-6.77-17.86c.19,0,.38-.19,.38-.38l20.12,10.34-7.15,7.89h.94l6.77-7.71,11.85,6.02c-.19,.19-.19,.38-.19,.75l-8.08,.94h5.07l3.01-.38c0,.19,.19,.38,.19,.38h3.19c.19-.19,.19-.56,.19-.94s-.19-.94-.38-1.13l1.89-4.89c1.13,2.26,2.25,4.71,3.38,6.96h.56l-3.75-7.89,4.51-10.52,10.54,1.5v16.92h.56V20.48l13.35,1.89,.38,.75,.38,.75c-2.64,4.32-5.64,9.02-8.46,13.53h.75c2.06-3.57,4.69-7.71,8.08-12.78l.75,1.5v11.27h.56v-9.77l3.19,6.96c-.38,.19-.56,.56-.75,.94-.19,.38-.19,.75-.19,1.13,0,.19,.19,.38,.38,.75h2.83c.38-.38,.38-.75,.38-1.13,0-.56-.19-1.13-.56-1.5l5.46-19.73c.56,0,.94-.19,1.31-.56,.19-.38,.38-.75,.38-1.13,0-.56-.19-.94-.38-1.31-.38-.38-.75-.56-1.31-.56l-3.95-11.47h-.56l3.94,11.66ZM50.2,3.39c.57,5.26,1.14,9.77,1.51,12.21-.56,0-.75,.38-1.13,.75l-17.68-4.51L50.2,3.39ZM8.47,2.64c.19-.19,.56-.19,.75-.19l1.69,2.63c-.56,0-.94,.19-1.13,.56-.38,.38-.56,.75-.56,1.31l-1.13,.38,.38-4.69Zm-2.45,21.23L2.45,11.66c.38-.19,.56-.38,.75-.75,.19-.19,.38-.57,.38-.95v-.38l3.75-1.31-1.31,15.6Zm1.5,1.69c-.38-.38-.56-.38-.94-.56l1.51-16.92,1.31-.56c.19,.38,.38,.56,.56,.75,.38,.38,.56,.38,.94,.38l1.13,13.91-4.52,3Zm.57,2.06c.19-.56,.19-1.13-.19-1.69l4.13-2.63,.56,7.13-4.51-2.82Zm3.57-18.42l3.19,11.46-2.25,1.51-.94-12.98Zm7.33,25l-5.64-3.58-.75-7.7,2.45-1.69,3.94,12.96Zm-1.5-16.17c0,.19,.19,.56,.19,.75l-2.07,1.5-3.58-11.84c.19-.19,.38-.38,.56-.56l5.46,8.84c-.38,.38-.56,.75-.56,1.31m2.82-1.5c-.19-.19-.56-.38-.94-.38-.19,0-.56,0-.75,.19L13.16,7.52l12.04,3-4.89,6.02Zm.56,.38l5.08-6.19,5.08,1.31-10.16,5.07v-.19Zm20.31,12.02l-20.12-10.33v-.56q.19-.19,0-.38l11.1-5.26,18.43,4.51v.19c0,.38,0,.75,.19,1.13l-9.6,10.71Zm14.29,5.83c-.38-.19-.94-.19-1.5,0-.19,.19-.38,.19-.56,.38l-11.66-5.83,9.41-10.52c.38,.19,.75,.38,1.13,.38,.19,0,.38-.19,.38-.19l5.08,10.71-2.26,5.08Zm2.45-6.02l-4.52-9.96c.19-.38,.56-.75,.56-1.13l8.08,1.13-4.13,9.96Zm15.42-9.02l-10.35-1.5L70.32,.19l3.01,3.58v15.97Zm.56,.19V4.52l11.46,13.53,1.51,3.77-12.98-1.89Zm13.73,1.7l-.75-1.7,.94,1.14c0,.19-.19,.38-.19,.56m1.13,2.44l.19,.19v.56l-.19-.75Zm1.13-20.11l4.14,3c-.19,.38-.38,.75-.38,1.13s.19,.75,.56,1.13c.19,.38,.75,.56,1.13,.56-.19,2.83-.38,5.46-.56,7.71l-4.33,3.58c-.19-.19-.56-.39-.75-.57l.19-16.53Zm3.77,30.63h-.19l-3.77-8.46v-2.06c.38,0,.75-.19,.94-.56,.38-.38,.38-.75,.38-1.13s0-.56-.19-.94l3.95-3.01c-.56,9.21-.94,13.73-.94,15.98h-.19v.19Zm.75,0c.19-3.38,.56-9.96,.94-16.73l3.94-3c.19,0,.38,.19,.56,.19l-5.44,19.55Zm52.64-23.3c-1.69,0-3.38,.56-4.7,1.5-1.5,1.13-2.63,2.44-3.19,3.94-.56,1.69-.75,3.38-.38,5.08,.19,1.69,1.13,3.19,2.25,4.51,1.31,1.31,2.83,2.06,4.52,2.44,1.69,.19,3.38,0,4.89-.56,1.69-.75,3-1.88,3.94-3.19,.75-1.31,1.31-2.63,1.31-4.13,.19-1.33,0-2.83-.56-4.14-.38-1.13-1.13-2.07-1.88-2.82-.94-.94-1.88-1.5-2.82-1.88-1.14-.56-2.26-.75-3.39-.75m0,14.65c-1.13,0-2.25-.38-3.19-.94-.94-.56-1.7-1.5-2.26-2.63-.38-1.13-.56-2.26-.38-3.39,.19-1.13,.75-2.07,1.5-3,.95-.75,1.89-1.31,3.01-1.69,1.13-.19,2.25,0,3.38,.38,1.14,.38,1.89,1.13,2.64,2.07,.56,1.13,.94,2.25,.94,3.38,0,1.51-.56,2.83-1.69,4.14-.38,.56-1.13,.94-1.7,1.13-.75,.38-1.5,.56-2.25,.56m19.56-11.65c1.31,0,2.82,.38,3.94,1.13l1.7-2.44c-1.7-1.13-3.58-1.69-5.64-1.69-1.13,0-2.25,.19-3.39,.75-1.13,.38-2.07,.94-2.82,1.88-.75,.75-1.5,1.69-1.88,2.82-.38,1.13-.56,2.06-.56,3.38,0,1.14,.19,2.26,.56,3.39,.38,.94,1.13,1.88,1.88,2.82,.75,.75,1.69,1.31,2.82,1.88,1.14,.38,2.26,.56,3.39,.56,2.07,.19,3.94-.38,5.64-1.69l-1.51-2.25c-1.31,.75-2.63,1.13-4.13,1.13-1.69,0-3.01-.56-4.14-1.69-1.13-1.13-1.69-2.63-1.69-4.14s.56-3,1.69-4.13c1.13-1.13,2.45-1.69,4.14-1.69m20.68-2.44v-.19h-3.2l-.19,.19-5.44,6.01h-.76v-6.19h-2.44l-.19,.19V28.38h2.63v-7.71h.76l6.01,7.71h3.39l-6.96-9.4,6.39-7.13Zm13.91,7.13c.56-.38,.94-.75,1.13-1.31,.38-.38,.38-.94,.38-1.5,0-2.81-2.07-4.5-5.46-4.5h-6.58V28.38h8.08c3.2,0,5.46-2.06,5.46-5.07,.19-.94-.19-1.88-.75-2.64-.56-.94-1.31-1.5-2.25-1.69m-7.9-4.51h3.94c1.69,0,2.45,.56,2.45,1.69,0,1.31-.76,2.07-2.45,2.07h-3.94v-3.75Zm5.26,11.09h-5.26v-4.51h5.26c.75-.19,1.33,0,1.89,.56,.38,.38,.75,.94,.75,1.69,0,.38,0,.75-.19,.94-.19,.75-.75,1.13-1.31,1.31-.39,.19-.76,.19-1.14,0m17.12-13.72l-.19-.19h-2.64v.19l-7.33,16.53h3.2l1.5-3.75h8.08l1.5,3.75h3.2l-7.33-16.53Zm-4.52,10.15l3.02-6.58,3,6.58h-6.02Zm-77.84-10.34l-.38,.19-6.21,6.76-6.39-6.76-.19-.19h-2.44l-.19,.19V28.38h2.82V15.98l6.21,6.58h.38l6.21-6.58v12.4h2.64V11.66h-2.45ZM120.71,1.7V7.52h-1.13V1.7h-2.06V.38h5.27V1.7h-2.08Zm3.39,5.82V.38h5.08V1.51h-3.58v1.88h3.39v1.13h-3.39v1.88h3.95v1.13h-5.46Zm10.9,0l-1.69-2.63-1.69,2.63h-1.5l2.25-3.75-1.88-3.39h1.5l1.31,2.08,1.13-2.08h1.7l-2.08,3.39,2.45,3.75h-1.51Zm7.14,0v-3.19h-3v3.19h-1.31V.38h1.31V3.2h3V.38h1.33V7.52h-1.33ZM148.54,.19c.94,0,1.89,.39,2.45,1.14,.75,.75,.94,1.69,.94,2.63,.19,.94-.19,1.88-.94,2.63-.19,.38-.56,.56-1.13,.75-.57,.38-1.33,.38-2.08,.19-.56,0-1.31-.38-1.69-.94-.75-.75-.94-1.69-.94-2.63s.38-1.88,.94-2.63c.38-.38,.75-.56,1.13-.75,.38-.2,.94-.39,1.31-.39m0,6.39c.75-.19,1.13-.38,1.51-.75,.19-.38,.38-.56,.56-.94v-.75c0-1.31-.56-2.63-2.08-2.63-1.13,0-2.07,.94-2.07,2.44,0,1.13,.56,2.63,2.07,2.63M159.26,.38V7.52h-1.31V1.7h-3.01V7.52h-1.31V.38h5.64Zm5.08-.19c.94,0,1.69,.39,2.44,1.14,.56,.75,.94,1.69,.94,2.63s-.19,1.88-.94,2.63c-.38,.38-.75,.56-1.13,.75-.94,.38-1.89,.38-2.83,0-.38-.19-.75-.38-1.13-.75-.56-.75-.94-1.69-.75-2.63-.19-.94,.19-1.88,.94-2.63,.19-.38,.56-.56,1.13-.75,.38-.2,.75-.39,1.33-.39m0,6.39c.56-.19,1.13-.38,1.5-.75,.38-.56,.56-1.13,.56-1.69,0-1.31-.75-2.63-2.07-2.63-1.14,0-2.08,.94-2.08,2.44,0,1.13,.56,2.63,2.08,2.63m10.9,.94h-1.31V1.7h-2.63v.75c0,4.13-.57,5.07-2.45,5.07h-.19v-1.13h.19c.94-.19,1.13-.56,1.13-3.94V.38h5.27V7.52Zm7.71,0h-1.31V2.83l-3,3.94v.75h-1.32V.38h1.32V5.08l3-3.75V.38h1.31V7.52Zm7.9-1.88c-.19,.56-.56,1.13-1.13,1.5-.56,.38-1.13,.56-1.88,.56-1.69,0-3.2-1.13-3.2-3.75-.19-.94,.19-1.88,.76-2.63,.75-.75,1.5-1.14,2.44-1.14,.75,0,1.31,.19,1.88,.58,.56,.56,.94,.94,1.13,1.69l-1.31,.38c-.19-.38-.19-.75-.56-.94-.19-.38-.56-.38-.94-.38-1.13,0-2.07,.94-2.07,2.44,0,.94,.38,2.44,2.07,2.44,.38,0,.75,0,.94-.38,.38-.19,.56-.56,.75-.94l1.13,.56Zm-71.63,27.44c.94,0,1.69,.75,1.69,2.06,0,1.13-.56,2.25-1.69,2.25-1.31,0-1.88-1.31-1.88-2.06,0-.56,.19-1.13,.38-1.5,.38-.56,.94-.75,1.5-.75m0,3.94c.94,0,1.31-.94,1.31-1.88,0-.56-.19-1.69-1.31-1.69s-1.31,.94-1.31,1.88c-.19,.38,0,1.69,1.31,1.69m5.64-2.63c0-.38-.19-.56-.38-.75-.19-.19-.38-.19-.75-.19-1.13,0-1.31,1.13-1.31,1.69s.19,1.88,1.5,1.88c.19,0,.56,0,.75-.19,.19-.19,.38-.38,.38-.56l.38,.19c-.19,.38-.38,.56-.56,.75-.38,.19-.56,.19-.94,.19-1.5,0-1.88-1.13-1.88-2.06s.38-2.25,1.88-2.25c.19,0,.56,0,.94,.19,.19,.19,.38,.56,.56,.94l-.56,.19Zm3.38-1.31c.95,0,1.7,.75,1.7,2.06,0,1.13-.38,2.25-1.7,2.25s-1.88-1.31-1.88-2.06c0-.94,.38-2.25,1.88-2.25m0,3.94c.95,0,1.33-.94,1.33-1.88,0-.56-.19-1.69-1.33-1.69s-1.31,.94-1.31,1.88c-.19,.38,0,1.69,1.31,1.69m5.83-3.75v.19h-2.44v1.5h1.13c.75,0,1.13,0,1.5,.38,0,.19,.19,.56,.19,.75,0,.56-.19,.94-.56,1.13-.38,0-.56,.19-.94,.19h-1.69v-4.13h2.82Zm-2.44,3.75h1.5c.56,0,.94-.38,.94-.94,0-.38-.38-.75-.94-.75h-1.5v1.69h0Zm6.77,.38l-.56-1.31h-1.69l-.57,1.31h-.38l1.7-4.13h.38l1.5,4.13h-.38Zm-1.31-3.75l-.75,2.07h1.5l-.75-2.07Zm5.83,3.75h-.39v-1.88h-.94c-1.69,0-.94,1.31-1.5,1.88h-.56c.75-.56,.19-1.69,1.31-2.06-.38,0-.56-.19-.75-.38,0-.19-.19-.38-.19-.56,0-.38,.19-.56,.38-.75,.38-.38,.75-.56,1.13-.38h1.51v4.13Zm-.39-3.94h-1.31c-.38,0-.56,.19-.75,.38-.19,.19-.19,.38-.19,.56,0,.56,.56,.75,1.13,.75h1.13v-1.69Zm3.58,.75c.19-.38,.38-.75,.56-.94,.38-.19,.75-.19,.94-.19,1.5,0,1.88,1.31,1.88,2.25s-.38,2.06-1.88,2.06c-.38,0-.75,0-.94-.19-.38-.19-.56-.38-.56-.75l.38-.19c0,.19,.19,.38,.38,.56,.19,.19,.56,.19,.75,.19,.94,0,1.5-.56,1.5-1.69h-1.88v-.38h1.88c0-.75-.38-1.5-1.31-1.5-.38,0-.56,0-.75,.19-.19,.19-.38,.38-.38,.75l-.56-.19h0Zm5.08-.94v1.69h.94c1.13,0,.75-.94,1.31-1.69h.38c-.56,.56-.19,1.5-1.13,1.88,.94,.19,.75,1.5,1.13,2.25h-.38c-.56-.94-.19-2.06-1.31-2.06h-1.13v2.06h-.38v-4.13h.56Zm5.44-.19c.95,0,1.7,.75,1.7,2.06,0,1.13-.38,2.25-1.7,2.25s-1.88-1.31-1.88-2.06c0-.56,.19-1.13,.56-1.5,.19-.56,.75-.75,1.31-.75m0,3.94c.95,0,1.33-.94,1.33-1.88,0-.56-.19-1.69-1.33-1.69s-1.31,.94-1.31,1.88c-.19,.38,0,1.69,1.31,1.69m5.83,.38v-2.06h-2.44v2.06h-.38v-4.13h.38v1.69h2.44v-1.69h.38v4.13h-.38Zm3.58-4.32c.94,0,1.69,.75,1.69,2.06,0,1.13-.38,2.25-1.69,2.25s-1.88-1.31-1.88-2.06c0-.56,.19-1.13,.56-1.5,.19-.56,.75-.75,1.31-.75m0,3.94c.94,0,1.31-.94,1.31-1.88,0-.56-.19-1.69-1.31-1.69s-1.31,.94-1.31,1.88c-.19,.38,0,1.69,1.31,1.69m6.21,.38v-3.57l-1.33,3.57h-.19l-1.5-3.57v3.57h-.38v-4.13h.56l1.31,3.38,1.33-3.38h.56v4.13h-.38Zm4.88-3.38l-2.63,2.82v.56h-.38v-4.13h.38v3l2.63-2.63v-.38h.38v4.13h-.38v-3.38Zm4.7,3.38h-.38v-1.88c-.56,.19-.94,.19-1.31,.19-.94,0-1.31-.56-1.31-1.13v-1.31h.38v1.13c0,.75,.38,.94,1.13,.94,.38,0,.75,0,1.13-.19v-1.88h.38v4.13Zm1.31,0v-4.13h2.83v.19h-2.45v1.5h2.08v.38h-2.08v1.5h2.45v.56h-2.83Zm6.96-3c0-.38-.19-.56-.38-.75-.38-.19-.56-.19-.75-.19-1.13,0-1.31,1.13-1.31,1.69s0,1.88,1.31,1.88c.38,0,.56,0,.75-.19,.19-.19,.38-.38,.38-.56l.38,.19c0,.38-.38,.56-.56,.75-.38,.19-.56,.19-.94,.19-1.5,0-1.69-1.13-1.69-2.06s.19-2.25,1.69-2.25c.38,0,.56,0,.94,.19,.38,.19,.56,.56,.56,.94l-.38,.19Zm1.88-1.13v1.69h.95c1.31,0,.94-.94,1.31-1.69h.56c-.56,.56-.19,1.5-1.13,1.88,.94,.19,.75,1.5,1.13,2.25h-.38c-.56-.94-.19-2.06-1.31-2.06h-1.14v2.06h-.38v-4.13h.38Zm6.77,4.13l-.56-1.31h-1.69l-.56,1.31h-.38l1.69-4.13h.19l1.69,4.13h-.38Zm-1.5-3.75l-.75,2.07h1.69l-.94-2.07Zm5.83,3.75h-.38v-1.88h-.75c-1.69,0-1.13,1.31-1.5,1.88h-.56c.56-.56,.19-1.69,1.13-2.06-.19,0-.38-.19-.56-.38s-.19-.38-.19-.56c0-.38,.19-.56,.38-.75,.19-.38,.56-.56,1.13-.38h1.31v4.13Zm-.38-3.94h-1.13c-.38,0-.56,.19-.75,.38-.19,.19-.19,.38-.19,.56,0,.56,.56,.75,.94,.75h1.13v-1.69Zm5.08,1.5c.75,0,1.13-.38,1.13-.75s-.38-.75-.94-.75c-.38-.19-.56,0-.75,.19-.19,.19-.38,.38-.38,.56l-.39-.19c0-.38,.2-.56,.57-.75,.19-.19,.56-.19,.75-.19,.94,0,1.31,.38,1.31,1.13,0,.19,0,.38-.19,.56,0,.19-.19,.38-.38,.38,.19,0,.38,.19,.56,.38,.19,.19,.19,.38,.19,.56,0,.38-.19,.75-.38,.94-.38,.38-.75,.38-1.13,.38s-.56,0-.94-.19c-.39-.19-.57-.56-.57-.94l.39-.19c0,.38,.19,.56,.38,.75,.19,.19,.56,.19,.75,.19,.75,0,1.13-.38,1.13-.94,0-.19-.19-.75-1.13-.75h-.38v-.38h.38Zm4.51-1.88c.94,0,1.7,.75,1.7,2.06,0,1.13-.57,2.25-1.7,2.25-1.31,0-1.88-1.31-1.88-2.06,0-.94,.38-2.25,1.88-2.25m0,3.94c.94,0,1.31-.94,1.31-1.88,0-.56-.38-1.69-1.31-1.69-1.13,0-1.5,.94-1.5,1.88,0,.38,.19,1.69,1.31,1.69h.19Zm5.83,.38v-2.06h-2.44v2.06h-.38v-4.13h.38v1.69h2.44v-1.69h.38v4.13h-.38Zm4.71,0l-.56-1.31h-1.7l-.56,1.31h-.38l1.7-4.13h.19l1.69,4.13h-.38Zm-1.31-3.75l-.95,2.07h1.7l-.75-2.07Z"/></g></g></svg>