<svg xmlns="http://www.w3.org/2000/svg" viewBox="0 0 21.63 26.82"><defs><style>.cls-1{fill:#d00e46;}</style></defs><g id="Layer_2" data-name="Layer 2"><g id="Layer_1-2" data-name="Layer 1"><path class="cls-1" d="M21.6,6.18s0,0-.16,0H20a1,1,0,0,1,0,.21V17.17c0,1.19,0,2.42,0,3.64a2.45,2.45,0,0,1-.26,1,2.73,2.73,0,0,1-2.49,1.5c-.5,0-1,0-1.51,0-.26,0-.51,0-.77,0a7.12,7.12,0,0,0-3.81,1.09.59.59,0,0,1-.71,0,6.62,6.62,0,0,0-3.07-1c-.61,0-1.24,0-1.85,0H4.4a2.77,2.77,0,0,1-2.8-2.83q0-6.66,0-13.31v-5c0-.49.07-.55.55-.55H13.67c.62,0,1.24,0,1.87,0,.12,0,.13,0,.13,0s0,0,0-.13c0-.52,0-.94,0-1.33a.48.48,0,0,0,0-.16s-.05,0-.18,0H0V20.82a3.36,3.36,0,0,0,.1.85A4.34,4.34,0,0,0,4.32,25H6.59a5.82,5.82,0,0,1,2.56.61,6.38,6.38,0,0,1,1.66,1.2A6,6,0,0,1,15.38,25c.74,0,1.41,0,2,0a4.36,4.36,0,0,0,4.2-4.39c0-.83,0-1.68,0-2.5V14.85c0-2.83,0-5.67,0-8.5A.31.31,0,0,0,21.6,6.18Z"/><path class="cls-1" d="M21.62,0H17C17,0,17,0,17,0a.17.17,0,0,0,0,.07c0,.44,0,1,0,1.44,0,.11,0,.13,0,.13s0,0,.13,0H19l-1.87,1.5L11.14,8a.43.43,0,0,1-.62,0l-2.44-2L5.94,4.31c-.12-.09-.15-.09-.27,0l-1.18,1L3,6.46a.47.47,0,0,0-.14.28c0,.39,0,.78,0,1.16v.78h0l.65-.51c.63-.51,1.26-1,1.88-1.53a.64.64,0,0,1,.38-.17.57.57,0,0,1,.36.16c1.28,1,2.64,2.15,4.41,3.57l.13.11.12.09.06-.06.14-.11L16.61,5.7,19.5,3.35l.19-.13L20,3V4.76a.2.2,0,0,0,0,.08s0,0,.08,0c.46,0,.9,0,1.36,0,.11,0,.13,0,.13,0s0,0,0-.14V.12S21.62,0,21.62,0Z"/><path class="cls-1" d="M11.6,12.87s0,0-.18,0a8.69,8.69,0,0,1-1.25,0h0c-.08,0-.1,0-.1,0s0,0,0,.17c0,1.11,0,2.21,0,3.32v2.21c0,1,0,1.9,0,2.85,0,.13,0,.16,0,.17a.41.41,0,0,0,.16,0c.41,0,.84,0,1.28,0a.29.29,0,0,0,.14,0,.32.32,0,0,0,0-.15c0-1,0-2.07,0-3.1V16.11c0-1,0-2,0-3.06C11.63,12.91,11.61,12.87,11.6,12.87Z"/><path class="cls-1" d="M5,19.5H6.57V10.76H6.26c-.36,0-.71,0-1.06,0-.13,0-.17,0-.18,0A.38.38,0,0,0,5,11q0,3.12,0,6.24v2.14A1,1,0,0,0,5,19.5Z"/><path class="cls-1" d="M16.6,10.76H15v8.66s.05.08.06.08h1.55V16.66c0-1.91,0-3.83,0-5.74C16.63,10.79,16.61,10.77,16.6,10.76Z"/></g></g></svg>