<svg xmlns="http://www.w3.org/2000/svg" viewBox="0 0 21.11 18"><defs><style>.cls-1{fill:#d00e46;}.cls-2{fill:#949495;}</style></defs><g id="Layer_2" data-name="Layer 2"><g id="Layer_1-2" data-name="Layer 1"><path class="cls-1" d="M5.78,18c0-.36,0-.62,0-.88q0-5.19,0-10.37c0-1.47,0-1.47,1.45-1.47H8.67L9,6.45A4,4,0,0,1,12,5a2.82,2.82,0,0,1,2.72,1.59A4.31,4.31,0,0,1,17.29,5a3,3,0,0,1,3.47,2.25,8.2,8.2,0,0,1,.32,2.09c0,2.6,0,5.2,0,7.8,0,.67-.22.85-.84.81a16.52,16.52,0,0,0-2,0c-.54,0-.72-.16-.72-.71,0-2.36,0-4.71,0-7.06a5.51,5.51,0,0,0-.19-1.52.91.91,0,0,0-1.71-.3,2.49,2.49,0,0,0-.44,1.35c0,2.45-.05,4.9,0,7.35,0,.74-.24.94-.92.89a13.53,13.53,0,0,0-1.91,0c-.56,0-.72-.18-.72-.72,0-2.57,0-5.14,0-7.72,0-1-.4-1.6-1-1.62A1.56,1.56,0,0,0,9.33,9.58c0,2.53,0,5.05,0,7.58,0,.66-.2.85-.84.81-.87,0-1.75,0-2.71,0"/><path class="cls-2" d="M.16,18V5.24c1.06,0,2.11,0,3.15,0,.12,0,.32.42.33.65,0,1.69,0,3.38,0,5.07,0,2.09,0,4.17,0,6.26,0,.59-.19.77-.76.75-.9,0-1.8,0-2.75,0"/><path class="cls-2" d="M1.79,3.88A1.83,1.83,0,0,1,0,2,1.88,1.88,0,0,1,1.92,0,1.85,1.85,0,0,1,3.65,2.05,1.8,1.8,0,0,1,1.79,3.88"/></g></g></svg>