<svg xmlns="http://www.w3.org/2000/svg" xmlns:xlink="http://www.w3.org/1999/xlink" viewBox="0 0 22.21 28.72"><defs><style>.cls-1{fill:none;}.cls-2{clip-path:url(#clip-path);}.cls-3{fill:#d00e46;}</style><clipPath id="clip-path" transform="translate(0 0)"><rect class="cls-1" width="22.21" height="28.72"/></clipPath></defs><g id="Layer_2" data-name="Layer 2"><g id="Layer_1-2" data-name="Layer 1"><g class="cls-2"><path class="cls-3" d="M1.63,1.63h19v20a.85.85,0,0,1-.85.85H17.29a7.92,7.92,0,0,0-6.64,2.86V22.51H2.48a.85.85,0,0,1-.85-.85ZM0,21.66a2.48,2.48,0,0,0,2.48,2.48h6.8v4.58l1.5-1.58c2.14-2.22,3.85-3,6.51-3h2.44a2.48,2.48,0,0,0,2.48-2.48V0H0Z" transform="translate(0 0)"/></g></g></g></svg>