<?xml version="1.0" encoding="UTF-8"?><svg xmlns="http://www.w3.org/2000/svg" viewBox="0 0 229 33.36"><defs><style>.d{fill:#d00f47;}</style></defs><g id="a"/><g id="b"><g id="c"><g><path class="d" d="M139.18,12.91c-5.74,0-10.36,4.54-10.36,10.22s4.62,10.22,10.36,10.22,10.36-4.54,10.36-10.22-4.64-10.22-10.36-10.22m0,17.02c-3.7,0-6.66-3-6.66-6.8s2.97-6.81,6.66-6.81,6.66,3,6.66,6.81-2.97,6.8-6.66,6.8"/><path class="d" d="M162.23,16.33c1.72,0,3.3,.47,4.88,1.26l1.84-2.68c-1.82-1.31-4.06-1.99-6.72-1.99-5.75,0-10.36,4.62-10.36,10.22s4.62,10.22,10.36,10.22c2.66,0,4.9-.67,6.72-1.99l-1.66-2.77c-1.5,.86-3.22,1.34-5.06,1.34-3.7,0-6.67-3.02-6.67-6.8s2.97-6.81,6.67-6.81"/></g><polygon class="d" points="183.09 13.34 182.82 13.48 176.41 20.53 175.56 20.53 175.56 13.48 175.41 13.34 172.45 13.34 172.31 13.48 172.31 32.79 172.45 32.93 175.41 32.93 175.56 32.79 175.56 23.78 176.41 23.78 183.38 32.79 183.66 32.93 187.27 32.93 187.41 32.79 179.15 21.87 186.85 13.48 186.71 13.34 183.09 13.34"/><path class="d" d="M203.3,21.82c1.03-.65,1.79-1.74,1.79-3.33,0-3.19-2.6-5.15-6.41-5.15h-7.84l-.13,.14v19.32l.13,.14h9.51c3.73,0,6.53-2.43,6.53-6.02,0-2.27-1.26-4.22-3.58-5.1m-9.35-5.21h4.73c1.87,0,2.71,.7,2.71,2.05,0,1.54-.84,2.24-2.71,2.24h-4.73v-4.29Zm6.3,13.05h-6.3v-5.49h6.3c1.82,0,2.96,1.04,2.96,2.75s-1.14,2.74-2.96,2.74"/><path class="d" d="M218.65,17.73l3.63,7.56h-7.13l3.51-7.56Zm-1.54-4.4l-.14,.14-8.67,19.32,.14,.14h3.44l.14-.14,1.93-4.25h9.49l1.83,4.25,.14,.14h3.44l.14-.14-8.64-19.32-.14-.14h-3.11Z"/><polygon class="d" points="122.87 13.34 122.59 13.48 115.13 21.42 107.63 13.48 107.35 13.34 104.47 13.34 104.33 13.48 104.33 32.79 104.47 32.93 107.44 32.93 107.57 32.79 107.57 18.29 114.99 26.1 115.26 26.1 122.64 18.29 122.64 32.79 122.78 32.93 125.77 32.93 125.92 32.79 125.92 13.48 125.77 13.34 122.87 13.34"/><path class="d" d="M88.48,10.35c-.67,.2-1.15,.81-1.15,1.54,0,.29,.08,.56,.22,.8l-2.99,2.39c.15-2.16,.3-4.31,.44-6.31,.67-.19,1.17-.81,1.17-1.54,0-.85-.66-1.53-1.48-1.6l-1.49-5.43h-.57l1.5,5.49c-.2,.06-.39,.15-.55,.27l-4.02-2.93,.03-2.83h-.56l-.03,2.43-3.33-2.43h-.94l4.27,3.11-.15,14.86c-.22,.03-.42,.09-.6,.2l-2.19-2.58L68.87,.2h-.61l6.46,14.01-9.25-10.89V.2h-.55V2.67L62.82,.2h-.95l-6.62,15.96-7.29-1.03c-.07-.83-.75-1.48-1.59-1.49-.36-2.89-.83-6.65-1.33-10.69L50.74,.2h-1.28l-4.5,2.18c-.09-.72-.18-1.45-.27-2.18h-.55c.1,.82,.2,1.64,.3,2.43l-16.06,7.77-5.03-1.26L30.73,.2h-.72l-7.25,8.79-11.28-2.83c-.02-.3-.11-.58-.26-.81L16.58,.2h-.8l-4.96,4.76c-.13-.1-.29-.17-.45-.22l-.03-.06L10.88,.2h-.56l-.45,3.74-1.23-1.94c.28-.29,.46-.69,.46-1.13,0-.24-.07-.46-.17-.67h-2.91c-.1,.2-.15,.43-.15,.67,0,.71,.46,1.31,1.1,1.52l-.39,4.48-3.61,1.22c-.16-.26-.4-.48-.68-.61L5.24,.2h-.6L1.76,7.34s-.1-.01-.14-.01c-.89,0-1.61,.72-1.61,1.61s.72,1.61,1.61,1.61h.01l3.51,11.67c-.63,.22-1.09,.79-1.09,1.5,0,.89,.72,1.61,1.61,1.61,.14,0,.27-.02,.4-.06l2.3,7.66h.58l-2.37-7.88c.09-.06,.18-.14,.26-.22l4.43,2.63,.43,5.48h.56l-.4-5.13,5.3,3.14,.6,1.98h.58l-.47-1.57,2.64,1.57h1.08l-3.96-2.35-3.64-12.06,2.13-1.36c.29,.26,.66,.43,1.08,.43,.13,0,.25-.02,.36-.05l5.97,15.38h.6l-6.06-15.6c.15-.09,.27-.22,.38-.35l17.76,8.96-6.31,6.99h.74l6.08-6.73,10.36,5.23c-.09,.19-.14,.4-.15,.62l-7.15,.88h4.54l2.69-.33c.04,.12,.1,.23,.17,.33h2.77l-.02-.02c.14-.24,.22-.51,.22-.8,0-.42-.17-.81-.44-1.1l1.76-4.24c.94,2,1.93,4.1,2.91,6.16h.61c-1.05-2.23-2.15-4.56-3.23-6.86l3.86-9.32,9.33,1.31v14.86h.55v-14.78l11.84,1.67,.3,.66h0l.31,.68c-2.33,3.7-4.98,7.88-7.47,11.78h.66c1.94-3.04,4.28-6.73,7.09-11.18l.66,1.44,.09,9.75h.55l-.08-8.53,2.84,6.15c-.51,.27-.86,.8-.86,1.41,0,.36,.12,.69,.32,.96h2.57c.2-.27,.33-.6,.33-.96,0-.5-.23-.93-.59-1.23l4.97-17.25c.85-.04,1.54-.74,1.54-1.6s-.67-1.55-1.51-1.61L85.48,.2h-.59l3.59,10.16ZM44.51,3.21c.56,4.57,1.06,8.51,1.31,10.53-.4,.14-.72,.43-.9,.8l-15.7-3.94,15.29-7.4ZM7.53,2.47c.24,0,.46-.06,.66-.16l1.49,2.35c-.8,.1-1.42,.76-1.42,1.59,0,.02,0,.04,0,.05l-1.11,.38,.37-4.21Zm-2.18,18.56L2.17,10.44c.61-.23,1.05-.82,1.05-1.51,0-.12-.01-.23-.04-.34l3.35-1.13-1.19,13.56Zm1.35,1.48c-.24-.21-.55-.34-.89-.38l1.3-14.86,1.28-.43c.22,.55,.73,.94,1.34,1l.94,12.13-3.97,2.53Zm.43,1.86c.09-.2,.14-.42,.14-.65,0-.29-.08-.55-.21-.79l3.66-2.34,.48,6.18-4.07-2.41Zm3.2-15.98l2.99,9.89-2.11,1.35-.87-11.24Zm6.57,21.77l-5.12-3.04-.53-6.87,2.23-1.42,3.42,11.33Zm-1.34-14.19c0,.27,.07,.52,.19,.75l-1.96,1.25-3.12-10.34c.23-.13,.42-.32,.56-.55l4.88,7.69c-.33,.3-.55,.72-.55,1.2m2.52-1.33c-.26-.18-.57-.28-.91-.28-.21,0-.41,.04-.6,.12l-4.89-7.71,10.69,2.68-4.29,5.2Zm.4,.39l4.49-5.44,4.65,1.17-9.06,4.39s-.04-.08-.07-.11m18.09,10.48l-17.87-9.02c.06-.16,.09-.34,.09-.52,0-.11-.01-.21-.03-.31l9.7-4.69,16.32,4.09c0,.06-.02,.12-.02,.18,0,.33,.1,.64,.28,.9l-8.46,9.36Zm12.66,5.15c-.22-.11-.46-.17-.71-.17-.45,0-.85,.18-1.14,.48l-10.29-5.2,8.34-9.23c.27,.2,.59,.32,.95,.32,.14,0,.27-.02,.39-.05,.94,2,2.55,5.43,4.37,9.28l-1.9,4.58Zm2.19-5.27c-1.48-3.14-2.92-6.19-4.15-8.81,.32-.21,.55-.54,.65-.91l7.12,1-3.62,8.72Zm13.51-7.89l-9.11-1.28L62.34,.49l2.58,3.04v14Zm.55,.08V4.17l10.11,11.91,1.45,3.15-11.56-1.63Zm12.12,1.5l-.67-1.45,.9,1.06c-.1,.11-.17,.25-.24,.39m1.01,2.19c.08,.02,.16,.05,.25,.06v.49l-.25-.55Zm.95-17.58l3.64,2.66c-.16,.25-.25,.54-.25,.86,0,.85,.66,1.54,1.5,1.6-.18,2.5-.33,4.73-.47,6.73l-3.81,3.04c-.21-.2-.47-.34-.76-.41l.15-14.47Zm3.47,26.66c-.08,0-.15,.01-.23,.02l-3.38-7.33-.02-1.73c.72-.16,1.26-.8,1.26-1.57,0-.25-.06-.49-.17-.7l3.43-2.74c-.56,8.08-.8,12.09-.88,14.07h-.02m.56-.05c.14-2.79,.52-8.61,.92-14.49l3.4-2.71c.16,.14,.34,.24,.55,.3l-4.87,16.91Z"/><polygon class="d" points="104.31 .21 104.31 1.61 106.57 1.61 106.57 8.53 108.13 8.53 108.13 1.61 110.43 1.61 110.43 .21 104.31 .21"/><polygon class="d" points="112.13 .21 112.13 8.53 118.34 8.53 118.34 7.13 113.66 7.13 113.66 4.9 117.68 4.9 117.68 3.56 113.66 3.56 113.66 1.6 118.05 1.6 118.05 .21 112.13 .21"/><polygon class="d" points="124.37 .21 122.92 2.59 121.41 .21 119.62 .21 122.01 4.02 119.22 8.53 121.02 8.53 122.92 5.46 124.86 8.53 126.64 8.53 123.82 4.02 126.17 .21 124.37 .21"/><polygon class="d" points="133.34 .21 133.34 3.35 129.77 3.35 129.77 .21 128.2 .21 128.2 8.53 129.77 8.53 129.77 4.75 133.34 4.75 133.34 8.53 134.91 8.53 134.91 .21 133.34 .21"/><path class="d" d="M140.95,0c2.54,0,3.98,2.07,3.98,4.32,0,1.89-1.03,4.42-4.02,4.42-2.45,0-3.96-2.03-3.96-4.36s1.59-4.38,4-4.38m.01,7.29c1.24,0,2.4-.95,2.4-2.84,0-1.49-.78-3.03-2.43-3.03-1.37,0-2.38,1.07-2.38,2.9,0,1.3,.62,2.97,2.41,2.97"/><polygon class="d" points="146.95 .21 146.95 8.53 148.51 8.53 148.51 1.63 152 1.63 152 8.53 153.55 8.53 153.55 .21 146.95 .21"/><g><path class="d" d="M159.59,0c2.54,0,3.98,2.07,3.98,4.32,0,1.89-1.02,4.42-4.02,4.42-2.45,0-3.96-2.03-3.96-4.36s1.59-4.38,3.99-4.38m.01,7.29c1.24,0,2.41-.95,2.41-2.84,0-1.49-.78-3.03-2.43-3.03-1.37,0-2.38,1.07-2.38,2.9,0,1.3,.62,2.97,2.4,2.97"/><path class="d" d="M172.43,8.53h-1.56V1.63h-3.02v.92c0,4.76-.55,5.97-2.85,5.99h-.24v-1.41h.24c1.17-.13,1.37-.59,1.37-4.67V.21h6.06V8.53Z"/></g><polygon class="d" points="180.13 .21 180.13 1.15 176.41 5.61 176.41 .21 174.85 .21 174.85 8.53 176.41 8.53 176.41 7.54 180.13 3.09 180.13 8.53 181.69 8.53 181.69 .21 180.13 .21"/><path class="d" d="M191.09,6.21c-.27,.71-1.2,2.53-3.6,2.53-1.97,0-3.89-1.34-3.89-4.45C183.61,2.44,184.65,0,187.55,0c2.14,0,3.03,1.38,3.38,2.57l-1.54,.4c-.09-.91-.86-1.54-1.78-1.54-1.35,0-2.32,1.04-2.32,2.89,0,1.13,.46,2.96,2.31,2.96,1.07,0,1.77-.83,2.02-1.67l1.47,.61Z"/></g></g></svg>