<?xml version="1.0" encoding="UTF-8"?><svg xmlns="http://www.w3.org/2000/svg" viewBox="0 0 90 80"><defs><style>.e{fill:#fff;}.f{fill:none;stroke:#d10d45;stroke-linecap:round;stroke-linejoin:round;stroke-width:1.6px;}</style></defs><g id="a"/><g id="b"><g id="c"><rect class="e" width="90" height="80"/></g><g id="d"><polyline class="f" points="40 37.34 45.07 42.59 55.64 30.5"/><path class="f" d="M42.98,73.58C21.25,59.45,16.41,38.08,15.45,26.6l-.28-3.42,3.39-.54c3.1-.5,5.81-3.37,6.17-6.54l.37-3.28h39.81l.37,3.28c.36,3.17,3.07,6.04,6.17,6.54l3.39,.54-.28,3.42c-.96,11.48-5.8,32.84-27.53,46.98l-2.02,1.31-2.02-1.31Z"/><path class="f" d="M45,70.48c-20.06-13.05-24.89-32.52-25.86-44.18,4.76-.76,8.72-4.98,9.26-9.78H61.6c.55,4.79,4.51,9.01,9.26,9.78-.97,11.66-5.8,31.13-25.86,44.18Z"/><path class="f" d="M57.78,34.82c.38,1.25,.57,2.55,.57,3.86,0,7.33-6.03,13.35-13.35,13.35s-13.35-6.03-13.35-13.35,6.03-13.35,13.35-13.35c2.23,0,4.43,.56,6.39,1.63"/></g></g></svg>