<?xml version="1.0" encoding="UTF-8"?><svg xmlns="http://www.w3.org/2000/svg" viewBox="0 0 90 80"><defs><style>.e{fill:#fff;}.f{fill:none;stroke:#d00e46;stroke-linecap:round;stroke-linejoin:round;stroke-width:1.6px;}</style></defs><g id="a"/><g id="b"><g id="c"><rect class="e" width="90" height="80"/></g><g id="d"><g><path class="f" d="M51.54,45.21c-2.06-1.51-4.57-2.33-7.12-2.33-.08,0-.17,0-.25,0h-13.42c-.15,0-.31,0-.46,0-3.47,0-6.81,1.4-9.23,3.89-1.3,1.3-2.79,2.38-4.42,3.22-1.26,.71-1.7,2.32-.98,3.58,.43,.76,1.21,1.26,2.08,1.32H60.83c.59,.08,1.24-.32,1.23-.92-.07-3.83-10.53-8.75-10.53-8.75Z"/><path class="f" d="M77.41,69.13h2.82c1,.07,1.98-.24,2.74-.89,.76-.65,1.22-1.56,1.3-2.56,0-.07,.01-6.13,.01-6.13-.03-1.21-.42-2.38-1.12-3.37l-.4-.42s-.01-.02-.02-.03c-1.07-2.29-3.21-3.85-5.72-4.17l-10.26-1.97c-1.47-.4-5.14-2.54-5.64-2.79l-7.54-5.19c-2.72-1.87-6.04-2.84-9.33-2.71h-13.48c-.07,0-.13,0-.2,0-2.2,0-4.35,.39-6.41,1.17-2.05,.93-3.89,2.24-5.44,3.88-2.12,2.06-4.77,3.46-7.65,4.07l-1.57,.39c-1.05,.11-2,.65-2.62,1.49-.7,.84-1.1,1.89-1.13,2.97v11.02c.1,1.22,.79,2.32,1.86,2.94l4.28,1.95"/><path class="f" d="M58.56,34.83c-.62,0-.77-.15-.77-.76l.1-24.14h0c.03-.4,.35-.7,.75-.7h24.2s.06,.01,.08,.03l.55,.56s.03,.05,.03,.08v24.18c.01,.4-.3,.74-.71,.76h-24.22Z"/><line class="f" x1="63.63" y1="69.13" x2="26.35" y2="69.13"/><line class="f" x1="35.1" y1="58.84" x2="38.81" y2="58.84"/><path class="f" d="M19.07,61c-3.85,0-6.98,3.13-6.98,6.98s3.13,6.98,6.98,6.98c3.84,0,6.97-3.14,6.98-6.98,0-3.85-3.13-6.98-6.98-6.98Z"/><path class="f" d="M19.07,70.88c-1.6,0-2.89-1.3-2.89-2.89s1.3-2.89,2.89-2.89,2.89,1.29,2.89,2.88c0,1.61-1.3,2.91-2.89,2.91Z"/><path class="f" d="M70.5,61c-3.85,0-6.98,3.13-6.98,6.98s3.13,6.98,6.98,6.98c3.84,0,6.97-3.14,6.98-6.98,0-3.85-3.13-6.98-6.98-6.98Z"/><path class="f" d="M70.5,70.88c-1.6,0-2.89-1.3-2.89-2.89s1.3-2.89,2.89-2.89,2.89,1.29,2.89,2.88c0,1.61-1.3,2.91-2.89,2.91Z"/><line class="f" x1="35.6" y1="43.19" x2="35.6" y2="54.9"/><g><path class="f" d="M67.18,28.01v-11.96h3.54s3.4-.15,3.4,2.94"/><path class="f" d="M67.18,17.45v4.57h3.54s3.4,.15,3.4-2.94"/></g><g><line class="f" x1="68.69" y1="35.22" x2="68.69" y2="49.37"/><line class="f" x1="72.61" y1="35.22" x2="72.61" y2="50.18"/></g></g></g></g></svg>