<?xml version="1.0" encoding="UTF-8"?><svg xmlns="http://www.w3.org/2000/svg" viewBox="0 0 90 80"><defs><style>.e{fill:#fff;}.f{fill:none;stroke:#d10d45;stroke-linecap:round;stroke-linejoin:round;stroke-width:1.6px;}</style></defs><g id="a"/><g id="b"><g id="c"><rect class="e" width="90" height="80"/></g><g id="d"><g><path class="f" d="M46.3,52.4c-2.93,0-5.3,2.35-5.28,5.24,.01,2.9,2.43,5.3,5.3,5.27,2.86-.03,5.22-2.43,5.2-5.29-.02-2.91-2.33-5.23-5.22-5.23Z"/><path class="f" d="M46.3,12.47c-2.93,0-5.3,2.35-5.28,5.24,.01,2.9,2.43,5.3,5.3,5.27,2.86-.03,5.22-2.43,5.2-5.29-.02-2.91-2.33-5.23-5.22-5.23Z"/><g><path class="f" d="M41.95,21.97c-1.4,.42-2.84,.85-4.2,1.41-.98,.41-2.65,1.41-2.81,3.58-.2,2.68-.21,7.9-.23,10.56v1.3"/><path class="f" d="M50.59,21.97c1.4,.42,2.84,.85,4.2,1.41,.98,.41,2.65,1.41,2.81,3.58,.2,2.68,.21,5.43,.23,8.1v3.76"/></g><polyline class="f" points="40.6 39.54 39.88 32.15 52.66 32.15 52.14 39.54"/><g><path class="f" d="M67.5,39.84H25.04v2.51q0,3.95,3.66,5.24c1.03,.36,1.46,1.02,1.44,2.19-.04,2.4-.03,4.85-.03,7.21v5.93"/><path class="f" d="M25.04,39.84h42.45v2.51q0,3.95-3.66,5.24c-1.03,.36-1.46,1.02-1.44,2.19,.04,2.4,.03,4.85,.03,7.21v5.93"/></g><path class="f" d="M36.06,77.28v-1.71c0-1.57,0-3.1,0-4.64,0-2.51,.72-3.43,3.16-4.11,4.67-1.28,9.42-1.28,14.13,0,2.5,.68,3.11,1.49,3.12,4.12,0,1.52,0,3.03,0,4.62v1.72"/><path class="f" d="M20.14,52.4c-2.93,0-5.3,2.35-5.28,5.24,.01,2.9,2.43,5.3,5.3,5.27,2.86-.03,5.22-2.43,5.2-5.29-.02-2.91-2.33-5.23-5.22-5.23Z"/><path class="f" d="M9.9,77.28v-1.71c0-1.57,0-3.1,0-4.64,0-2.51,.72-3.43,3.16-4.11,4.67-1.28,9.42-1.28,14.13,0,2.5,.68,3.11,1.49,3.12,4.12,0,1.52,0,3.03,0,4.62v1.72"/><path class="f" d="M72.45,52.4c-2.93,0-5.3,2.35-5.28,5.24,.01,2.9,2.43,5.3,5.3,5.27,2.86-.03,5.22-2.43,5.2-5.29-.02-2.91-2.33-5.23-5.22-5.23Z"/><path class="f" d="M62.21,77.28v-1.71c0-1.57,0-3.1,0-4.64,0-2.51,.72-3.43,3.16-4.11,4.67-1.28,9.42-1.28,14.13,0,2.5,.68,3.11,1.49,3.12,4.12,0,1.52,0,3.03,0,4.62v1.72"/><polyline class="f" points="28.05 39.54 28.05 32.94 30.46 30.04"/><polyline class="f" points="19.69 47.89 9.91 47.89 9.91 6.35 82.63 6.35 82.63 47.89 72.04 47.89"/></g></g></g></svg>