<?xml version="1.0" encoding="UTF-8"?><svg xmlns="http://www.w3.org/2000/svg" viewBox="0 0 90 80"><defs><style>.e{fill:#fff;}.f{stroke-miterlimit:10;}.f,.g,.h{fill:none;stroke-linecap:round;stroke-width:1.6px;}.f,.h{stroke:#d10d45;}.g{stroke:#d00e46;}.g,.h{stroke-linejoin:round;}</style></defs><g id="a"/><g id="b"><g id="c"><rect class="e" width="90" height="80"/></g><g id="d"><g><path class="f" d="M44.15,33.77l.07-.27c.08-.29,.16-.57,.24-.86,.18-.63,.37-1.28,.47-1.93,.04-.25,0-.46-.13-.61-.15-.18-.41-.28-.74-.29-.19,0-.39,0-.57,0h-.46v-.21c-.14-6.71-3.38-10.59-9.89-11.87-1.09-.22-3.72,0-3.72,0-6.51,1.28-9.74,5.16-9.88,11.87v.21h-.47c-.19,0-.38,0-.57,0-.33,.01-.6,.12-.74,.29-.13,.15-.17,.36-.13,.61,.11,.65,.29,1.3,.47,1.93,.08,.28,.16,.57,.24,.86l.07,.27"/><path class="f" d="M14.02,38.21v22.52c0,3.97,2.47,6.44,6.45,6.45h50.85c1.8,0,3.59,0,5.39,0,.89,0,1.24-.33,1.24-1.18,0-10.2,0-20.39,0-30.59,0-.81-.34-1.15-1.17-1.16-.51,0-2.01,0-2.54,0h-1.01v-5.5c0-3.6,0-7.19,0-10.79,0-1.99-.73-3.49-2.25-4.57-1.01-.72-1.5-1.71-1.48-3,.02-1.82,.01-3.68,0-5.48v-.41c0-.91-.33-1.23-1.26-1.24-1.47,0-.94,0-2.41,0-.91,0-1.23,.33-1.24,1.25,0,1.65,0,3.29,0,4.94v1.1c0,1.17-.46,2.09-1.37,2.74-1.6,1.14-2.37,2.72-2.36,4.83,.03,3.53,.02,7.12,.02,10.59v5.48"/><path class="h" d="M73.21,34.25v14.65s-3.21-1.71-3.73-1.71h0c-.5,0-3.66,1.75-3.66,1.75v-14.69h7.39Z"/><line class="g" x1="12.63" y1="34.25" x2="74.33" y2="34.25"/><line class="g" x1="72.29" y1="29.24" x2="61.94" y2="29.24"/><line class="g" x1="43.13" y1="29.78" x2="19.45" y2="29.78"/><line class="g" x1="52.02" y1="26.48" x2="52.02" y2="33.99"/><line class="g" x1="61.94" y1="21.37" x2="72.29" y2="21.37"/><path class="f" d="M29.67,77.28s-.03,0-.05,0c-1.3,0-2.52-.51-3.45-1.43-.94-.93-1.46-2.16-1.46-3.47s.51-2.55,1.45-3.47c.93-.92,2.16-1.43,3.46-1.43h.03c2.67,.02,4.85,2.21,4.86,4.89s-2.17,4.88-4.84,4.91Z"/><path class="f" d="M63.55,77.28s-.03,0-.05,0c-1.3,0-2.52-.51-3.45-1.43-.94-.93-1.46-2.16-1.46-3.47s.51-2.55,1.45-3.47c.93-.92,2.16-1.43,3.46-1.43h.03c2.67,.02,4.85,2.21,4.86,4.89s-2.17,4.88-4.84,4.91Z"/><path class="f" d="M6.21,34.54h-.03c-.67,0-1.3-.26-1.79-.74-.49-.48-.75-1.12-.75-1.79s.27-1.32,.75-1.8c.48-.48,1.12-.74,1.79-.74h.02c1.38,0,2.51,1.14,2.51,2.53s-1.12,2.53-2.51,2.54Z"/><path class="f" d="M8.89,32.75c1.35,.1,5.07,.9,5.12,5.37"/><line class="f" x1="31.22" y1="13.51" x2="31.22" y2="17.6"/><line class="f" x1="28.47" y1="13.38" x2="33.98" y2="13.38"/><polygon class="h" points="52.02 25.97 57.48 18.69 46.57 18.69 52.02 25.97"/></g></g></g></svg>