<svg xmlns="http://www.w3.org/2000/svg" viewBox="0 0 23.13 24.69"><defs><style>.cls-1{fill:#d00e46;}</style></defs><g id="Layer_2" data-name="Layer 2"><g id="Layer_1-2" data-name="Layer 1"><path class="cls-1" d="M5.52,17.46c0-.41,0-.82,0-1.23v-.57a.55.55,0,0,1,0-.18V12.81h0V9.33l-.08-.15A.59.59,0,0,0,5,8.85H4.88a.59.59,0,0,0-.48.54V11c0,2.12,0,4.23,0,6.35a.52.52,0,0,1-.34.54,2,2,0,0,0-1.13,2,2,2,0,1,0,2.86-2A.42.42,0,0,1,5.52,17.46ZM5,20.63H5a.91.91,0,0,1-.64-.27.92.92,0,0,1-.26-.63A.93.93,0,0,1,5,18.82H5a.9.9,0,0,1,.9.92A.89.89,0,0,1,5,20.63Z"/><path class="cls-1" d="M1.11,22.83A4.77,4.77,0,0,0,6,24.58a4.93,4.93,0,0,0,2.69-8.15A.66.66,0,0,1,8.46,16V3.61A3.78,3.78,0,0,0,8.13,2,3.43,3.43,0,0,0,6,.16,3.54,3.54,0,0,0,4.93,0,3.34,3.34,0,0,0,3.19.49,3.41,3.41,0,0,0,1.47,3.56c0,4.12,0,8.25,0,12.38a.72.72,0,0,1-.18.49A4.81,4.81,0,0,0,0,19.88,4.62,4.62,0,0,0,1.11,22.83ZM2.26,17a1,1,0,0,0,.34-.82c0-3.57,0-7.15,0-10.72V3.54a2.36,2.36,0,0,1,1.6-2.29,2.32,2.32,0,0,1,2.1.29,2.29,2.29,0,0,1,1,1.82c0,.47,0,.93,0,1.39v.83a.36.36,0,0,1-.09.26A.33.33,0,0,1,7,5.91H6.44a.6.6,0,0,0-.58.57A.59.59,0,0,0,6.45,7H7a.3.3,0,0,1,.24.08.29.29,0,0,1,.09.23c0,.4,0,.8,0,1.19a.29.29,0,0,1-.09.23A.34.34,0,0,1,7,8.85h-.5a.6.6,0,0,0-.62.4l-.05.08-.06.1,0,.13c.14.33.4.45.88.42H7a.32.32,0,0,1,.28.07.4.4,0,0,1,.1.29c0,.42,0,.76,0,1.09a.38.38,0,0,1-.1.28.33.33,0,0,1-.29.08H6.61a.68.68,0,0,0-.77.43l-.06.12.06.15c.14.33.38.44.84.43.26,0,.43,0,.54.1s.12.26.12.55v.23c0,.17,0,.34,0,.51a.44.44,0,0,1-.1.34.39.39,0,0,1-.33.07H6.67a.73.73,0,0,0-.83.43l0,.11.06.15c.13.35.37.47.84.44H7a.36.36,0,0,1,.29.08.3.3,0,0,1,.07.28,1.06,1.06,0,0,0,.38.89,3.61,3.61,0,0,1,.94,3.68,3.68,3.68,0,0,1-2.9,2.71,3.83,3.83,0,0,1-4.62-4.11A3.64,3.64,0,0,1,2.26,17Z"/><path class="cls-1" d="M22.4,10h.14a.55.55,0,0,0,.53-.33A.5.5,0,0,0,23,9.07a.63.63,0,0,0-.5-.23h-2a.37.37,0,0,1-.39-.29,6.48,6.48,0,0,0-.37-.89.42.42,0,0,1,.09-.57l1-1,.39-.4a.56.56,0,0,0,.19-.48A.53.53,0,0,0,21,4.74a.55.55,0,0,0-.61.15L20,5.33l-1,1a.39.39,0,0,1-.52.08A7.32,7.32,0,0,0,17.58,6a.39.39,0,0,1-.32-.43c0-.68,0-1.35,0-2a.57.57,0,0,0-.26-.5A.53.53,0,0,0,16.51,3a.56.56,0,0,0-.37.56c0,.68,0,1.37,0,2.05a.38.38,0,0,1-.3.4,7.24,7.24,0,0,0-.9.37.39.39,0,0,1-.54-.08L13.31,5.23,13,4.93a.57.57,0,0,0-.67-.18.55.55,0,0,0-.33.41.59.59,0,0,0,.18.52c.42.43.85.86,1.28,1.28l.18.18a.36.36,0,0,1,.09.45,10.47,10.47,0,0,0-.42,1,.35.35,0,0,1-.37.27H10.88a.66.66,0,0,0-.44.16.56.56,0,0,0,.43,1H13a.32.32,0,0,1,.33.25,8,8,0,0,0,.4,1,.39.39,0,0,1-.08.51c-.59.58-1,1-1.47,1.48a.53.53,0,0,0-.16.41.61.61,0,0,0,.21.41.55.55,0,0,0,.74-.05c.5-.49,1-1,1.49-1.48a.36.36,0,0,1,.26-.13.46.46,0,0,1,.19,0,8.2,8.2,0,0,0,1,.41.39.39,0,0,1,.29.41c0,.68,0,1.35,0,2a.59.59,0,0,0,.38.58.52.52,0,0,0,.5-.08.6.6,0,0,0,.24-.49q0-1,0-2.07a.35.35,0,0,1,.27-.37,6.6,6.6,0,0,0,.91-.37.42.42,0,0,1,.57.07c.45.47.93,1,1.43,1.44a.62.62,0,0,0,.51.17.56.56,0,0,0,.24-1l-.42-.42-1-1a.37.37,0,0,1-.08-.49,8.86,8.86,0,0,0,.38-.9A.4.4,0,0,1,20.5,10h1.9Zm-5.69,1.81h0a2.35,2.35,0,0,1-2.38-2.36A2.36,2.36,0,0,1,16.7,7a2.37,2.37,0,0,1,0,4.74Z"/></g></g></svg>