<svg xmlns="http://www.w3.org/2000/svg" viewBox="0 0 22.82 22.8"><defs><style>.cls-1{fill:#d00e46;}</style></defs><g id="Layer_2" data-name="Layer 2"><g id="Layer_1-2" data-name="Layer 1"><path class="cls-1" d="M15.08,18.47h7.06c.49,0,.68-.19.68-.68V.68c0-.47-.2-.68-.67-.68H10.08a1,1,0,0,0-.59.19L8.37,1l-1.12.84L6,2.83a.49.49,0,0,0-.18.56.55.55,0,0,0,.58.37H17.53a.51.51,0,0,1,.37.15c.8,1,1.6,2,2.39,3L21.6,8.5a.68.68,0,0,1,.17.44c0,2.71,0,5.41,0,8.12a.31.31,0,0,1-.36.36H12.67a.59.59,0,0,0-.42.17.51.51,0,0,0-.15.36.55.55,0,0,0,.57.52h.54c.37,0,.43.06.43.43v3.32a.53.53,0,0,0,.34.54.5.5,0,0,0,.48-.06.56.56,0,0,0,.23-.48V18.86C14.69,18.53,14.75,18.47,15.08,18.47Zm6.68-12.8v.8a.49.49,0,0,1,0,.11L21.68,7,19.13,3.81l.32,0h2a.32.32,0,0,1,.24.08.29.29,0,0,1,.08.22C21.76,4.59,21.76,5.13,21.76,5.67Zm0-3.27a.31.31,0,0,1-.09.25.28.28,0,0,1-.18.06H8.29l0-.08a.42.42,0,0,0,0-.06l0-.09.12-.09.19-.15L8.8,2c.38-.29.75-.57,1.13-.84a.6.6,0,0,1,.36-.12H21.43a.33.33,0,0,1,.26.09.37.37,0,0,1,.08.26C21.76,1.75,21.76,2.1,21.77,2.4Z"/><path class="cls-1" d="M11.24,22.38a.69.69,0,0,0-.11-.49l-.05-.07c-.54-1.1-1.09-2.18-1.65-3.27a.3.3,0,0,1,.08-.4l.37-.34.31-.28a2.88,2.88,0,0,0,1-2.18c0-1.83,0-3.66,0-5.49V8.09a1.3,1.3,0,0,0-.37-.92,3.43,3.43,0,0,0-1.45-.85,9.59,9.59,0,0,0-2.66-.51,13.78,13.78,0,0,0-4.11.28,5.43,5.43,0,0,0-1.87.76A1.46,1.46,0,0,0,0,8.08c0,2.32,0,4.81,0,7.29a2.47,2.47,0,0,0,.6,1.7,12.62,12.62,0,0,0,.9.89l.22.21a.31.31,0,0,1,.08.42c-.09.16-.17.32-.25.48l-.42.85L.09,22a.82.82,0,0,0-.07.36.49.49,0,0,0,.45.43A.53.53,0,0,0,1,22.48l.43-.87a.4.4,0,0,1,.41-.26H9.39a.42.42,0,0,1,.43.27c.14.3.29.59.44.88a.52.52,0,0,0,1-.12ZM2.81,7.2a.35.35,0,0,1,.25-.15A15.36,15.36,0,0,1,6.27,6.8h0l.27,0,1.6.21a.34.34,0,0,1,.24.13.36.36,0,0,1,0,.28c-.2.87-.4,1.73-.58,2.6a1.32,1.32,0,0,1-1.21,1,4.91,4.91,0,0,1-.86.07A6.45,6.45,0,0,1,4.26,11a1.09,1.09,0,0,1-.84-.81C3.28,9.6,3.15,9,3,8.46l-.24-1A.31.31,0,0,1,2.81,7.2ZM2.12,20.29,2.75,19c.13-.49.49-.57.87-.57h0c1.26,0,2.55,0,3.79,0h.46a.46.46,0,0,1,.45.28c.13.27.26.54.4.81l.18.36L9,20l.1.26ZM9.28,17l-.35.32a.62.62,0,0,1-.38.14H2.67a.62.62,0,0,1-.38-.14l-.72-.67a1.71,1.71,0,0,1-.51-1.25c0-2.38,0-4.77,0-7.15,0-.19.09-.45.53-.6l.14,0,.07.32c.05.21.09.41.14.61L2,8.75c.13.5.25,1,.37,1.52A2.19,2.19,0,0,0,4.08,12a6.17,6.17,0,0,0,3.31,0,2,2,0,0,0,1.39-1.41c.16-.59.29-1.19.42-1.78.05-.26.11-.52.17-.78a1.74,1.74,0,0,1,.05-.22l.05-.22.13,0a.65.65,0,0,1,.57.64V10.1c0,1.71,0,3.41,0,5.12a1.94,1.94,0,0,1-.67,1.53Z"/><path class="cls-1" d="M3.24,14.34A.66.66,0,0,1,3.9,15a.65.65,0,0,1-.66.66.65.65,0,1,1,0-1.3"/><path class="cls-1" d="M8,15.64A.65.65,0,1,1,8.64,15a.65.65,0,0,1-.67.64"/></g></g></svg>