<svg xmlns="http://www.w3.org/2000/svg" viewBox="0 0 19.75 22.13"><defs><style>.cls-1{fill:#d00e46;}</style></defs><g id="Layer_2" data-name="Layer 2"><g id="Layer_1-2" data-name="Layer 1"><path class="cls-1" d="M6.81,19A8.86,8.86,0,0,1,8.9,1.91l.65-1A9.86,9.86,0,0,0,6.56,20Z"/><path class="cls-1" d="M14.17,1.85l-.25,1a8.86,8.86,0,0,1-1.53,16.39l-.75,1.21A9.86,9.86,0,0,0,14.17,1.85Z"/><path class="cls-1" d="M8.27,22.12a.51.51,0,0,0,.55-.27c.48-.75.95-1.5,1.42-2.25l4.2-6.66c.74-1.18,1.49-2.37,2.22-3.55A.71.71,0,0,0,16.74,9a.5.5,0,0,0-.56-.43H10.83l0-.21a1,1,0,0,1,0-.12l1.35-5.38c.19-.74.37-1.49.56-2.24a.47.47,0,0,0-.18-.51A.51.51,0,0,0,12.24,0a.69.69,0,0,0-.43.34L7.29,7.51,4,12.75a.58.58,0,0,0-.08.39c0,.34.34.41.58.41H9.83l0,.21s0,.08,0,.11c-.33,1.28-.65,2.56-1,3.84l-.34,1.36c-.21.81-.41,1.63-.61,2.44a.37.37,0,0,0,0,.18A.49.49,0,0,0,8.27,22.12ZM7,12.52H5.36l5.18-8.23.2.06,0,.13,0,.08,0,.14L9.81,8.31l-.15.58a.62.62,0,0,0,.08.53.59.59,0,0,0,.49.2h5.08l-5.18,8.24-.25-.11,0-.13a.8.8,0,0,1,0-.15c.35-1.41.71-2.83,1.07-4.24a.53.53,0,0,0-.57-.71Z"/></g></g></svg>