<svg xmlns="http://www.w3.org/2000/svg" viewBox="0 0 24.61 24.92"><defs><style>.cls-1{fill:#d00e46;}</style></defs><g id="Layer_2" data-name="Layer 2"><g id="Layer_1-2" data-name="Layer 1"><path class="cls-1" d="M23.37,13A11,11,0,0,1,10.61,23.77h0a2.91,2.91,0,0,1-.13,1,11.51,11.51,0,0,0,1.87.16,12,12,0,0,0,12-12c0-.43,0-.86-.07-1.27A16.13,16.13,0,0,1,23.37,13Z"/><path class="cls-1" d="M1.43,11.43A11,11,0,0,1,12.35,1.86,11.24,11.24,0,0,1,14,2V1A11.24,11.24,0,0,0,12.35.86a12,12,0,0,0-12,12V13A13.8,13.8,0,0,1,1.43,11.43Z"/><path class="cls-1" d="M24.16,0H16.09c-.31.15-.43.39-.42.85,0,1,0,2,0,3v.41a4.46,4.46,0,0,1-.05.81,3.37,3.37,0,0,1-3.35,2.78,13,13,0,0,0-2.69.3A12.32,12.32,0,0,0,.15,18.4c0,.27-.07.54-.11.81l0,.36v4.64a.83.83,0,0,0,.45.45H8.52c.31-.14.43-.39.42-.85,0-1.09,0-2.23,0-3.47a4.35,4.35,0,0,1,.16-1.17,3.31,3.31,0,0,1,3.17-2.37,12.74,12.74,0,0,0,2.63-.27,12.33,12.33,0,0,0,9.7-12.1V3.32c0-.83,0-1.66,0-2.49A.75.75,0,0,0,24.16,0ZM23.5,4.61A11.07,11.07,0,0,1,19,13.48a10.68,10.68,0,0,1-6.41,2.22A5.31,5.31,0,0,0,10.7,16a4.44,4.44,0,0,0-2.85,4.13v3.38H1.11V20.1A11.18,11.18,0,0,1,8.23,9.72,10.58,10.58,0,0,1,12,9a4.71,4.71,0,0,0,3-1,4.37,4.37,0,0,0,1.69-3.44c0-.69,0-1.37,0-2.06V1.14H23.5V2.89C23.51,3.45,23.51,4,23.5,4.61Z"/><path class="cls-1" d="M13,11.78H11.57a.55.55,0,1,0,0,1.1H13a.55.55,0,1,0,0-1.1Z"/><path class="cls-1" d="M7.31,13.52a.41.41,0,0,0-.29.11c-.4.36-.81.77-1.26,1.26a.45.45,0,0,0,0,.54.61.61,0,0,0,.48.32l.1,0a.59.59,0,0,0,.21-.1c.5-.46.9-.85,1.24-1.23a.53.53,0,0,0,0-.7A.59.59,0,0,0,7.31,13.52Z"/><path class="cls-1" d="M17.4,11.11a.5.5,0,0,0,.22-.1c.45-.42.84-.81,1.2-1.19a.54.54,0,0,0-.05-.74.54.54,0,0,0-.38-.15.48.48,0,0,0-.34.13c-.38.36-.77.75-1.18,1.18a.49.49,0,0,0-.07.58c.07.15.18.29.55.31Z"/><path class="cls-1" d="M19.6,5.28a.52.52,0,0,0,.51.53h0a.49.49,0,0,0,.53-.46,16.45,16.45,0,0,0,0-1.72.47.47,0,0,0-.52-.46h0a.49.49,0,0,0-.51.51c0,.19,0,.37,0,.56v.5C19.59,4.92,19.59,5.1,19.6,5.28Z"/><path class="cls-1" d="M5,19.37a.52.52,0,0,0-.51-.52h0a.5.5,0,0,0-.53.48A15.88,15.88,0,0,0,4,21a.44.44,0,0,0,.14.34.63.63,0,0,0,.42.14A.5.5,0,0,0,5,21c0-.19,0-.37,0-.56v-.49C5,19.74,5,19.55,5,19.37Z"/></g></g></svg>