<svg xmlns="http://www.w3.org/2000/svg" viewBox="0 0 24.64 24.62"><defs><style>.cls-1{fill:#d00e46;}</style></defs><g id="Layer_2" data-name="Layer 2"><g id="Layer_1-2" data-name="Layer 1"><path class="cls-1" d="M20.19,18.63V16.92a4.94,4.94,0,0,0-.38-2,4.75,4.75,0,0,0-3.66-3,8.22,8.22,0,0,0-1.41-.1h-.53a.5.5,0,0,1-.48-.28,11,11,0,0,0-.7-1,.83.83,0,0,1-.18-.5c0-.68,0-1.36,0-2a.53.53,0,0,0-.58-.58h-.52a.32.32,0,0,1-.36-.36V6.14a.6.6,0,0,1,.1-.52.77.77,0,0,1,.54-.1h1.55c.53,0,1.07,0,1.6,0a.61.61,0,0,0,.51-.24.5.5,0,0,0,.05-.49.53.53,0,0,0-.55-.34H11.65a.43.43,0,0,1-.44-.28A1.89,1.89,0,0,0,9.39,3h0A1.91,1.91,0,0,0,7.56,4.18a.42.42,0,0,1-.43.27H3.52A.53.53,0,0,0,3,5a.52.52,0,0,0,.41.54,1,1,0,0,0,.26,0H7a.42.42,0,0,1,.3.08.28.28,0,0,1,.08.24V7.11a.39.39,0,0,1-.29.31H6.62c-.52,0-.7.18-.7.7V10a.83.83,0,0,1-.21.58,11.49,11.49,0,0,0-.68,1,.46.46,0,0,1-.44.25h0c-1,0-2.05,0-3.08,0a.49.49,0,0,1-.33-.11.45.45,0,0,1-.1-.33c0-.65,0-1.29,0-1.93A.57.57,0,0,0,.84,9a.53.53,0,0,0-.49-.05A.58.58,0,0,0,0,9.53V19.7a.59.59,0,0,0,.28.45.47.47,0,0,0,.46,0,.53.53,0,0,0,.33-.55V19.1c0-.46,0-.92,0-1.38a.44.44,0,0,1,.1-.32.49.49,0,0,1,.32-.1H5.63a.67.67,0,0,1,.47.18,4.77,4.77,0,0,0,2.36,1.18,4.58,4.58,0,0,0,3.88-.93,2,2,0,0,1,1.4-.44,1,1,0,0,1,1,1v1.29c0,.46.2.66.67.66h1.1l-.17.34-.07.13-.2.34-.33.58a2,2,0,0,0,.94,2.83,2,2,0,0,0,1.86-.14,2,2,0,0,0,.63-2.75c-.13-.22-.26-.44-.39-.68l-.37-.65h1.15a.58.58,0,0,0,.65-.65ZM8.46,6V5a.93.93,0,0,1,.92-.93h0a.94.94,0,0,1,.94.93V6.35c0,.24,0,.47,0,.7a.43.43,0,0,1-.09.29.39.39,0,0,1-.26.09H8.83a.41.41,0,0,1-.28-.09.4.4,0,0,1-.09-.29Zm9.63,17.32a.9.9,0,0,1-.64.26.92.92,0,0,1-.42-.1.94.94,0,0,1-.51-.92.53.53,0,0,1,.05-.2l.52-1L17.3,21h.21l.12.09.09.15.18.3.09.16a6,6,0,0,1,.31.55A.92.92,0,0,1,18.09,23.29ZM19,19.07a.31.31,0,0,1-.24.09H16l-.2,0v-.53a2.56,2.56,0,0,0-.2-1.19,1.94,1.94,0,0,0-1.74-1.15c-.29,0-.59,0-.88,0h-.32a.61.61,0,0,0-.43.21,3.71,3.71,0,0,1-3.16,1.24,3.63,3.63,0,0,1-2.45-1.19A.78.78,0,0,0,6,16.22H6c-1.09,0-2.18,0-3.28,0H1.52c-.36,0-.45-.08-.45-.43V13.33c0-.36.09-.44.45-.44H5.11c.42,0,.53-.08.69-.47a3.8,3.8,0,0,1,.92-1.37A.75.75,0,0,0,7,10.39V8.91a.44.44,0,0,1,.09-.31.4.4,0,0,1,.3-.1h4a.35.35,0,0,1,.4.4c0,.32,0,.63,0,.94v.63A.68.68,0,0,0,12,11a4,4,0,0,1,1,1.52.53.53,0,0,0,.55.37h1.7a3.88,3.88,0,0,1,3.85,3.85v2A.39.39,0,0,1,19,19.07Z"/><path class="cls-1" d="M24,0H18.51c-.47,0-.68.21-.68.67V10.75c0,.47.21.68.69.68H24c.48,0,.69-.21.69-.68V.67C24.64.21,24.43,0,24,0ZM18.9,1.5a.61.61,0,0,1,.1-.32.38.38,0,0,1,.32-.11h3.83a.38.38,0,0,1,.32.11.61.61,0,0,1,.1.32V2.63a.48.48,0,0,1-.09.26.32.32,0,0,1-.24.09h-4A.33.33,0,0,1,19,2.89a.59.59,0,0,1-.09-.26ZM23.57,10a.53.53,0,0,1-.09.27.36.36,0,0,1-.27.09H19.26a.34.34,0,0,1-.26-.09.48.48,0,0,1-.1-.27V8.93a.61.61,0,0,1,.1-.32.39.39,0,0,1,.32-.11h3.83a.39.39,0,0,1,.32.11.61.61,0,0,1,.1.32Zm0-3a.39.39,0,0,1-.1.3.37.37,0,0,1-.27.09H19.27A.37.37,0,0,1,19,7.34a.39.39,0,0,1-.1-.3c0-.86,0-2.58,0-2.58a.58.58,0,0,1,.1-.31.44.44,0,0,1,.32-.1h3.83a.44.44,0,0,1,.32.1.58.58,0,0,1,.1.31S23.56,6.18,23.57,7Z"/></g></g></svg>