<svg xmlns="http://www.w3.org/2000/svg" viewBox="0 0 24.58 24.69"><defs><style>.cls-1{fill:#d00e46;}</style></defs><g id="Layer_2" data-name="Layer 2"><g id="Layer_1-2" data-name="Layer 1"><path class="cls-1" d="M.42,16.83l.17,0a.79.79,0,0,1,.3,0,6.66,6.66,0,0,1,1,.47,3.06,3.06,0,0,0,2.1.44,3.3,3.3,0,0,0,1.33-.58,2,2,0,0,1,1.12-.37,2,2,0,0,1,1.12.37,6.08,6.08,0,0,0,.6.34,2.84,2.84,0,0,0,1.66.25,3.69,3.69,0,0,0,1.43-.62,1.83,1.83,0,0,1,2.11,0,4.86,4.86,0,0,0,.54.33,2.81,2.81,0,0,0,1.8.3A3.44,3.44,0,0,0,17,17.27a2.11,2.11,0,0,1,1-.41,1.85,1.85,0,0,1,1.25.38,3,3,0,0,0,2.5.52,3.29,3.29,0,0,0,1.15-.54,1.84,1.84,0,0,1,1-.36c.41,0,.59-.2.6-.62a15.32,15.32,0,0,0-1.06-5.62,15.18,15.18,0,0,0-4.06-5.76A14.82,14.82,0,0,0,9.31,1H9.23C8.92,1,8.84,1,8.83.62V.53A.54.54,0,0,0,8.28,0H5.41a.56.56,0,0,0-.63.59c0,.34-.22.38-.4.38H1.16C.94,1,.71,1,.49,1A.47.47,0,0,0,0,1.5q0,3,0,5.94A.49.49,0,0,0,.51,8h3.8c.38,0,.45.06.48.44a.54.54,0,0,0,.56.54H8.28a.53.53,0,0,0,.55-.49A.47.47,0,0,1,9,8.07a.48.48,0,0,1,.38,0,6.43,6.43,0,0,1,5.32,6.39v2.22l-.47-.26-.63-.34a2.83,2.83,0,0,0-2-.23,3.62,3.62,0,0,0-1.25.61,1.66,1.66,0,0,1-1.8.08,2.6,2.6,0,0,1-.36-.21L8,16.18a2.89,2.89,0,0,0-3.11,0l-.2.12-.44.25a1.37,1.37,0,0,1-1.08.13,3.88,3.88,0,0,1-.89-.42,2.82,2.82,0,0,0-1.69-.51.54.54,0,0,0-.55.42C0,16.54.09,16.75.42,16.83Zm4.34-10H1.54a.42.42,0,0,1-.32-.1.47.47,0,0,1-.1-.33c0-1.19,0-2.45,0-3.87a.45.45,0,0,1,.1-.33.49.49,0,0,1,.32-.1H4.35a.39.39,0,0,1,.31.1.41.41,0,0,1,.1.31V6.8Zm3,.67a.34.34,0,0,1-.08.25.29.29,0,0,1-.22.08H5.92V1.56c0-.36.07-.43.44-.43h1a.36.36,0,0,1,.27.08.37.37,0,0,1,.09.27ZM8.85,2.55a.43.43,0,0,1,.09-.34A.59.59,0,0,1,9.4,2.1a12.76,12.76,0,0,1,4.3.69A14.2,14.2,0,0,1,23,12.6a12.31,12.31,0,0,1,.43,2.77.44.44,0,0,1-.25.45c-.4.21-.79.43-1.18.66a1.75,1.75,0,0,1-.89.24,2.35,2.35,0,0,1-.51-.06.49.49,0,0,1-.41-.54v-.7a11.47,11.47,0,0,0-2-6.25,11.68,11.68,0,0,0-7.45-5A11.35,11.35,0,0,0,9.53,4L9.27,4a.4.4,0,0,1-.42-.48C8.86,3.19,8.86,2.87,8.85,2.55Zm5.68,7.63A7.47,7.47,0,0,0,9.62,7l-.14,0-.2,0a.42.42,0,0,1-.43-.51,6.9,6.9,0,0,0,0-.91.35.35,0,0,1,.44-.4,10.53,10.53,0,0,1,3.85,1.11,10.92,10.92,0,0,1,5.35,6.12,9.56,9.56,0,0,1,.55,3c0,.21,0,.33-.09.42s-.23.08-.42.06a3.18,3.18,0,0,0-2.31.68l-.09.06-.34.23V15.8c0-.24,0-.47,0-.71,0-.53,0-1.07,0-1.6A7.1,7.1,0,0,0,14.53,10.18Z"/><path class="cls-1" d="M22.83,20.71A2.14,2.14,0,0,1,24,20.28a.52.52,0,0,0,.55-.62c0-.3-.23-.49-.59-.49h0a2.77,2.77,0,0,0-1.65.55,1.75,1.75,0,0,1-1.48.38,3.13,3.13,0,0,1-.94-.41,2.91,2.91,0,0,0-3.39,0,2,2,0,0,1-2.52,0,3.12,3.12,0,0,0-1.39-.5,2.87,2.87,0,0,0-2,.51,1.92,1.92,0,0,1-2.52,0,2.84,2.84,0,0,0-1.39-.49,3,3,0,0,0-2,.57,1.74,1.74,0,0,1-1.5.36,3.48,3.48,0,0,1-.91-.42,3,3,0,0,0-1.61-.51h0a.52.52,0,0,0-.59.49.52.52,0,0,0,.54.62,2.35,2.35,0,0,1,1.2.42,2.91,2.91,0,0,0,3.51,0,2.11,2.11,0,0,1,1.16-.4,2.1,2.1,0,0,1,1.17.41,2.91,2.91,0,0,0,3.51,0,1.9,1.9,0,0,1,2.38,0,2.94,2.94,0,0,0,3.52,0,1.85,1.85,0,0,1,2.36,0,2.81,2.81,0,0,0,1.72.55h0A3,3,0,0,0,22.83,20.71Z"/><path class="cls-1" d="M22.78,24.16a1.35,1.35,0,0,1,.29-.16l.56-.2.19-.06.2-.06a.9.9,0,0,0,.36-.13.56.56,0,0,0,.08-.77.63.63,0,0,0-.48-.19,2.71,2.71,0,0,0-1.61.5l-.09.06a1.88,1.88,0,0,1-2.36,0,2.87,2.87,0,0,0-3.45,0,2,2,0,0,1-2.48,0,2.9,2.9,0,0,0-1.77-.56,3.29,3.29,0,0,0-1.68.59,1.92,1.92,0,0,1-2.39,0,3,3,0,0,0-3.48,0,1.88,1.88,0,0,1-2.43,0,2.69,2.69,0,0,0-1.55-.52H.58A.55.55,0,0,0,0,23a.53.53,0,0,0,.48.66l.16,0a1.3,1.3,0,0,1,.33.07,10.88,10.88,0,0,1,1,.51,2.85,2.85,0,0,0,2.89,0l.45-.26.22-.12a1.59,1.59,0,0,1,1.68,0l.25.15.49.28a2.81,2.81,0,0,0,2.67,0c.2-.1.41-.22.68-.39a1.65,1.65,0,0,1,1.9,0c.2.13.41.25.6.35a2.82,2.82,0,0,0,2.69,0,7.59,7.59,0,0,0,.7-.4,1.62,1.62,0,0,1,1.86,0l.48.28a2.29,2.29,0,0,0,1.49.4h.05a2.33,2.33,0,0,0,1.53-.4Z"/></g></g></svg>