<svg xmlns="http://www.w3.org/2000/svg" viewBox="0 0 41.46 47.25"><defs><style>.cls-1{fill:#d00e46;}.cls-2{fill:#393649;}</style></defs><g id="Layer_2" data-name="Layer 2"><g id="Layer_1-2" data-name="Layer 1"><path class="cls-1" d="M29.39,28.62c0-2.89,0-6.38,0-9.34l-1.44.77a2.32,2.32,0,0,1,0,.24v7.54a.52.52,0,0,1-.27.55c-2,1.07-4,2.16-6,3.23l-.09,0v1.62l7.34-4A.66.66,0,0,0,29.39,28.62Z"/><path class="cls-1" d="M21.22,13.63a.87.87,0,0,0-1,0c-2.24,1.24-5,2.73-7.33,4l1.55.81,2.21-1.21,3.8-2.06a.55.55,0,0,1,.43,0C23,16.23,25,17.35,27,18.46l1.47-.79C26.19,16.39,23.47,14.89,21.22,13.63Z"/><path class="cls-1" d="M13.51,20.08l-.08,0-1.34-.75c0,2.9,0,6.52,0,9.3a.7.7,0,0,0,.41.72c2.24,1.21,5,2.75,7.34,4V31.64l-.62-.32c-1.76-1-3.52-1.93-5.28-2.88a.67.67,0,0,1-.41-.68c0-2.47,0-5,0-7.42Z"/><path class="cls-1" d="M21.06,33.59l.19-.1c0-4.39,0-8.55,0-9.77a.8.8,0,0,1,.48-.8l7.66-4.09v-.09l-.44-.83h0l-5,2.65L21.19,22a.9.9,0,0,1-.47.14.84.84,0,0,1-.42-.12L16.39,20l-1.88-1-.22-.14-.13-.08-1.67-.86-.06,0-.34.73v.18l1.67.93.26.11.43.23L19.84,23a.75.75,0,0,1,.36.57c0,2.39,0,4.77,0,7.16v2.8l0,0Z"/><path class="cls-2" d="M41.46,12a.4.4,0,0,0-.24-.43q-3-1.71-6-3.44L30.23,5.32l-8.74-5A1.74,1.74,0,0,0,20.73,0,1.74,1.74,0,0,0,20,.32c-2.41,1.39-4.82,2.76-7.22,4.13l-6,3.45L.2,11.63A.3.3,0,0,0,0,12Q0,23.6,0,35.25a.3.3,0,0,0,.2.32l3.26,1.85,4.9,2.8,12.16,7a.36.36,0,0,0,.42,0C29.08,42.51,35.32,39,41.15,35.62a.49.49,0,0,0,.31-.54q0-4.48,0-9v-2.3h0V21.44Q41.45,16.73,41.46,12ZM20.21,45.79l-1-.57-1.1-.62L2.87,35.89l-.44-.26c-.31-.18-.64-.38-1-.55A.75.75,0,0,1,1,34.29V12.92l1,.51L3,14,5,15l6.68,3.56,2.07,1.15.26.11.43.23L19.84,23a.75.75,0,0,1,.36.57c0,2.39,0,4.77,0,7.16v3.17c0,2.75,0,5.49,0,8.24Zm.51-23.61a.84.84,0,0,1-.42-.12L16.39,20l-1.88-1-.22-.14-.13-.08-1.81-.93L5.28,14,2.14,12.32A.59.59,0,0,1,2,12.24L1.76,12,2,11.82l.17-.14,5.31-3Q13.89,5,20.25,1.35a.86.86,0,0,1,1,0L35.09,9.3l4.14,2.37a.88.88,0,0,1,.17.12l.4.27-5.55,3c-1.7.91-3.39,1.81-5.08,2.73h0L24,20.55,21.19,22A.9.9,0,0,1,20.72,22.18ZM40,35.1l-9.45,5.4L22,45.38a2.6,2.6,0,0,1-.24.13l-.48.25V42.17c0-5.72,0-16.37,0-18.45a.8.8,0,0,1,.48-.8l14.36-7.68,3.75-2a1.19,1.19,0,0,1,.16-.08l.39-.16,0,.44c0,.11,0,.21,0,.3V18q0,8.16,0,16.32A.8.8,0,0,1,40,35.1Z"/><polygon class="cls-2" points="8.73 31.38 8.24 30.48 7.39 30.93 7.87 31.84 8.73 31.38"/><rect class="cls-2" x="2.53" y="33.31" width="0.97" height="1.03" transform="translate(-15.71 5.49) rotate(-28.36)"/><polygon class="cls-2" points="6.21 32.72 5.72 31.81 4.86 32.26 5.35 33.17 6.21 32.72"/><polygon class="cls-2" points="11.25 30.05 10.76 29.14 9.9 29.6 10.39 30.5 11.25 30.05"/><path class="cls-2" d="M37.88,34.11c.25.14.49.27.74.39,0,0,0,0,0,0l.42-.78.06-.1-.86-.46-.48.91Z"/><polygon class="cls-2" points="33.21 30.47 32.74 31.39 33.59 31.84 34.07 30.93 33.21 30.47"/><polygon class="cls-2" points="30.7 29.13 30.21 30.05 31.07 30.5 31.55 29.59 30.7 29.13"/><polygon class="cls-2" points="35.74 31.81 35.25 32.72 36.11 33.18 36.6 32.26 35.74 31.81"/><rect class="cls-2" x="20.25" y="2.81" width="0.97" height="0.94"/><rect class="cls-2" x="20.24" y="5.63" width="0.98" height="0.94"/><rect class="cls-2" x="20.24" y="8.44" width="0.98" height="0.94"/><rect class="cls-2" x="20.24" y="11.25" width="0.98" height="0.94"/></g></g></svg>