<?xml version="1.0" encoding="utf-8"?>
<!-- Generator: Adobe Illustrator 24.3.0, SVG Export Plug-In . SVG Version: 6.00 Build 0)  -->
<svg version="1.1" id="Layer_1" xmlns="http://www.w3.org/2000/svg" xmlns:xlink="http://www.w3.org/1999/xlink" x="0px" y="0px"
	 viewBox="0 0 138.9 106" style="enable-background:new 0 0 138.9 106;" xml:space="preserve">
<style type="text/css">
	.st0{fill:#D00E46;}
	.st1{fill:#C4C3C3;}
</style>
<path class="st0" d="M138.8,7.2c-0.3-3.3-2.7-6.1-6-6.9c-3.1-1-6.6,0.1-8.6,2.6c-2.2,2.5-2.7,6-1.3,9c0.3,0.8,0.2,1.8-0.4,2.5
	C114.8,22.1,106.9,30,99,37.9c-0.7,0.6-1.6,0.8-2.5,0.5c-2.3-1.1-4.9-1.1-7.1,0c-0.8,0.3-1.8,0.2-2.5-0.4c-2-2-4-4-6-6
	c-1.1-1.1-2.2-2.3-3.4-3.4c-0.7-0.7-0.9-1.7-0.6-2.6l0.2-0.6c0.4-1.3,0.6-2.7,0.6-4.1c-0.2-2.2-1.4-4.2-3.2-5.5
	c-1.9-1.4-4.4-2-6.7-1.5c-2.2,0.5-4.2,1.8-5.3,3.8c-1.2,1.9-1.6,4.2-1.1,6.4c0.3,1,0,2.1-0.8,2.8c-1.8,1.7-3.5,3.5-5.2,5.2l-2.7,2.7
	L28.1,59.6L24,63.7l-7.9,8c-0.6,0.8-1.8,1-2.7,0.4L13.3,72c-1.4-1-3-1.6-4.8-1.6H8.2c-2.5,0.1-4.8,1.2-6.3,3.1
	c-1.6,1.9-2.2,4.5-1.7,6.9c0.4,2.2,1.6,4.1,3.5,5.3C5.6,87,8,87.5,10.3,87c2.2-0.5,4.1-1.8,5.3-3.7c1.2-1.9,1.6-4.2,1.1-6.4
	c-0.3-1.1,0-2.3,0.9-3c1.9-1.8,3.7-3.7,5.6-5.6l6.4-6.4c10.8-10.8,21.5-21.6,32.2-32.3c0.7-0.9,2.1-1.1,3-0.3l0,0
	c2.3,1.7,5.4,2,8,0.7c1-0.5,2.2-0.3,2.9,0.5c3,3.1,6.1,6.1,9.1,9.1c0.8,0.7,1.1,1.9,0.6,2.8c-1.7,3.5-0.6,7.8,2.5,10.1
	c3,2.2,7,2.2,10,0c3.1-2.3,4.2-6.5,2.6-10c-0.6-1.1-0.3-2.4,0.6-3.1c8.4-8.3,15.8-15.8,22.7-22.7c0.9-1.2,2.5-1.4,3.7-0.6
	c0.6,0.2,1.2,0.3,1.8,0.4h0.3c2.4,0,4.8-0.8,6.7-2.4C138.2,12.4,139.2,9.8,138.8,7.2z M8.4,84.5L8.4,84.5c-1.5,0-3-0.6-4-1.7
	c-1.1-1.1-1.7-2.5-1.7-4c0.1-3.1,2.6-5.5,5.7-5.6c1.5,0,2.9,0.7,4,1.7c1.1,1.1,1.7,2.5,1.7,4C14,82,11.5,84.4,8.4,84.5z M69.5,28.2
	c-1.5,0-3-0.6-4.1-1.7c-2.2-2.1-2.3-5.7-0.2-8c1.1-1.1,2.6-1.8,4.2-1.7l0,0c3.1,0,5.7,2.5,5.7,5.6C75.1,25.6,72.6,28.1,69.5,28.2z
	 M92.9,51.7c-1.5,0-3-0.6-4.1-1.7c-1.1-1.1-1.6-2.5-1.6-4c0-1.6,0.7-3.1,1.8-4.1l0,0c1.1-1.1,2.5-1.7,4-1.6c3.1,0.1,5.6,2.7,5.6,5.8
	C98.5,49.1,96,51.6,92.9,51.7z M134.6,12.3c-1.1,1.1-2.6,1.7-4.1,1.8c-1.5,0-2.9-0.6-4-1.7c-1.1-1-1.7-2.4-1.7-3.9s0.6-3,1.7-4.1
	l0,0c1-1.1,2.5-1.7,4-1.8c3.1,0,5.7,2.5,5.8,5.7C136.2,9.8,135.6,11.3,134.6,12.3z"/>
<path class="st0" d="M69.4,17.2L69.4,17.2L69.4,17.2z"/>
<g id="Layer_2_2_">
	<g id="Layer_1-2_1_">
		<path class="st1" d="M69.4,17.2L69.4,17.2L69.4,17.2z"/>
		<path class="st1" d="M132.9,20.1c-0.7,0-1.3,0.6-1.3,1.3c0,14.6,0,29.2,0,43.8v16.7c0,4.4,0,8.7,0,13.1c0.1,3.5-2.1,6.7-5.4,7.8
			c-1.8,0.4-3.6,0.6-5.4,0.6c-0.5,0-5.3,0-5.3,0v-64c0-0.2,0-0.4,0-0.5c0-0.8-0.6-1.3-1.4-1.3H114c-0.3,0-1.1,0.1-1.1,1.5
			c0,0.7,0,1.4,0,2.1v10.6c0,16.3,0,32.7,0,49c0,0.8-0.2,1.4-0.6,2c-0.5,0.5-1,0.7-1.9,0.6H99.2c0,0-1.4,0.1-2-0.6
			c-0.5-0.6-0.6-1.2-0.6-2.1c0-10,0-20.1,0-30.1V63c0-0.3,0-0.5,0-0.8c-0.1-0.6-0.7-1.1-1.4-1c-0.6,0-1.2,0.5-1.2,1.1
			c0,0.3,0,0.7,0,1.1v8.9c0,9.6,0,19.1,0,28.7c0,0.8-0.2,1.3-0.6,1.8c-0.5,0.4-1,0.6-1.9,0.6c-2.8,0-8.3,0-8.3,0h-2.7
			c0,0-1.8,0-2.2-0.6c-0.4-0.5-0.5-1-0.5-1.8c0-0.2,0-0.4,0-0.7V44.8c0-0.5,0-1-0.1-1.5c-0.2-0.7-0.8-1.1-1.5-1
			c-0.6,0.1-1,0.6-1,1.2c0,0.4,0,0.8,0,1.3v12.7c0,14.4,0,28.8,0,43.3c0,1.3-0.5,2.3-1.7,2.5c-0.2,0-0.8,0.1-0.8,0.1H61.5
			c0,0-1.3,0-2-0.6c-0.5-0.5-0.5-1.1-0.6-2V44c0-1-0.2-1.3-0.6-1.5c-0.4-0.2-0.9-0.2-1.3,0c-0.4,0.3-0.7,0.8-0.7,1.4c0,2,0,4,0,5.9
			v9.9c0,13.8,0,27.6,0,41.4c0,0.6-0.1,1.3-0.6,1.8s-1.7,0.5-1.7,0.5l0,0c-4.2-0.1-11.3,0-11.3,0s-1.4-0.1-1.9-0.6s-0.7-1.2-0.6-1.9
			c0-4.5,0-9,0-13.5v-7c0-5.9,0-11.8,0-17.8c0-0.5-0.1-0.9-0.4-1.3c-0.3-0.2-0.6-0.3-1-0.3s-1.2,0.1-1.2,1.8v6.5
			c0,10.4,0,20.9,0,31.3c0.1,0.7-0.2,1.4-0.6,2c-0.5,0.5-1.1,0.5-2,0.5H23.5c0,0-1.2-0.1-1.6-0.5s-0.6-1-0.5-1.6c0-2.4,0-4.9,0-8.2
			c0.2-0.6-0.2-1.3-0.9-1.4c-0.2,0-0.3,0-0.5,0c-1,0.1-1.1,1.1-1.2,1.7v10.1c0,0-2.3,0-3.1,0c-1.9,0-3.7-0.6-5.2-1.8
			c-1.9-1.5-3-3.8-3.2-6.2c0-0.4-0.2-0.9-0.5-1.2c-0.1,0-0.4-0.1-0.8,0c-0.8,0-1.3,0.7-1.2,1.7c0.2,5.4,4.3,9.8,9.7,10.3
			c1,0.1,2,0.1,2.9,0.1h0.9h60.1H86c12.1,0,24.7,0,37,0c1.4,0,2.7-0.2,4.1-0.6c4.5-1.7,7.2-5.5,7.2-10.5c0-24.4,0-48.9,0-73.3v-0.1
			C134.1,20.7,133.6,20.1,132.9,20.1z"/>
	</g>
</g>
</svg>
