<?xml version="1.0" encoding="utf-8"?>
<!-- Generator: Adobe Illustrator 24.3.0, SVG Export Plug-In . SVG Version: 6.00 Build 0)  -->
<svg version="1.1" id="Layer_1" xmlns="http://www.w3.org/2000/svg" xmlns:xlink="http://www.w3.org/1999/xlink" x="0px" y="0px"
	 viewBox="0 0 83 71.6" style="enable-background:new 0 0 83 71.6;" xml:space="preserve">
<style type="text/css">
	.st0{fill:#D00E46;}
</style>
<g id="Layer_2_1_">
	<g id="Layer_1-2">
		<path class="st0" d="M57.3,30H45.4c-1.6,0-2-0.7-1.3-2.2c2.2-4.4,4.3-8.8,6.5-13.1c0.1-0.2,0.1-0.3,0.2-0.5h-9.8
			c-0.2,0-0.4,0-0.6,0c-0.7,0.1-1.3-0.4-1.3-1.1c0-0.1,0-0.1,0-0.2c0-0.6,0.5-1.2,1.1-1.2c0,0,0.1,0,0.1,0c4.1,0,8.2,0,12.4,0
			c1.1,0,1.5,0.8,1,1.9c-0.8,1.6-1.6,3.3-2.4,4.9l-4.4,9c0.4,0,0.7,0,1,0c4,0,7.9,0.1,11.9,0.1c0.6,0,1.2,0.1,1.5,0.7
			c0.2,0.6,0.1,1.2-0.4,1.6c-6.2,7-12.4,14.1-18.6,21.1c-3.3,3.7-6.6,7.5-9.9,11.2c-0.2,0.2-0.3,0.5-0.5,0.5c-0.4,0.1-0.9,0.1-1.4,0
			c-0.5-0.2-0.7-0.8-0.5-1.3c0,0,0,0,0,0c1.2-3.5,2.4-6.9,3.5-10.4c1.4-4.1,2.7-8.1,4.1-12.1c0-0.1,0-0.2,0-0.4h-0.9
			c-2.5,0-4.9,0-7.4,0c-1.5,0-1.9-0.6-1.4-2c2.5-6.2,4.9-12.4,7.3-18.7c0.1-0.3,0.2-0.5,0.3-0.8c0.2-0.6,0.9-0.9,1.5-0.7
			c0,0,0,0,0,0c0.6,0.1,0.9,0.7,0.8,1.3c0,0,0,0.1,0,0.1c-0.3,0.9-0.7,1.9-1.1,2.8l-6,15.6c0.4,0,0.6,0,0.9,0h7.3c1.6,0,2,0.5,1.5,2
			c-1.9,5.8-3.9,11.5-5.8,17.3c-0.1,0.3-0.1,0.6-0.1,0.8l23-26.2C57.3,30.2,57.2,30.1,57.3,30"/>
		<path class="st0" d="M68.3,41.9L66,42.5c1.2,4.7,2.3,9.2,3.5,13.8L83,51.7c-0.3-0.8-0.5-1.5-0.8-2.2l-11,3.5L68.3,41.9z"/>
		<path class="st0" d="M11.8,18.6c0,0,2,7.9,2.8,11.2l2.3-0.6c-1.2-4.6-2.3-9.2-3.5-13.8L0,19.9c0.3,0.8,0.5,1.5,0.8,2.2L11.8,18.6z
			"/>
	</g>
</g>
<g>
	<path class="st0" d="M24.5,6.9c4.8-2.7,10.4-4.3,16.4-4.3c18.4,0,33.4,15,33.4,33.4c0,6.2-1.7,12.1-4.7,17l1.6,1.6
		c3.4-5.4,5.3-11.8,5.3-18.7c0-19.6-16-35.6-35.6-35.6c-6.6,0-12.7,1.8-18,4.9L24.5,6.9z"/>
	<path class="st0" d="M58.7,64.3c-5.2,3.3-11.3,5.2-17.8,5.2c-18.4,0-33.4-15-33.4-33.4c0-6.8,2.1-13.2,5.6-18.4
		c0,0-2.2-0.7-2.5-0.2C7.2,22.8,5.3,29.2,5.3,36c0,19.6,16,35.6,35.6,35.6c7.1,0,13.8-2.1,19.4-5.8L58.7,64.3z"/>
</g>
</svg>
