<svg xmlns="http://www.w3.org/2000/svg" viewBox="0 0 62.09 73.57"><defs><style>.cls-1{fill:#d00e46;}</style></defs><g id="Layer_2" data-name="Layer 2"><g id="Layer_1-2" data-name="Layer 1"><path class="cls-1" d="M60.77,63.52a3.55,3.55,0,0,0,1.32-2.87c0-3.44,0-7.14,0-11.65A3.21,3.21,0,0,0,61,46.45a8.11,8.11,0,0,0-1.84-1.29,14.88,14.88,0,0,0-10.41-.63,7.47,7.47,0,0,0-3.32,1.76A3.52,3.52,0,0,0,44.28,49c0,1.38,0,2.76,0,4.15v3.42c0,1.38,0,2.76,0,4.14a3.39,3.39,0,0,0,1,2.49,6.92,6.92,0,0,0,2.64,1.67,15.61,15.61,0,0,0,8,.67A9.25,9.25,0,0,0,60.77,63.52ZM47.18,47a10.64,10.64,0,0,1,5.53-1.47h0a12.57,12.57,0,0,1,5.56,1,6.8,6.8,0,0,1,1.53,1,1.69,1.69,0,0,1,.66,1.22A1.73,1.73,0,0,1,59.88,50a5.49,5.49,0,0,1-2.71,1.48l-.65.13a15.08,15.08,0,0,1-3,.43h-.26a11.13,11.13,0,0,1-6.11-1.5,2.24,2.24,0,0,1-1.27-1.78A2.24,2.24,0,0,1,47.18,47Zm12.27,7.45A10.15,10.15,0,0,1,54.26,56c-.41,0-.81,0-1.2,0a11.64,11.64,0,0,1-5.5-1.25,5,5,0,0,1-.71-.46,2.09,2.09,0,0,1-.93-2.24l0-.28.25.12a15.19,15.19,0,0,0,13.93,0l.21-.1.07.22A2,2,0,0,1,59.45,54.44ZM45.93,56.16l0-.25.23.11a15.45,15.45,0,0,0,13.94,0l.23-.11,0,.24a2,2,0,0,1-.7,2.09,7.5,7.5,0,0,1-3.51,1.55,16.25,16.25,0,0,1-3.18.34,12.44,12.44,0,0,1-5-1,7.39,7.39,0,0,1-1.45-.91A1.92,1.92,0,0,1,45.93,56.16Zm2,7a6.89,6.89,0,0,1-1.17-.73,2,2,0,0,1-.81-2.17L46,60l.23.11a15.38,15.38,0,0,0,13.95,0l.22-.1.06.24a2.12,2.12,0,0,1-1,2.34A8.17,8.17,0,0,1,56,63.9a16.39,16.39,0,0,1-3,.29A12.29,12.29,0,0,1,47.91,63.11Z"/><path class="cls-1" d="M44.54,71.32a3.62,3.62,0,0,0,1.33-2.88c0-3.44,0-7.14,0-11.65a3.23,3.23,0,0,0-1.06-2.55A7.58,7.58,0,0,0,43,53a14.93,14.93,0,0,0-10.41-.64,7.53,7.53,0,0,0-3.31,1.76,3.5,3.5,0,0,0-1.2,2.72c0,1.38,0,2.77,0,4.15v3.42c0,1.38,0,2.77,0,4.15a3.45,3.45,0,0,0,1,2.49,7.07,7.07,0,0,0,2.65,1.66,15.36,15.36,0,0,0,8,.67A9.21,9.21,0,0,0,44.54,71.32ZM31,54.78a10.64,10.64,0,0,1,5.53-1.46h.05a12.71,12.71,0,0,1,5.55,1,6.7,6.7,0,0,1,1.53,1,1.53,1.53,0,0,1,0,2.49,5.37,5.37,0,0,1-2.71,1.48l-.64.13a15.18,15.18,0,0,1-3,.43h-.23a10.91,10.91,0,0,1-6.14-1.5,1.87,1.87,0,0,1,0-3.55Zm12.27,7.45A10.09,10.09,0,0,1,38,63.83c-.41,0-.81,0-1.2,0a11.64,11.64,0,0,1-5.5-1.25,5,5,0,0,1-.71-.46,2.07,2.07,0,0,1-.92-2.24l0-.28.25.12a15.16,15.16,0,0,0,13.93,0l.21-.1.07.22A2,2,0,0,1,43.22,62.23ZM29.7,64l.06-.24.23.11a15.42,15.42,0,0,0,13.94,0l.22-.11.06.25a2,2,0,0,1-.71,2.09A7.44,7.44,0,0,1,40,67.59a15.52,15.52,0,0,1-3.18.34,12.48,12.48,0,0,1-5-1A7,7,0,0,1,30.39,66,1.94,1.94,0,0,1,29.7,64Zm2,7a6.08,6.08,0,0,1-1.18-.73A2,2,0,0,1,29.7,68l.06-.25.23.11a15.33,15.33,0,0,0,13.94,0l.22-.11.06.24a2.1,2.1,0,0,1-1,2.34,8.41,8.41,0,0,1-3.42,1.36,17.28,17.28,0,0,1-3,.28A12.22,12.22,0,0,1,31.69,70.9Z"/><path class="cls-1" d="M41.09,43.12H6.88a1.69,1.69,0,0,1-1.69-1.69V17.17a1.69,1.69,0,0,1,1.69-1.68H41.09a1.69,1.69,0,0,1,1.69,1.68V41.43A1.69,1.69,0,0,1,41.09,43.12ZM6.88,17a.18.18,0,0,0-.19.18V41.43a.19.19,0,0,0,.19.19H41.09a.2.2,0,0,0,.19-.19V17.17a.19.19,0,0,0-.19-.18Z"/><rect class="cls-1" x="5.26" y="50.88" width="18.72" height="1.5"/><rect class="cls-1" x="13.87" y="16.24" width="1.5" height="26.13"/><rect class="cls-1" x="23.16" y="23.22" width="1.5" height="19.15"/><rect class="cls-1" x="32.44" y="23.22" width="1.5" height="19.15"/><rect class="cls-1" x="5.79" y="22.47" width="36.24" height="1.5"/><rect class="cls-1" x="14.62" y="28.76" width="27.4" height="1.5"/><rect class="cls-1" x="14.62" y="35.05" width="27.4" height="1.5"/><rect class="cls-1" x="27.06" y="9.35" width="16.02" height="1.5"/><rect class="cls-1" x="27.06" y="5.87" width="16.02" height="1.5"/><rect class="cls-1" x="5.26" y="55.98" width="10.66" height="1.5"/><rect class="cls-1" x="5.19" y="5.35" width="1.5" height="5.69"/><rect class="cls-1" x="8.86" y="5.35" width="1.5" height="5.69"/><rect class="cls-1" x="12.54" y="5.35" width="1.5" height="5.69"/><rect class="cls-1" x="16.21" y="5.35" width="1.5" height="5.69"/><path class="cls-1" d="M1.5,61.75V2.32a.82.82,0,0,1,.82-.82H45.64a.83.83,0,0,1,.83.82V43.46a10.59,10.59,0,0,1,1.5-.55V2.32A2.32,2.32,0,0,0,45.64,0H2.32A2.32,2.32,0,0,0,0,2.32V61.75a2.32,2.32,0,0,0,2.32,2.32H25.94v-1.5H2.32A.82.82,0,0,1,1.5,61.75Z"/></g></g></svg>