<?xml version="1.0" encoding="utf-8"?>
<!-- Generator: Adobe Illustrator 24.3.0, SVG Export Plug-In . SVG Version: 6.00 Build 0)  -->
<svg version="1.1" id="Layer_1" xmlns="http://www.w3.org/2000/svg" xmlns:xlink="http://www.w3.org/1999/xlink" x="0px" y="0px"
	 viewBox="0 0 74.3 65.3" style="enable-background:new 0 0 74.3 65.3;" xml:space="preserve">
<style type="text/css">
	.st0{fill:#CACACA;}
</style>
<g id="Layer_2_1_">
	<g id="Layer_1-2">
		<path class="st0" d="M8.2,23H4.5v40H0v2.2h74.3V63H56.3l0.4-0.6l0.2-0.3l0.9-1.2c0.7-0.9,1.3-1.7,2-2.6c3.1-4.1,5.8-8.4,8-13
			c1.3-2.7,2.1-5.1,1.9-7.7c-0.3-5.2-3.3-9.8-7.8-12.3c-2.7-1.5-5.9-2.2-9-1.9c-2.4,0.2-4.7,1.1-6.7,2.4c-3,2-5.3,4.9-6.3,8.4
			c-0.9,2.9-0.8,6,0.4,8.8c0.9,2.3,2,4.5,3.2,6.6c2.6,4.3,5.5,8.5,8.6,12.5c0.1,0.1,0.1,0.2,0.2,0.3l0.4,0.5H36.1v-8.8H42v-2.2h-8.3
			V63h-6.4V7.9h25.6v12.2h2.3V5.5H43.6V0H24.9v17.5H8.2V23z M47.3,51.2c-1.7-2.7-3.3-5.6-4.5-8.5c-1.5-3.3-1.2-7.2,0.6-10.3
			c1.8-3.4,5-5.8,8.8-6.5c5.7-1.1,11.4,1.7,14,6.9c0.8,1.7,1.3,3.6,1.4,5.5c0,1.4-0.3,2.8-0.9,4.1c-1.3,3.3-3,6.4-5,9.3
			c-1.5,2.2-3.1,4.4-4.6,6.5c-0.7,0.9-1.3,1.8-2,2.7c0,0.1-0.1,0.1-0.2,0.2l-0.3,0.3l-0.2-0.2C51.8,57.7,49.4,54.5,47.3,51.2z
			 M27.3,2.3h13.9v3.2H27.3L27.3,2.3z M24.9,63H6.8V25.3h18.1V63z M10.5,19.7h14V23h-14V19.7z"/>
		<rect x="30.8" y="16" class="st0" width="18.6" height="2.3"/>
		<rect x="30.8" y="25.2" class="st0" width="9.8" height="2.3"/>
		<rect x="30.8" y="34.4" class="st0" width="5.4" height="2.3"/>
		<rect x="10.2" y="31.2" class="st0" width="11.4" height="2.3"/>
		<rect x="10.2" y="38.9" class="st0" width="11.4" height="2.3"/>
		<rect x="10.2" y="46.9" class="st0" width="11.4" height="2.3"/>
		<rect x="10.2" y="54.8" class="st0" width="11.4" height="2.2"/>
		<path class="st0" d="M54.3,43.2c1.4,0.1,2.8-0.4,3.8-1.4c1-0.9,1.6-2.3,1.6-3.6l0,0c0-1.3-0.5-2.6-1.4-3.6c-0.9-1-2.3-1.6-3.6-1.6
			h-0.1c-1.3,0-2.6,0.5-3.5,1.4c-2,2-2.1,5.2-0.2,7.2C51.8,42.6,53,43.2,54.3,43.2z M54.6,35.3L54.6,35.3c1.5,0,2.8,1.3,2.8,2.8
			c0,0.8-0.3,1.5-0.8,2c-0.5,0.5-1.2,0.8-1.9,0.8l0,0c-0.8,0-1.5-0.3-2-0.9c-0.5-0.5-0.8-1.3-0.8-2C51.9,36.6,53.1,35.3,54.6,35.3z"
			/>
	</g>
</g>
</svg>
