<?xml version="1.0" encoding="utf-8"?>
<!-- Generator: Adobe Illustrator 24.3.0, SVG Export Plug-In . SVG Version: 6.00 Build 0)  -->
<svg version="1.1" id="Layer_1" xmlns="http://www.w3.org/2000/svg" xmlns:xlink="http://www.w3.org/1999/xlink" x="0px" y="0px"
	 viewBox="0 0 75.7 68.7" style="enable-background:new 0 0 75.7 68.7;" xml:space="preserve">
<style type="text/css">
	.st0{fill:#CACACA;}
</style>
<path class="st0" d="M75.7,68.6V16.5c0-0.3,0-0.4-0.2-0.5c-2.7-1.1-5.4-2.3-8.2-3.5l-5.6-2.4L38.1,0c-0.2-0.1-0.4-0.1-0.5,0
	c-0.7,0.3-1.4,0.6-2.1,0.9l-0.9,0.4L14.9,9.8L0.4,16C0.1,16.1,0,16.2,0,16.6c0,15.1,0,30.2,0,45.3v6.8h7.2V26.8h61.2v41.7H75.7z
	 M5.2,24.8v41.8H2.1V62c0-14.6,0-29.2,0-43.8c-0.1-0.4,0.2-0.9,0.6-1l19.5-8.3l7.3-3.1c2.6-1.2,5.3-2.3,7.9-3.4
	c0.3-0.1,0.5-0.1,0.8,0l16.1,6.9l6.4,2.7L73,17.2c0.4,0.1,0.7,0.6,0.6,1c0,13.7,0,27.5,0,41.2v7.1h-3.1V24.8H5.2z"/>
<path class="st0" d="M10.4,67h32.7V49.5h-7.7V34.2H18.3H18v0.3c0,0,0,7.3,0,10.9v4.1h-7.6V67z M35.5,55v-3.3H41v13.2H27.9V51.7h5.5
	V55H35.5z M20.1,36.3h5.6v3.3h2.1v-3.3h5.5v13.2H20.1V36.3z M12.4,51.7h2.3H18V55h2.1v-3.3h5.6v13.2H12.4V51.7z"/>
<path class="st0" d="M65.4,67V49.6H48c0,0.1,0,0.2,0,0.2v4c0,4.3,0,13.1,0,13.1H65.4z M50,51.7h5.6V55h2.1v-3.3h5.6v13.3H50V51.7z"
	/>
<rect x="18.9" y="16.2" class="st0" width="4.5" height="2"/>
<path class="st0" d="M12,16.2v2.1h0.6c1.3,0,2.6,0,3.9,0l0,0c0-0.6,0-1.2,0-1.8v-0.2L12,16.2z"/>
<rect x="25.8" y="16.2" class="st0" width="4.5" height="2"/>
<path class="st0" d="M50,16.4v-0.2h-4.6v2H46c1.3,0,2.6,0,4,0l0,0C50,17.6,50,17,50,16.4z"/>
<rect x="52.2" y="16.2" class="st0" width="4.5" height="2"/>
<rect x="59.1" y="16.2" class="st0" width="4.5" height="2"/>
<path class="st0" d="M37.8,11.9c-2.9-0.1-5.4,2.1-5.5,5.1c-0.1,2.9,2.1,5.4,5.1,5.5c0.2,0,0.3,0,0.5,0c2.9-0.1,5.2-2.6,5.1-5.5
	C42.8,14.2,40.6,12,37.8,11.9z M40.8,17.3c0,1.8-1.4,3.2-3.2,3.2c0,0,0,0-0.1,0h0c-1.8,0-3.2-1.5-3.2-3.2c0-1.8,1.5-3.2,3.2-3.2
	C39.4,14,40.8,15.4,40.8,17.3C40.8,17.2,40.8,17.2,40.8,17.3z"/>
</svg>
