<?xml version="1.0" encoding="utf-8"?>
<!-- Generator: Adobe Illustrator 24.3.0, SVG Export Plug-In . SVG Version: 6.00 Build 0)  -->
<svg version="1.1" id="Layer_1" xmlns="http://www.w3.org/2000/svg" xmlns:xlink="http://www.w3.org/1999/xlink" x="0px" y="0px"
	 viewBox="0 0 62.1 73.6" style="enable-background:new 0 0 62.1 73.6;" xml:space="preserve">
<style type="text/css">
	.st0{fill:#CACACA;}
</style>
<g id="Layer_2_1_">
	<g id="Layer_1-2">
		<path class="st0" d="M60.8,63.5c0.9-0.7,1.4-1.8,1.3-2.9c0-3.4,0-7.1,0-11.7c0-1-0.4-1.9-1.1-2.5c-0.6-0.5-1.2-0.9-1.8-1.3
			c-3.3-1.5-7-1.7-10.4-0.6c-1.2,0.3-2.4,0.9-3.3,1.8C44.7,47,44.2,48,44.3,49c0,1.4,0,2.8,0,4.2v3.4c0,1.4,0,2.8,0,4.1
			c0,0.9,0.3,1.8,1,2.5c0.7,0.8,1.6,1.3,2.6,1.7c2.6,0.9,5.3,1.1,8,0.7C57.7,65.3,59.4,64.6,60.8,63.5z M47.2,47
			c1.7-1,3.6-1.5,5.5-1.5l0,0c1.9-0.1,3.8,0.2,5.6,1c0.6,0.3,1.1,0.6,1.5,1c0.4,0.3,0.6,0.7,0.7,1.2c0,0.5-0.2,0.9-0.6,1.2
			c-0.7,0.7-1.7,1.3-2.7,1.5l-0.7,0.1c-1,0.2-2,0.4-3,0.4h-0.3c-2.1,0.1-4.3-0.4-6.1-1.5c-0.7-0.3-1.2-1-1.3-1.8
			C46,48,46.5,47.3,47.2,47z M59.5,54.4c-1.6,1-3.4,1.5-5.2,1.5c-0.4,0-0.8,0-1.2,0c-1.9,0-3.8-0.4-5.5-1.2
			c-0.2-0.1-0.5-0.3-0.7-0.5c-0.8-0.5-1.1-1.4-0.9-2.2v-0.3l0.2,0.1c4.4,2.3,9.6,2.3,13.9,0l0.2-0.1l0.1,0.2
			C60.7,52.9,60.3,54,59.5,54.4L59.5,54.4z M45.9,56.2v-0.2l0.2,0.1c4.4,2.2,9.6,2.2,13.9,0l0.2-0.1v0.2c0.2,0.8-0.1,1.6-0.7,2.1
			c-1,0.8-2.2,1.3-3.5,1.5c-1,0.2-2.1,0.3-3.2,0.3c-1.7,0-3.4-0.3-5-1c-0.5-0.2-1-0.6-1.5-0.9C45.9,57.7,45.7,56.9,45.9,56.2z
			 M47.9,63.2c-0.4-0.2-0.8-0.4-1.2-0.7c-0.7-0.5-1-1.3-0.8-2.2l0-0.3l0.2,0.1c4.4,2.2,9.6,2.2,14,0l0.2-0.1l0.1,0.2
			c0.2,0.9-0.2,1.9-1,2.3c-1,0.7-2.2,1.1-3.5,1.3c-1,0.2-2,0.3-3,0.3C51.2,64.2,49.5,63.8,47.9,63.2L47.9,63.2z"/>
		<path class="st0" d="M44.5,71.3c0.9-0.7,1.4-1.8,1.3-2.9c0-3.4,0-7.1,0-11.7c0-1-0.3-1.9-1.1-2.5c-0.5-0.5-1.1-0.9-1.8-1.2
			c-3.3-1.5-7-1.7-10.4-0.6c-1.2,0.3-2.4,0.9-3.3,1.8c-0.8,0.7-1.2,1.7-1.2,2.7c0,1.4,0,2.8,0,4.2v3.4c0,1.4,0,2.8,0,4.2
			c0,0.9,0.3,1.8,1,2.5c0.7,0.7,1.7,1.3,2.6,1.7c2.6,0.9,5.3,1.2,8,0.7C41.5,73.2,43.2,72.5,44.5,71.3z M31,54.8
			c1.7-1,3.6-1.5,5.5-1.5h0c1.9-0.1,3.8,0.3,5.5,1c0.6,0.3,1.1,0.6,1.5,1c0.7,0.5,0.8,1.4,0.4,2.1c-0.1,0.1-0.2,0.3-0.4,0.4
			c-0.7,0.7-1.7,1.3-2.7,1.5l-0.6,0.1c-1,0.2-2,0.4-3,0.4h-0.2c-2.1,0.1-4.3-0.4-6.1-1.5C30,58,29.4,57,29.8,56
			C29.9,55.4,30.4,55,31,54.8L31,54.8z M43.3,62.2c-1.6,1-3.4,1.6-5.3,1.6c-0.4,0-0.8,0-1.2,0c-1.9,0-3.8-0.4-5.5-1.2
			c-0.2-0.1-0.5-0.3-0.7-0.5c-0.8-0.5-1.1-1.4-0.9-2.2v-0.3l0.2,0.1c4.4,2.3,9.6,2.3,13.9,0l0.2-0.1l0.1,0.2
			C44.4,60.8,44.1,61.8,43.3,62.2L43.3,62.2z M29.7,64l0.1-0.2l0.2,0.1c4.4,2.2,9.6,2.2,13.9,0l0.2-0.1l0.1,0.2
			c0.2,0.8-0.1,1.6-0.7,2.1c-1,0.8-2.2,1.3-3.5,1.5c-1,0.2-2.1,0.3-3.2,0.3c-1.7,0-3.4-0.3-5-1c-0.5-0.3-1-0.6-1.4-0.9
			C29.8,65.5,29.5,64.7,29.7,64z M31.7,71c-0.4-0.2-0.8-0.4-1.2-0.7c-0.8-0.5-1.1-1.4-0.8-2.3l0.1-0.2l0.2,0.1
			c4.4,2.2,9.6,2.2,13.9,0l0.2-0.1l0.1,0.2c0.2,0.9-0.2,1.9-1,2.3c-1,0.7-2.2,1.2-3.4,1.4c-1,0.2-2,0.3-3,0.3
			C35,72,33.3,71.6,31.7,71L31.7,71z"/>
		<path class="st0" d="M41.1,43.1H6.9c-0.9,0-1.7-0.8-1.7-1.7V17.2c0-0.9,0.8-1.7,1.7-1.7h34.2c0.9,0,1.7,0.8,1.7,1.7v24.3
			C42.8,42.4,42,43.1,41.1,43.1z M6.9,17c-0.1,0-0.2,0.1-0.2,0.2c0,0,0,0,0,0v24.2c0,0.1,0.1,0.2,0.2,0.2h34.2
			c0.1,0,0.2-0.1,0.2-0.2V17.2c0-0.1-0.1-0.2-0.2-0.2L6.9,17z"/>
		<rect x="5.3" y="50.9" class="st0" width="18.7" height="1.5"/>
		<rect x="13.9" y="16.2" class="st0" width="1.5" height="26.1"/>
		<rect x="23.2" y="23.2" class="st0" width="1.5" height="19.1"/>
		<rect x="32.4" y="23.2" class="st0" width="1.5" height="19.1"/>
		<rect x="5.8" y="22.5" class="st0" width="36.2" height="1.5"/>
		<rect x="14.6" y="28.8" class="st0" width="27.4" height="1.5"/>
		<rect x="14.6" y="35" class="st0" width="27.4" height="1.5"/>
		<rect x="27.1" y="9.3" class="st0" width="16" height="1.5"/>
		<rect x="27.1" y="5.9" class="st0" width="16" height="1.5"/>
		<rect x="5.3" y="56" class="st0" width="10.7" height="1.5"/>
		<rect x="5.2" y="5.3" class="st0" width="1.5" height="5.7"/>
		<rect x="8.9" y="5.3" class="st0" width="1.5" height="5.7"/>
		<rect x="12.5" y="5.3" class="st0" width="1.5" height="5.7"/>
		<rect x="16.2" y="5.3" class="st0" width="1.5" height="5.7"/>
		<path class="st0" d="M1.5,61.7V2.3c0-0.5,0.4-0.8,0.8-0.8h43.3c0.5,0,0.8,0.4,0.8,0.8v41.1c0.5-0.2,1-0.4,1.5-0.5V2.3
			C48,1,46.9,0,45.7,0c0,0,0,0,0,0H2.3C1,0,0,1,0,2.3c0,0,0,0,0,0v59.4c0,1.3,1,2.3,2.3,2.3h23.6v-1.5H2.3
			C1.9,62.6,1.5,62.2,1.5,61.7z"/>
	</g>
</g>
</svg>
