<?xml version="1.0" encoding="utf-8"?>
<!-- Generator: Adobe Illustrator 24.3.0, SVG Export Plug-In . SVG Version: 6.00 Build 0)  -->
<svg version="1.1" id="Layer_1" xmlns="http://www.w3.org/2000/svg" xmlns:xlink="http://www.w3.org/1999/xlink" x="0px" y="0px"
	 viewBox="0 0 78 66.5" style="enable-background:new 0 0 78 66.5;" xml:space="preserve">
<style type="text/css">
	.st0{fill:#CACACA;}
</style>
<g id="Layer_2_1_">
	<g id="Layer_1-2">
		<path class="st0" d="M69.4,10.4c0-2.5-1.3-3.7-4.1-3.7h-3.9c-0.5,0-0.6,0-0.6,0.2v12.5c0,0.3,0.3,0.6,1,0.6c0.4,0,1-0.4,1-0.6
			v-4.5h2.2c3,0,4.5-1.4,4.5-4.1L69.4,10.4z M64.9,13.3h-2.2V8.2h2.2c1.2-0.2,2.4,0.7,2.5,2c0,0.2,0,0.4,0,0.6
			c0.2,1.2-0.7,2.4-2,2.5C65.2,13.3,65.1,13.3,64.9,13.3z"/>
		<path class="st0" d="M54.7,46.2c0.6,0.1,1.2-0.4,1.3-1c0-0.1,0-0.2,0-0.4c0.1-1.1-0.4-2.1-1.4-2.5h-0.1c-0.2-0.2-0.5-0.4-0.8-0.6
			l-8.2-5.3c-2.1-1.6-4.7-2.4-7.3-2.3H24.9c-3.6-0.1-7.1,1.3-9.7,3.9c-1.3,1.3-2.7,2.3-4.4,3.2c-1.3,0.7-1.8,2.4-1,3.7
			c0.4,0.8,1.2,1.3,2.1,1.4H54.7z M12,44.3c-0.5,0-0.6-0.1-0.6-0.5c-0.1-0.1-0.2-0.2-0.2-0.4c0-0.2,0.2-0.3,0.3-0.4
			c0.1-0.1,0.2-0.2,0.3-0.2l0,0c1.7-0.9,3.3-2.1,4.7-3.5c2.2-2.2,5.2-3.4,8.4-3.3h2.9v8.2L12,44.3z M29.8,44.3V36h8.4
			c2.2-0.1,4.5,0.5,6.4,1.6l7.4,5.1c1.8,1.1,1.8,1.5,1.8,1.5L29.8,44.3z"/>
		<path class="st0" d="M52.9,2.5c0-0.3,0.3-0.6,0.6-0.5h22L76,2.5v22c0,0.3-0.2,0.6-0.5,0.6c0,0,0,0,0,0h-22c-0.5,0-0.6-0.1-0.6-0.6
			L52.9,2.5z M63.9,27h2v14.6l-2-0.5L63.9,27z M71,60.3h2.9c2.1,0.2,3.9-1.4,4.1-3.5c0-0.1,0-0.1,0-0.2v-5.9c0-1.2-0.4-2.4-1.1-3.4
			l-0.4-0.4c-1.1-2.3-3.2-3.9-5.7-4.2l-3.3-0.8V27h8c1.4-0.1,2.5-1.2,2.6-2.5V2.5c-0.1-1.4-1.2-2.4-2.6-2.5h-22
			C52.1,0,51,1.1,51,2.5c0,0,0,0,0,0v21.9c0,1.4,1.1,2.5,2.4,2.5c0,0,0,0,0.1,0h8.8v13.7h-1.8c-1.4-0.4-2.8-1-4-1.9
			C56,38.5,55.5,38.2,55,38l-7.5-5.1c-2.7-1.9-6-2.8-9.3-2.7H24.9c-2.2,0-4.5,0.4-6.6,1.2c-2,0.9-3.9,2.2-5.4,3.9
			c-2.1,2-4.7,3.4-7.5,4l-1.6,0.4c-1.1,0.1-2,0.7-2.7,1.5C0.4,41.9,0,43,0,44.1V55c0.1,1.3,0.8,2.4,1.9,3l4.4,2v-2.3L2.5,56
			c-0.5,0-0.9-0.5-0.9-1V44.1c0.2-1.4,1.2-2.5,2.5-2.9l1.6-0.4c3.3-0.4,6.3-1.9,8.5-4.3c2.6-3,6-4.4,10.7-4.4h13.3
			c3-0.1,5.9,0.8,8.3,2.4l7.4,5.1c0.4,0.2,0.8,0.4,1.2,0.7c1.5,1,3.2,1.7,5,2l10.2,2c2,0.4,3.7,1.7,4.5,3.6l0.4,0.4
			c0.4,0.7,0.7,1.6,0.8,2.4v5.9c0,0.3,0,0.6-0.1,0.9c-0.1,0.2-0.2,0.3-0.3,0.5c-0.5,0.5-1.1,0.8-1.7,0.8H71V60.3z M57.6,58.7H20.4
			l0,1.6h37.1L57.6,58.7z"/>
		<path class="st0" d="M29.2,48.2h3.7c0.5,0,1,0.4,1,1v0c0,0.5-0.4,1-1,1h-3.7c-0.5,0-1-0.4-1-1v0C28.2,48.6,28.7,48.2,29.2,48.2z"
			/>
		<path class="st0" d="M13.3,66.5c-4.1,0-7.4-3.3-7.4-7.4s3.3-7.4,7.4-7.4s7.4,3.3,7.4,7.4C20.7,63.2,17.4,66.5,13.3,66.5z
			 M13.3,53.2c-3.3,0-5.9,2.6-5.9,5.9s2.6,5.9,5.9,5.9s5.9-2.6,5.9-5.9C19.2,55.8,16.6,53.2,13.3,53.2z"/>
		<path class="st0" d="M13.3,62.5c-1.9,0-3.4-1.5-3.4-3.4c0-1.9,1.5-3.4,3.4-3.4s3.4,1.5,3.4,3.4l0,0C16.8,61,15.2,62.5,13.3,62.5z
			 M13.3,57.1c-1.1,0-1.9,0.9-1.9,1.9c0,1.1,0.9,1.9,1.9,1.9s1.9-0.9,1.9-1.9c0,0,0,0,0,0C15.3,58,14.4,57.1,13.3,57.1z"/>
		<path class="st0" d="M64.1,66.5c-4.1,0-7.4-3.3-7.4-7.4s3.3-7.4,7.4-7.4s7.4,3.3,7.4,7.4S68.2,66.5,64.1,66.5L64.1,66.5z
			 M64.1,53.2c-3.3,0-5.9,2.6-5.9,5.9s2.6,5.9,5.9,5.9c3.3,0,5.9-2.6,5.9-5.9S67.4,53.2,64.1,53.2C64.1,53.2,64.1,53.2,64.1,53.2z"
			/>
		<path class="st0" d="M64.1,62.5c-1.9,0-3.4-1.5-3.4-3.4c0-1.9,1.5-3.4,3.4-3.4c1.9,0,3.4,1.5,3.4,3.4S66,62.5,64.1,62.5L64.1,62.5
			z M64.1,57.1c-1.1,0-1.9,0.9-1.9,1.9c0,1.1,0.9,1.9,1.9,1.9c1.1,0,1.9-0.9,1.9-1.9c0,0,0,0,0,0C66.1,58,65.2,57.1,64.1,57.1z"/>
	</g>
</g>
</svg>
