<svg xmlns="http://www.w3.org/2000/svg" viewBox="0 0 77.99 66.47"><defs><style>.cls-1{fill:#d00e46;}</style></defs><g id="Layer_2" data-name="Layer 2"><g id="Layer_1-2" data-name="Layer 1"><path class="cls-1" d="M69.36,10.36c0-2.53-1.3-3.71-4.1-3.71H61.34c-.5,0-.58,0-.58.19V19.39c0,.28.31.58,1,.58.36,0,1-.37,1-.58V14.86h2.16c3,0,4.49-1.38,4.49-4.11ZM64.87,13.3H62.71V8.21h2.16a2.27,2.27,0,0,1,2.54,2.54A2.28,2.28,0,0,1,64.87,13.3Z"/><path class="cls-1" d="M54.67,46.2A1.18,1.18,0,0,0,56,44.84a2.48,2.48,0,0,0-1.42-2.55l-.08,0a5.62,5.62,0,0,0-.75-.56l-8.22-5.3a12,12,0,0,0-7.35-2.32H24.89a12.84,12.84,0,0,0-9.67,3.88,17.62,17.62,0,0,1-4.35,3.17A2.7,2.7,0,0,0,12,46.2ZM12,44.26c-.47,0-.58-.08-.59-.51a.54.54,0,0,1-.16-.37c0-.19.16-.29.31-.4a2,2,0,0,0,.3-.24l0,0a18.7,18.7,0,0,0,4.67-3.48A11,11,0,0,1,24.89,36h2.94v8.25Zm17.82,0V36h8.44a11.36,11.36,0,0,1,6.37,1.62L52,42.72c1.85,1.1,1.85,1.54,1.85,1.54Z"/><path class="cls-1" d="M52.9,2.54A.58.58,0,0,1,53.5,2h22l.5.51v22a.57.57,0,0,1-.59.59h-22c-.51,0-.6-.09-.6-.59ZM63.88,27h2V41.57l-2-.49ZM71,60.31h2.89A3.82,3.82,0,0,0,78,56.58V50.71a6.16,6.16,0,0,0-1.13-3.4l-.41-.43a7.4,7.4,0,0,0-5.74-4.19l-3.31-.82V27h8A2.76,2.76,0,0,0,78,24.47V2.54A2.76,2.76,0,0,0,75.45,0h-22A2.48,2.48,0,0,0,51,2.54V24.47A2.48,2.48,0,0,0,53.5,27h8.83V40.74H60.56a13.08,13.08,0,0,1-4-1.86c-.55-.34-1.08-.66-1.56-.9l-7.46-5.13a15.41,15.41,0,0,0-9.3-2.7H24.89a18.11,18.11,0,0,0-6.58,1.16,17.36,17.36,0,0,0-5.43,3.87,15.36,15.36,0,0,1-7.53,4l-1.56.39a3.76,3.76,0,0,0-2.65,1.51,4.9,4.9,0,0,0-1.14,3V55a3.81,3.81,0,0,0,1.89,3l4.39,2V57.67L2.52,56a1,1,0,0,1-.94-1V44.06a3.58,3.58,0,0,1,2.48-2.93l1.58-.4a13.8,13.8,0,0,0,8.52-4.27c2.62-3,6-4.36,10.73-4.36H38.21a14.86,14.86,0,0,1,8.35,2.38L54,39.59c.38.18.8.43,1.25.7a13.29,13.29,0,0,0,5,2l10.18,2a6,6,0,0,1,4.46,3.61l.4.41a5.67,5.67,0,0,1,.8,2.44v5.87a2.35,2.35,0,0,1-.1.86,1.62,1.62,0,0,1-.35.45,3.07,3.07,0,0,1-1.73.84H71ZM57.61,58.73H20.38l.05,1.58H57.55Z"/><rect class="cls-1" x="28.22" y="48.17" width="5.62" height="1.95" rx="0.97"/><path class="cls-1" d="M13.32,66.47a7.4,7.4,0,1,1,7.4-7.4A7.41,7.41,0,0,1,13.32,66.47Zm0-13.3a5.9,5.9,0,1,0,5.9,5.9A5.91,5.91,0,0,0,13.32,53.17Z"/><path class="cls-1" d="M13.32,62.51a3.44,3.44,0,1,1,3.44-3.44A3.44,3.44,0,0,1,13.32,62.51Zm0-5.37a1.94,1.94,0,1,0,1.94,1.93A1.94,1.94,0,0,0,13.32,57.14Z"/><path class="cls-1" d="M64.13,66.47a7.4,7.4,0,1,1,7.4-7.4A7.4,7.4,0,0,1,64.13,66.47Zm0-13.3a5.9,5.9,0,1,0,5.9,5.9A5.9,5.9,0,0,0,64.13,53.17Z"/><path class="cls-1" d="M64.13,62.51a3.44,3.44,0,1,1,3.44-3.44A3.44,3.44,0,0,1,64.13,62.51Zm0-5.37a1.94,1.94,0,1,0,1.94,1.93A1.94,1.94,0,0,0,64.13,57.14Z"/></g></g></svg>