<svg xmlns="http://www.w3.org/2000/svg" viewBox="0 0 74.27 65.29"><defs><style>.cls-1{fill:#d00e46;}</style></defs><g id="Layer_2" data-name="Layer 2"><g id="Layer_1-2" data-name="Layer 1"><path class="cls-1" d="M8.16,23H4.49V63H0v2.25H74.27V63H56.34l.41-.58.21-.28.94-1.25c.65-.87,1.31-1.74,2-2.62a79.73,79.73,0,0,0,8-13c1.26-2.72,2.07-5.07,1.89-7.71A15.14,15.14,0,0,0,62,25.28a15,15,0,0,0-9-1.86,14.71,14.71,0,0,0-6.66,2.38,15,15,0,0,0-6.28,8.42,13.25,13.25,0,0,0,.36,8.83,44.48,44.48,0,0,0,3.22,6.6,128.08,128.08,0,0,0,8.59,12.51,3.16,3.16,0,0,1,.2.27l.4.55H36.12V54.14H42V51.91H33.73V63H27.32V7.88H52.9V20.13h2.28V5.53H43.58V0H24.94V17.45H8.16ZM47.3,51.16a58.47,58.47,0,0,1-4.55-8.51,11.32,11.32,0,0,1,.62-10.31,12.47,12.47,0,0,1,8.77-6.45,12.87,12.87,0,0,1,14,6.87,13.47,13.47,0,0,1,1.36,5.48,10.58,10.58,0,0,1-.86,4.09,44.49,44.49,0,0,1-5,9.29C60.13,53.83,58.55,56,57,58.14c-.66.91-1.32,1.82-2,2.74a1.24,1.24,0,0,1-.16.19l-.28.32-.18-.24C51.75,57.74,49.43,54.47,47.3,51.16Zm-20-48.88H41.24V5.51H27.32ZM24.93,63H6.83V25.32h18.1ZM10.48,19.74h14V23h-14Z"/><rect class="cls-1" x="30.81" y="15.98" width="18.57" height="2.27"/><rect class="cls-1" x="30.8" y="25.22" width="9.77" height="2.26"/><rect class="cls-1" x="30.8" y="34.44" width="5.36" height="2.27"/><rect class="cls-1" x="10.17" y="31.25" width="11.43" height="2.26"/><rect class="cls-1" x="10.17" y="38.94" width="11.41" height="2.27"/><rect class="cls-1" x="10.18" y="46.87" width="11.41" height="2.27"/><rect class="cls-1" x="10.17" y="54.84" width="11.43" height="2.22"/><path class="cls-1" d="M54.35,43.24a5.2,5.2,0,0,0,3.79-1.41,5.08,5.08,0,0,0,1.59-3.64h0a5,5,0,0,0-1.41-3.59A5.08,5.08,0,0,0,54.69,33h-.1a5,5,0,0,0-3.5,1.42,5.12,5.12,0,0,0,3.26,8.82Zm.25-7.92h0a2.83,2.83,0,0,1,2.8,2.8,2.85,2.85,0,0,1-.85,2,2.73,2.73,0,0,1-1.93.82h0a2.86,2.86,0,0,1-2-.88,2.74,2.74,0,0,1-.8-2A2.83,2.83,0,0,1,54.6,35.32Z"/></g></g></svg>