<svg xmlns="http://www.w3.org/2000/svg" xmlns:xlink="http://www.w3.org/1999/xlink" viewBox="0 0 1558.5 1173.02"><defs><style>.cls-1{fill:url(#linear-gradient);}.cls-2{fill:url(#linear-gradient-2);}.cls-3{fill:url(#linear-gradient-3);}.cls-4{fill:url(#linear-gradient-4);}.cls-5{fill:url(#linear-gradient-5);}.cls-6{fill:url(#linear-gradient-6);}.cls-7{fill:url(#linear-gradient-7);}.cls-8{fill:url(#linear-gradient-8);}.cls-100,.cls-101,.cls-102,.cls-103,.cls-104,.cls-105,.cls-106,.cls-107,.cls-108,.cls-109,.cls-110,.cls-111,.cls-112,.cls-113,.cls-114,.cls-115,.cls-116,.cls-117,.cls-118,.cls-119,.cls-120,.cls-121,.cls-122,.cls-123,.cls-124,.cls-125,.cls-126,.cls-129,.cls-130,.cls-131,.cls-132,.cls-133,.cls-134,.cls-135,.cls-136,.cls-137,.cls-138,.cls-139,.cls-140,.cls-143,.cls-144,.cls-145,.cls-146,.cls-147,.cls-148,.cls-149,.cls-150,.cls-151,.cls-152,.cls-153,.cls-154,.cls-155,.cls-158,.cls-159,.cls-16,.cls-160,.cls-161,.cls-162,.cls-17,.cls-175,.cls-176,.cls-177,.cls-178,.cls-179,.cls-18,.cls-180,.cls-181,.cls-182,.cls-19,.cls-20,.cls-21,.cls-22,.cls-23,.cls-24,.cls-25,.cls-26,.cls-27,.cls-28,.cls-29,.cls-30,.cls-31,.cls-32,.cls-33,.cls-34,.cls-35,.cls-36,.cls-37,.cls-38,.cls-39,.cls-40,.cls-41,.cls-42,.cls-43,.cls-44,.cls-45,.cls-46,.cls-47,.cls-48,.cls-49,.cls-50,.cls-51,.cls-52,.cls-53,.cls-54,.cls-55,.cls-56,.cls-57,.cls-58,.cls-59,.cls-60,.cls-61,.cls-62,.cls-63,.cls-64,.cls-65,.cls-66,.cls-67,.cls-68,.cls-69,.cls-70,.cls-71,.cls-72,.cls-73,.cls-74,.cls-75,.cls-76,.cls-77,.cls-78,.cls-79,.cls-80,.cls-81,.cls-82,.cls-83,.cls-84,.cls-85,.cls-86,.cls-87,.cls-88,.cls-9,.cls-91,.cls-92,.cls-93,.cls-94,.cls-95,.cls-96,.cls-97,.cls-98,.cls-99{fill:none;}.cls-10{fill:#fbe7ed;}.cls-11{fill:#f6cfda;}.cls-12{mask:url(#mask);}.cls-13{clip-path:url(#clip-path);}.cls-14{fill:#f2b8c8;}.cls-15{fill:#ebebed;}.cls-16,.cls-17,.cls-18,.cls-19,.cls-20,.cls-21,.cls-22,.cls-23,.cls-24,.cls-25,.cls-26,.cls-27,.cls-28,.cls-29,.cls-30,.cls-31,.cls-32,.cls-33,.cls-34,.cls-35,.cls-36,.cls-37,.cls-38,.cls-39,.cls-40,.cls-41,.cls-42,.cls-43,.cls-44,.cls-45,.cls-46,.cls-47,.cls-48,.cls-49,.cls-50,.cls-51,.cls-52,.cls-53,.cls-54,.cls-55,.cls-56,.cls-57,.cls-58,.cls-59,.cls-60,.cls-61,.cls-62,.cls-63,.cls-64,.cls-65,.cls-66,.cls-67,.cls-68,.cls-69,.cls-70,.cls-71,.cls-72,.cls-73,.cls-74,.cls-75,.cls-76,.cls-77,.cls-78,.cls-79,.cls-80,.cls-81,.cls-82,.cls-83,.cls-84,.cls-85,.cls-86,.cls-87,.cls-88{stroke:#e46e91;stroke-width:1.1px;}.cls-16{stroke-dasharray:3.29 2.19;}.cls-17{stroke-dasharray:3.87 2.77;}.cls-18{stroke-dasharray:3.23 2.13;}.cls-19{stroke-dasharray:3.26 2.16;}.cls-20{stroke-dasharray:3.35 2.25;}.cls-21{stroke-dasharray:3.35 2.25;}.cls-22{stroke-dasharray:3.19 2.09;}.cls-23{stroke-dasharray:3.11 2.01;}.cls-24{stroke-dasharray:3.1 2;}.cls-25{stroke-dasharray:2.99 1.88;}.cls-27{stroke-dasharray:3.32 2.22;}.cls-28{stroke-dasharray:3.28 2.18;}.cls-29{stroke-dasharray:3.3 2.19;}.cls-30{stroke-dasharray:3.28 2.18;}.cls-31{stroke-dasharray:3.22 2.12;}.cls-32{stroke-dasharray:3.32 2.21;}.cls-33{stroke-dasharray:3.25 2.15;}.cls-34{stroke-dasharray:3.27 2.17;}.cls-35{stroke-dasharray:3.25 2.15;}.cls-36{stroke-dasharray:3.3 2.2;}.cls-37{stroke-dasharray:3.17 2.07;}.cls-38{stroke-dasharray:3.26 2.16;}.cls-39{stroke-dasharray:3.23 2.13;}.cls-40{stroke-dasharray:3.22 2.12;}.cls-41{stroke-dasharray:3.35 2.25;}.cls-42{stroke-dasharray:3.22 2.12;}.cls-43{stroke-dasharray:3.29 2.19;}.cls-44{stroke-dasharray:3.16 2.06;}.cls-45{stroke-dasharray:3.32 2.22;}.cls-46{stroke-dasharray:3.45 2.35;}.cls-47{stroke-dasharray:3.02 1.92;}.cls-48{stroke-dasharray:3.24 2.14;}.cls-49{stroke-dasharray:3.35 2.25;}.cls-50{stroke-dasharray:3.5 2.4;}.cls-51{stroke-dasharray:3.39 2.29;}.cls-52{stroke-dasharray:3.37 2.27;}.cls-53{stroke-dasharray:3.33 2.22;}.cls-54{stroke-dasharray:3.16 2.06;}.cls-55{stroke-dasharray:3.35 2.25;}.cls-56{stroke-dasharray:3.24 2.14;}.cls-57{stroke-dasharray:3.29 2.18;}.cls-58{stroke-dasharray:3.2 2.1;}.cls-59{stroke-dasharray:3.34 2.24;}.cls-60{stroke-dasharray:3.27 2.17;}.cls-61{stroke-dasharray:3.45 2.35;}.cls-62{stroke-dasharray:3.35 2.25;}.cls-63{stroke-dasharray:3.25 2.15;}.cls-64{stroke-dasharray:3.64 2.54;}.cls-65{stroke-dasharray:2.95 1.85;}.cls-66{stroke-dasharray:3.33 2.23;}.cls-67{stroke-dasharray:2.98 1.88;}.cls-68{stroke-dasharray:3.01 1.9;}.cls-69{stroke-dasharray:3.33 2.23;}.cls-70{stroke-dasharray:3.28 2.18;}.cls-71{stroke-dasharray:3.43 2.33;}.cls-72{stroke-dasharray:3.5 2.39;}.cls-73{stroke-dasharray:3.36 2.26;}.cls-74{stroke-dasharray:3.13 2.03;}.cls-75{stroke-dasharray:3.3 2.2;}.cls-76{stroke-dasharray:3.19 2.09;}.cls-77{stroke-dasharray:3.32 2.22;}.cls-78{stroke-dasharray:3.52 2.42;}.cls-79{stroke-dasharray:3.38 2.28;}.cls-80{stroke-dasharray:3.35 2.25;}.cls-81{stroke-dasharray:3.42 2.32;}.cls-82{stroke-dasharray:3.22 2.12;}.cls-83{stroke-dasharray:3.25 2.15;}.cls-84{stroke-dasharray:3.31 2.21;}.cls-85{stroke-dasharray:3.26 2.16;}.cls-86{stroke-dasharray:3.23 2.13;}.cls-87{stroke-dasharray:3.26 2.16;}.cls-88{stroke-dasharray:3.32 2.22;}.cls-89{mask:url(#mask-2);}.cls-90{clip-path:url(#clip-path-2);}.cls-119,.cls-120,.cls-121,.cls-122,.cls-123,.cls-124,.cls-125,.cls-126,.cls-149,.cls-150,.cls-151,.cls-152,.cls-153,.cls-154,.cls-155,.cls-158,.cls-159,.cls-160,.cls-161,.cls-162,.cls-175,.cls-176,.cls-177,.cls-178,.cls-179,.cls-180,.cls-181,.cls-91,.cls-92,.cls-93,.cls-94,.cls-95{stroke:#741329;}.cls-158,.cls-159,.cls-160,.cls-161,.cls-162,.cls-175,.cls-176,.cls-177,.cls-178,.cls-179,.cls-180,.cls-181,.cls-91,.cls-92,.cls-93,.cls-94,.cls-95,.cls-96,.cls-97{stroke-linecap:round;stroke-linejoin:round;stroke-width:3.3px;}.cls-91{stroke-dasharray:0 6.82;}.cls-92{stroke-dasharray:0 6.61;}.cls-93{stroke-dasharray:0 6.44;}.cls-94{stroke-dasharray:0 6.74;}.cls-100,.cls-101,.cls-102,.cls-103,.cls-104,.cls-105,.cls-106,.cls-107,.cls-108,.cls-109,.cls-110,.cls-111,.cls-112,.cls-113,.cls-114,.cls-115,.cls-116,.cls-117,.cls-118,.cls-182,.cls-96,.cls-97,.cls-98,.cls-99{stroke:#d00f47;}.cls-177,.cls-96{stroke-dasharray:0 6.71;}.cls-100,.cls-101,.cls-102,.cls-103,.cls-104,.cls-105,.cls-106,.cls-107,.cls-108,.cls-109,.cls-110,.cls-111,.cls-112,.cls-113,.cls-114,.cls-115,.cls-116,.cls-117,.cls-118,.cls-119,.cls-120,.cls-121,.cls-122,.cls-123,.cls-124,.cls-125,.cls-126,.cls-129,.cls-130,.cls-131,.cls-132,.cls-133,.cls-134,.cls-135,.cls-136,.cls-137,.cls-138,.cls-139,.cls-140,.cls-143,.cls-144,.cls-145,.cls-146,.cls-147,.cls-148,.cls-149,.cls-150,.cls-151,.cls-152,.cls-153,.cls-154,.cls-155,.cls-98,.cls-99{stroke-width:2.2px;}.cls-98{stroke-dasharray:6.49 4.29;}.cls-99{stroke-dasharray:6.82 4.62;}.cls-100{stroke-dasharray:6.16 3.96;}.cls-101{stroke-dasharray:6.8 4.6;}.cls-102{stroke-dasharray:6.66 4.46;}.cls-103{stroke-dasharray:6.39 4.19;}.cls-104{stroke-dasharray:6.15 3.94;}.cls-105{stroke-dasharray:6.72 4.52;}.cls-106{stroke-dasharray:7.37 5.17;}.cls-107{stroke-dasharray:6.63 4.43;}.cls-108{stroke-dasharray:7.12 4.92;}.cls-110{stroke-dasharray:7.22 5.01;}.cls-111{stroke-dasharray:7.92 5.72;}.cls-112{stroke-dasharray:6.84 4.64;}.cls-113{stroke-dasharray:6.66 4.46;}.cls-114{stroke-dasharray:6.31 4.11;}.cls-115{stroke-dasharray:6.49 4.28;}.cls-116{stroke-dasharray:6.2 3.99;}.cls-117{stroke-dasharray:6.4 4.2;}.cls-118{stroke-dasharray:6.33 4.13;}.cls-119{stroke-dasharray:6.15 3.95;}.cls-120{stroke-dasharray:6.99 4.78;}.cls-121{stroke-dasharray:7.04 4.84;}.cls-122{stroke-dasharray:5.71 3.51;}.cls-123{stroke-dasharray:6.14 3.94;}.cls-124{stroke-dasharray:6.29 4.09;}.cls-125{stroke-dasharray:6.47 4.27;}.cls-127{mask:url(#mask-3);}.cls-128{clip-path:url(#clip-path-3);}.cls-129,.cls-130,.cls-131,.cls-132,.cls-133,.cls-134,.cls-135,.cls-136,.cls-137,.cls-138,.cls-139,.cls-140,.cls-143,.cls-144,.cls-145,.cls-146,.cls-147,.cls-148{stroke:#cbcaca;}.cls-129{stroke-dasharray:6.34 4.14;}.cls-130{stroke-dasharray:6.82 4.61;}.cls-131{stroke-dasharray:6.66 4.46;}.cls-132{stroke-dasharray:6.43 4.23;}.cls-133{stroke-dasharray:6.53 4.32;}.cls-134{stroke-dasharray:6.46 4.25;}.cls-135{stroke-dasharray:6.43 4.22;}.cls-136{stroke-dasharray:6.36 4.16;}.cls-137{stroke-dasharray:6.62 4.42;}.cls-138{stroke-dasharray:6.8 4.6;}.cls-139{stroke-dasharray:6.67 4.47;}.cls-141{mask:url(#mask-4);}.cls-142{clip-path:url(#clip-path-4);}.cls-143{stroke-dasharray:6.53 4.33;}.cls-144{stroke-dasharray:6.53 4.32;}.cls-145{stroke-dasharray:6.53 4.33;}.cls-146{stroke-dasharray:6.6 4.4;}.cls-147{stroke-dasharray:6.6 4.4;}.cls-148{stroke-dasharray:6.56 4.36;}.cls-149{stroke-dasharray:5.63 3.43;}.cls-150{stroke-dasharray:6.23 4.02;}.cls-151{stroke-dasharray:6.72 4.52;}.cls-152{stroke-dasharray:6.71 4.51;}.cls-153{stroke-dasharray:6.63 4.43;}.cls-154{stroke-dasharray:6.76 4.56;}.cls-155{stroke-dasharray:6.6 4.39;}.cls-156{mask:url(#mask-5);}.cls-157{clip-path:url(#clip-path-5);}.cls-158{stroke-dasharray:0 5.87;}.cls-159{stroke-dasharray:0 6.65;}.cls-160{stroke-dasharray:0 6.51;}.cls-161{stroke-dasharray:0 6.45;}.cls-162{stroke-dasharray:0 6.63;}.cls-163{fill:#c4c4c9;}.cls-164{font-size:9.29px;}.cls-164,.cls-167,.cls-184,.cls-195{fill:#fff;}.cls-164,.cls-167,.cls-184,.cls-196,.cls-198{font-family:TTMoscowEconomy-Md, TT Moscow Economy;font-weight:500;}.cls-165{letter-spacing:-0.01em;}.cls-166{letter-spacing:0em;}.cls-167{font-size:11.49px;}.cls-168{letter-spacing:-0.05em;}.cls-169{letter-spacing:-0.01em;}.cls-170{letter-spacing:-0.03em;}.cls-171{letter-spacing:-0.03em;}.cls-172{letter-spacing:-0.02em;}.cls-173{mask:url(#mask-6);}.cls-174{clip-path:url(#clip-path-6);}.cls-175{stroke-dasharray:0 6.41;}.cls-176{stroke-dasharray:0 6.88;}.cls-178{stroke-dasharray:0 6.66;}.cls-179{stroke-dasharray:0 6.99;}.cls-180{stroke-dasharray:0 6.65;}.cls-181{stroke-dasharray:0 6.7;}.cls-182{stroke-width:4.4px;}.cls-183{fill:#d00f47;}.cls-184,.cls-196{font-size:10.04px;}.cls-185{fill:#cbcaca;}.cls-186,.cls-196,.cls-198{fill:#741329;}.cls-187{letter-spacing:-0.02em;}.cls-188{letter-spacing:-0.01em;}.cls-189{letter-spacing:-0.04em;}.cls-190{letter-spacing:-0.02em;}.cls-191{letter-spacing:-0.02em;}.cls-192{letter-spacing:-0.03em;}.cls-193{letter-spacing:-0.03em;}.cls-194{letter-spacing:-0.02em;}.cls-197{letter-spacing:-0.01em;}.cls-198{font-size:10.04px;}.cls-199{mask:url(#mask-7);}.cls-200{clip-path:url(#clip-path-7);}.cls-201{mask:url(#mask-8);}.cls-202{clip-path:url(#clip-path-8);}.cls-203{filter:url(#luminosity-noclip-8);}.cls-204{filter:url(#luminosity-noclip-7);}.cls-205{filter:url(#luminosity-noclip-6);}.cls-206{filter:url(#luminosity-noclip-5);}.cls-207{filter:url(#luminosity-noclip-4);}.cls-208{filter:url(#luminosity-noclip-3);}.cls-209{filter:url(#luminosity-noclip-2);}.cls-210{filter:url(#luminosity-noclip);}</style><linearGradient id="linear-gradient" x1="492.57" y1="1001.91" x2="493.57" y2="1001.91" gradientTransform="matrix(-309.58, 0, 0, 309.58, 152901.49, -309586.1)" gradientUnits="userSpaceOnUse"><stop offset="0" stop-color="#fff"/><stop offset="1"/></linearGradient><linearGradient id="linear-gradient-2" x1="490.18" y1="1000.04" x2="491.18" y2="1000.04" gradientTransform="matrix(0, 184.77, 184.77, 0, -183989.59, -89613.3)" xlink:href="#linear-gradient"/><linearGradient id="linear-gradient-3" x1="490.37" y1="1001.76" x2="491.37" y2="1001.76" gradientTransform="matrix(385.64, 0, 0, -385.64, -188475.47, 386908.07)" xlink:href="#linear-gradient"/><linearGradient id="linear-gradient-4" x1="491.29" y1="1006.33" x2="492.29" y2="1006.33" gradientTransform="matrix(0, -334.27, -334.27, 0, 337173.49, 165181.58)" xlink:href="#linear-gradient"/><linearGradient id="linear-gradient-5" x1="493.62" y1="1006.71" x2="494.62" y2="1006.71" gradientTransform="matrix(0, -109.02, -109.02, 0, 110538.81, 53798.31)" xlink:href="#linear-gradient"/><linearGradient id="linear-gradient-6" x1="488.76" y1="1002.38" x2="489.76" y2="1002.38" gradientTransform="matrix(201.58, 0, 0, -201.58, -97520.63, 202647.65)" xlink:href="#linear-gradient"/><linearGradient id="linear-gradient-7" x1="495.76" y1="996.39" x2="496.76" y2="996.39" gradientTransform="matrix(-66.91, 0, 0, 66.91, 34228.19, -66081.54)" xlink:href="#linear-gradient"/><linearGradient id="linear-gradient-8" x1="498.75" y1="999.54" x2="499.75" y2="999.54" gradientTransform="matrix(-64.35, 0, 0, 64.35, 33141.94, -63737.31)" xlink:href="#linear-gradient"/><filter id="luminosity-noclip" x="-531.84" y="-722.42" width="2640.19" height="2614.43" filterUnits="userSpaceOnUse" color-interpolation-filters="sRGB"><feFlood flood-color="#fff" result="bg"/><feBlend in="SourceGraphic" in2="bg"/></filter><mask id="mask" x="-540.84" y="-729.43" width="2640.19" height="2614.43" maskUnits="userSpaceOnUse"><g class="cls-210"><g transform="translate(-9 -7)"><rect class="cls-1" x="-130.38" y="-384.79" width="1837.27" height="1939.16" transform="translate(-141.27 899.94) rotate(-55.3)"/></g></g></mask><clipPath id="clip-path" transform="translate(-9 -7)"><rect class="cls-9" x="79.18" y="786.5" width="636.28" height="364.3"/></clipPath><filter id="luminosity-noclip-2" x="-563.97" y="-765.76" width="2704.45" height="2701.1" filterUnits="userSpaceOnUse" color-interpolation-filters="sRGB"><feFlood flood-color="#fff" result="bg"/><feBlend in="SourceGraphic" in2="bg"/></filter><mask id="mask-2" x="-572.98" y="-772.76" width="2704.45" height="2701.1" maskUnits="userSpaceOnUse"><g class="cls-209"><g transform="translate(-9 -7)"><rect class="cls-2" x="-178.51" y="-363.59" width="1933.53" height="1896.76" transform="translate(-189.9 665.71) rotate(-41.3)"/></g></g></mask><clipPath id="clip-path-2" transform="translate(-9 -7)"><rect class="cls-9" x="951.87" y="695.65" width="376.62" height="467.92"/></clipPath><filter id="luminosity-noclip-3" x="-421.73" y="-573.91" width="2419.96" height="2317.4" filterUnits="userSpaceOnUse" color-interpolation-filters="sRGB"><feFlood flood-color="#fff" result="bg"/><feBlend in="SourceGraphic" in2="bg"/></filter><mask id="mask-3" x="-430.73" y="-580.91" width="2419.96" height="2317.4" maskUnits="userSpaceOnUse"><g class="cls-208"><g transform="translate(-9 -7)"><rect class="cls-3" x="-57.36" y="-362.46" width="1691.23" height="1894.51" transform="translate(-67.43 1065.55) rotate(-65.9)"/></g></g></mask><clipPath id="clip-path-3" transform="translate(-9 -7)"><rect class="cls-9" y="94.49" width="244.59" height="1005.4"/></clipPath><filter id="luminosity-noclip-4" x="-354.61" y="-483.39" width="2285.73" height="2136.37" filterUnits="userSpaceOnUse" color-interpolation-filters="sRGB"><feFlood flood-color="#fff" result="bg"/><feBlend in="SourceGraphic" in2="bg"/></filter><mask id="mask-4" x="-363.61" y="-490.4" width="2285.73" height="2136.37" maskUnits="userSpaceOnUse"><g class="cls-207"><g transform="translate(-9 -7)"><rect class="cls-4" x="-139.17" y="-219.97" width="1854.85" height="1609.53" transform="translate(-149.99 296.67) rotate(-19.5)"/></g></g></mask><clipPath id="clip-path-4" transform="translate(-9 -7)"><rect class="cls-9" x="994.16" width="559.54" height="1028.85"/></clipPath><filter id="luminosity-noclip-5" x="-563.71" y="-765.4" width="2703.93" height="2700.39" filterUnits="userSpaceOnUse" color-interpolation-filters="sRGB"><feFlood flood-color="#fff" result="bg"/><feBlend in="SourceGraphic" in2="bg"/></filter><mask id="mask-5" x="-572.71" y="-772.41" width="2703.93" height="2700.39" maskUnits="userSpaceOnUse"><g class="cls-206"><g transform="translate(-9 -7)"><rect class="cls-5" x="-159.77" y="-382.11" width="1896.04" height="1933.81" transform="translate(-170.97 792.69) rotate(-48.8)"/></g></g></mask><clipPath id="clip-path-5" transform="translate(-9 -7)"><rect class="cls-9" x="267.8" y="88.27" width="298.61" height="315.4"/></clipPath><filter id="luminosity-noclip-6" x="-190.51" y="-262.07" width="1957.52" height="1693.72" filterUnits="userSpaceOnUse" color-interpolation-filters="sRGB"><feFlood flood-color="#fff" result="bg"/><feBlend in="SourceGraphic" in2="bg"/></filter><mask id="mask-6" x="-199.51" y="-269.07" width="1957.52" height="1693.72" maskUnits="userSpaceOnUse"><g class="cls-205"><g transform="translate(-9 -7)"><rect class="cls-6" x="-80.25" y="-120.7" width="1737" height="1410.98" transform="translate(-90.34 147.3) rotate(-10.1)"/></g></g></mask><clipPath id="clip-path-6" transform="translate(-9 -7)"><rect class="cls-9" x="919.27" y="439.49" width="657.24" height="126.77"/></clipPath><filter id="luminosity-noclip-7" x="-332.24" y="-453.22" width="2240.99" height="2076.04" filterUnits="userSpaceOnUse" color-interpolation-filters="sRGB"><feFlood flood-color="#fff" result="bg"/><feBlend in="SourceGraphic" in2="bg"/></filter><mask id="mask-7" x="-341.24" y="-460.23" width="2240.99" height="2076.04" maskUnits="userSpaceOnUse"><g class="cls-204"><g transform="translate(-9 -7)"><rect class="cls-7" x="-3.04" y="-335.4" width="1582.58" height="1840.39" transform="translate(-12.49 1152.36) rotate(-71.9)"/></g></g></mask><clipPath id="clip-path-7" transform="translate(-9 -7)"><rect class="cls-9" x="804.69" y="234.23" width="180.35" height="180.45"/></clipPath><filter id="luminosity-noclip-8" x="-544.13" y="-738.99" width="2664.76" height="2647.56" filterUnits="userSpaceOnUse" color-interpolation-filters="sRGB"><feFlood flood-color="#fff" result="bg"/><feBlend in="SourceGraphic" in2="bg"/></filter><mask id="mask-8" x="-553.13" y="-745.99" width="2664.76" height="2647.56" maskUnits="userSpaceOnUse"><g class="cls-203"><g transform="translate(-9 -7)"><rect class="cls-8" x="-181.84" y="-343.67" width="1940.18" height="1856.93" transform="matrix(0.8, -0.6, 0.6, 0.8, -193.24, 585.29)"/></g></g></mask><clipPath id="clip-path-8" transform="translate(-9 -7)"><rect class="cls-9" x="958.06" y="403.93" width="153.2" height="122.34"/></clipPath></defs><g id="Layer_2" data-name="Layer 2"><g id="Layer_1-2" data-name="Layer 1"><path class="cls-10" d="M716.94,468.65s11.64-23.29,16.3-31.44,17.46-24.45,17.46-27.94,32.6-29.11,39.59-24.46,17.47,4.66,34.93,21,64,57.06,72.19,62.88,20.77,10.48,18.63,21-89.65,27.94-99,24.45-48.9-10.48-51.23-17.47S753,472.14,753,472.14Z" transform="translate(-9 -7)"/><path class="cls-11" d="M328.75,253.83c-2,6.79-2.31-.28-2.43,10.26s3.19,7.43,2.34,14.37-.41,8.16-3.46,4.27-1.88-3.76-7.09-9.09-1.32-8.37-10.28-11.82-14-.55-22.41-8.61-12.87-9.8-13.18-16.87-6.95-10.24-6-18.33-4.64-10,4.73-19.36,10.24-7,17.57-19a61.59,61.59,0,0,1,16.29-17.95s-1.89-3.75,7.36-2.61S316.4,153.77,326,162s8.68,5.75,15.62,11.3,8.1,5.69,13.46,9.86,4.77,4.11,11.86,8.5,8.09,1,9.55,8.21,6.67,12.55-4.87,20.52-16.3,8.56-22.93,14.78-8.66,3.63-10.81,11.58-9.08,7.09-9.08,7.09" transform="translate(-9 -7)"/><g class="cls-12"><g class="cls-13"><polygon class="cls-11" points="79.18 1058.96 89.66 1006.57 471.18 791.16 571.7 786.5 697.46 891.29 678.84 982.3 676.5 1048.48 637 1173.02 152.53 1142.8 79.18 1058.96"/></g></g><path class="cls-11" d="M804.69,388.87l9,22.54-16.89,16.34,8.45,14.65-7.81,4.51-20.37,13-6.19,11.83h9.57L792.3,483h16.34l5.06-7.88,6.2,7.88,27.62,4.51,23.67,3.38,7.08,4.09h9.82l2.25-9.72,25.7.27,6.42,17.18,38.3-13.52,7.89,22.55-19.15,5.07s-2.81-9-5.07-9-14.09,2.83-14.09,2.83h-4.5l6.5,57.58-5.82,37.26-5.82,25.62,45.7-11.73,2.25,7.33L957.39,636.8v16.9l7.33,15.21-6.2,15.77,8.78,5.08,16.58-5.63V663.28l16.33,2.81v11.27l-11.27,2.82-5.64,14.09-22.68,13.1H942.17v5.49l-9,14.09-14.65,2.82,2.82,43.39L883,820.48,827.22,875.7l-62,38.87-64.78-5.91-5.65,26.21-6.19,46.75-24.14-13.93-19.81-3.54-11.83,12.4-18.46-10.66,20.15-14.12,9.55,5.51h22l-9-8.9,10.15-16.33,10.7-16.34,5.65-13-56.92-22.54-26.48-27.05-29.31-49.58L523,831.76l-15.62-9-13.12-4-8.45-5-9.07-5.25-17.43,2.42-42.24,22,18.58,19.71L417,872.88l-25.92-7.31-5.07-23.11,19.71-16.34,41.35-23.87-6.41-10.5,27.61-20.3,28.17-5.06h27l-10.7-32.68,12-6.92-25.5-41.55L477.88,601.3l-18.6-25.92,9-40.57,20.29,6.76,11.83-59.16-16.1-9.29-17.15-14.38-8.65,5,6.4,23.73H454.21l-14.08-25.91L457,446.34l-18.59-27,39.43-4.51-3.38,18-3.08,1.78L481.83,448l4.42-2.55h14.18l21.41-31.82,14.07-8.13v-6h-21.4l-25.35-4.51L483,383.23,473.38,359h28.17l5.64-14.66-15.78,3.38L472,336.52l-16.08-18.65,4.5-6.2L446.9,295.91l9.57-24.23,16.47,9.5,38.76,55.29,18.58,27.6,40.57,19.16,7.9,7.34,49-35.51L639,329.15v-31l-20.83,6.2V286.89L639,278.43l6.19-15.77h18v44.51l-9.77,5.64-6,25.35v13.52l34.95-1.12,43.38,15.78L768.64,372Z" transform="translate(-9 -7)"/><path class="cls-14" d="M858.06,661.48h0a.85.85,0,0,0,.85-.8l1.1-18.65L844.6,595.58a.84.84,0,0,0-1.06-.53.85.85,0,0,0-.53,1.07l15.34,46.14-1.09,18.32a.86.86,0,0,0,.8.9" transform="translate(-9 -7)"/><path class="cls-14" d="M829.48,647.78a.85.85,0,0,0,.49-.14.86.86,0,0,0,.21-1.18l-25.73-36.91a.87.87,0,0,0-1.19-.21.85.85,0,0,0-.21,1.18l25.75,36.9a.82.82,0,0,0,.68.36" transform="translate(-9 -7)"/><path class="cls-14" d="M775,551.1l-4.58-7.69V503.35L783.07,492l35.79-2.34,18.67,10.78,13.3,22,4,30.51-64,4ZM709.6,431.33l-19.44,34.46-5.49-9.12-2.73-82.61h20.83l13.4,10.55,18.57,2.26L732,405.63l3.36,8.74-25.71,7.32Zm212.48,96.31a.87.87,0,0,0-1.16-.34l-17.63,9.83v12.8l-46.77,2.88-4.07-31L850.11,518l31.34-15,31.77-5.34a.87.87,0,0,0,.69-1,.83.83,0,0,0-1-.68l-32,5.37L849.23,516.5l-10.48-17.33-19.49-11.25-36.89,2.39L769.47,502,740,488.07l-15.25-16.32-3.51-29.14-10-11.37V423l24.62-7,10.51,27.31.08.21,17.07,14.08a.83.83,0,0,0,1.19-.11.86.86,0,0,0-.11-1.2l-16.74-13.79-14.23-37,2.74-18.37,26.42,3.22,27.32,32.56a.85.85,0,0,0,.65.3.89.89,0,0,0,.54-.19.85.85,0,0,0,.11-1.2l-27.76-33.06-27.05-3.3,2.05-13.75a.81.81,0,0,0-.7-1,.84.84,0,0,0-1,.7L735,385.2,716.85,383l-13.51-10.62H681.89l-.61-18.18a.81.81,0,0,0-.85-.8.83.83,0,0,0-.83.86l.59,18.12H642.42a.85.85,0,0,0,0,1.69h37.83L683,456.65l-14.2,20.2A.86.86,0,0,0,669,478a1,1,0,0,0,.49.15.86.86,0,0,0,.7-.36l13.61-19.37L697.37,481l27.31,27.22,8.55-4.94a.84.84,0,0,0-.83-1.47l-7.44,4.3-26.2-26.07-7.6-12.6L710.6,433l9,10.32,3.52,29.17,15.85,17,29.75,14v40.36l5.12,8.6,12.79,4.65-20.46,1.26a.85.85,0,0,0-.78.9.83.83,0,0,0,.84.79h.05l24.25-1.5L810,569.79l17.17,32.09a.85.85,0,1,0,1.49-.8l-17.39-32.5-17.63-10.2,52.6-3.24,8.7,36.67a.86.86,0,0,0,.83.67l.19,0a.87.87,0,0,0,.63-1L848,555l57-3.51v-13.4l16.75-9.33a.86.86,0,0,0,.34-1.15" transform="translate(-9 -7)"/><path class="cls-14" d="M864.51,755.71l-.11-.12-13-7.5-11.86,10.64-1.59-71.11L887.77,742l6.71,25.44-21.26-1.19ZM918,768.79l-21.75-1.22-7-26.38-50.93-55.61L881.54,660l18.65-22.75V624.33l9.22-51.24a.87.87,0,0,0-.68-1,.85.85,0,0,0-1,.68L899,621.72l-20.5-38.25a.84.84,0,1,0-1.48.79l21.55,40.22v12.15l-18.07,22L835.7,685.2l.5.53,1.67,74.48L805,789.7l-.11.12L796,808.28a.85.85,0,0,0,.4,1.13.76.76,0,0,0,.36.08.83.83,0,0,0,.76-.49l8.66-18.15,45.39-40.69,11.68,6.75,9.1,11,22.26,1.25-4,34.41a.83.83,0,0,0,.74.92h.1a.84.84,0,0,0,.84-.74l4-34.52,21.54,1.22a.86.86,0,0,0,.9-.8.84.84,0,0,0-.79-.88" transform="translate(-9 -7)"/><path class="cls-14" d="M776.34,886.79l-4.2-27.7,0-.23-14.49-17.8,9.62-11.15-14.06-28.36,25.45,3,2.79-7.44,31.7-36.06,4.34-81a.85.85,0,0,0-.81-.89.83.83,0,0,0-.88.8l-4.3,80.46-31.42,35.73-.1.12-2.45,6.49-24.75-3,4.59-20.8a.84.84,0,0,0-.63-1,.86.86,0,0,0-1,.65l-4.62,21-31.17-3.72L690,792.47l-19-7.75,15.59-34.53,34.29,18.55a1,1,0,0,0,.4.1.83.83,0,0,0,.75-.44.86.86,0,0,0-.35-1.15l-34.4-18.6,16.48-36.46,15-12.05-19.45-39.88a.85.85,0,0,0-1.14-.39.86.86,0,0,0-.38,1.14l18.85,38.66-14.22,11.47-16.58,36.7L667,737.67l-47.19-47.75-34.22-59.07,40.56-19.18,10.2,21.25,24.28,42.6a.87.87,0,0,0,.74.44.92.92,0,0,0,.42-.12.84.84,0,0,0,.31-1.15l-24.26-42.56L627.66,611l.33-.15,18.48-8.5,25.14-3.68a.88.88,0,0,0,.72-1,.83.83,0,0,0-1-.7l-25.27,3.7-18.84,8.62-.34.17-13.83-28.81-13-37.69,18-16a.85.85,0,0,0-1.13-1.26l-17.48,15.49-8.25-23.88a.86.86,0,0,0-1.08-.53.83.83,0,0,0-.51,1.08l8.45,24.54-11.7,10.37-21.15-4.7,14.16-34.71.17-.38-21.76-38,2.6-17.93,0-.22-6.58-17.18L538.53,407.7a.83.83,0,0,0-1.13-.4.87.87,0,0,0-.4,1.13l15.31,31.88,6,15.56-28.9-4-21.87-9.67a.83.83,0,0,0-1.11.44.86.86,0,0,0,.43,1.12l21.49,9.49,1.44,38.22a.82.82,0,0,0,.83.81h0a.86.86,0,0,0,.82-.88L530,453.66l28.59,4-6.36,43.79a.86.86,0,0,0,.72,1h.13a.86.86,0,0,0,.83-.73l3.47-24,20.27,35.45-14.11,34.58-.25-.05-1.82,23.76a.82.82,0,0,0,.78.91h.05a.83.83,0,0,0,.84-.78l1.68-21.82,20.84,4.63L582,583.11l-7.91,4.57L560.85,619,553,623.51l-13.17-2.7-4.52-36.28L482,581.86a.81.81,0,0,0-.88.8.84.84,0,0,0,.79.89l51.88,2.6,4.5,36.06,15,3.08,8.93-5.15,13.28-31.28,8.13-4.7,3.83-30,11.28-10,12.79,37.07,13.89,28.94-72.64,34.32a.85.85,0,0,0-.4,1.13.82.82,0,0,0,.77.49.79.79,0,0,0,.35-.09L584,631.56,618.43,691l47.43,48,.09.1,19.13,10.35-15.66,34.67-23.36-9.55L612.33,757l-10.84-11.23a.82.82,0,0,0-1.18,0,.83.83,0,0,0,0,1.19l10.94,11.32.1.1,34,17.72,23.46,9.59-2.16,6.65-18.71,10.8-48.48-31.79a.85.85,0,0,0-1.17.25.84.84,0,0,0,.24,1.16l48.5,31.8-2.49,30.76-6.75,17-11.85-3.94-33.39-28.8v-9.24l-14-15.26a.85.85,0,0,0-1.19,0,.86.86,0,0,0-.05,1.2L590.85,811v9.35l34.24,29.53,12.07,4-9,22.8a.85.85,0,0,0,.47,1.1.69.69,0,0,0,.31.06.84.84,0,0,0,.79-.53l9.1-22.9,65.42,21.78a.66.66,0,0,0,.27,0,.84.84,0,0,0,.8-.57.85.85,0,0,0-.53-1.08l-65.33-21.74,6.75-17,.05-.12,2.51-31.07,19.34-11.16,2.31-7.16,19,7.8.11,0,30.17,3.43,31.47,3.76,14.06,28.34L755.41,841l15.1,18.55,4.22,27.86,8,11.43a.86.86,0,0,0,.69.34.76.76,0,0,0,.48-.15.86.86,0,0,0,.21-1.18Z" transform="translate(-9 -7)"/><path class="cls-14" d="M720,808.33a.84.84,0,0,0-1.1-.46.85.85,0,0,0-.47,1.11L760.52,911.1a.85.85,0,0,0,.79.52.91.91,0,0,0,.32-.06.85.85,0,0,0,.45-1.11Z" transform="translate(-9 -7)"/><path class="cls-14" d="M717.58,728.42a.84.84,0,0,0,.64,1l42.9,9.62.19,0a.84.84,0,0,0,.17-1.67l-42.9-9.62a.84.84,0,0,0-1,.65" transform="translate(-9 -7)"/><path class="cls-14" d="M587.83,727.72a.77.77,0,0,0,.46-.13.85.85,0,0,0,.24-1.18l-23.68-35.35-11-27.55a.85.85,0,0,0-1.1-.48.83.83,0,0,0-.46,1.1l11,27.63.05.09,23.78,35.5a.81.81,0,0,0,.7.37" transform="translate(-9 -7)"/><path class="cls-14" d="M522.06,646.47l-35.74-32.83a.84.84,0,0,0-1.19,0,.85.85,0,0,0,.05,1.2l35.42,32.54,8.45,25.26L544.72,738l-5,6a.83.83,0,0,0,.64,1.38.79.79,0,0,0,.65-.3l5.54-6.67-15.9-66.2Z" transform="translate(-9 -7)"/><path class="cls-14" d="M672,548.32l-6.78-.44L654.15,533l-15.37-36,11.48-10.44,24.15,57.06Zm56.33,44.38,9.4,8.34-19.52,4.87-4.13-16.67,13.45,3.06v1Zm-11.85,13.23-19.33-2.52,6.46-8.93,8.79-5.09ZM568.68,435.57l18.17-10.5h10.76l14,18.34,13.67,28,23.9,13.81-12.39,11.29,13.55,31.76-11.8-14.37-9.12-23.74-28.15,16.26a.82.82,0,0,0-.3,1.15.84.84,0,0,0,1.14.31l26.44-15.27,8.31,21.65-8.67,15.31a.82.82,0,0,0,.31,1.14.81.81,0,0,0,.42.12.86.86,0,0,0,.74-.44l8.26-14.57,14.43,17.56-7.48,9.71a.81.81,0,0,0,.14,1.17.76.76,0,0,0,.52.19.82.82,0,0,0,.67-.34l7.21-9.34,11,14.7,6.85.45-5.35,10.62a.83.83,0,0,0,.38,1.14.8.8,0,0,0,.36.09.84.84,0,0,0,.76-.47l5.68-11.26,12.23.79,24.24-4.79L712,573.7l.12,13.93-8.9,5.13-9.47-10.62a.85.85,0,0,0-1.2-.07.86.86,0,0,0,0,1.2L702,593.88l-6.66,9.23-13.82-3.19a.84.84,0,1,0-.39,1.63l13.79,3.2,2.47,21.54-5,15.6a.83.83,0,0,0,.55,1.05.55.55,0,0,0,.25,0,.86.86,0,0,0,.82-.57L699,626.63l.06-.17L696.63,605l20.26,2.66,2.74,20.65,6.67,17.21a.8.8,0,0,0,1.09.47.84.84,0,0,0,.48-1.09L721.29,628l-2.71-20.46,20.11-5v15.7l8.5,8.72a.85.85,0,0,0,1.19,0,.87.87,0,0,0,0-1.2l-8-8.23V601.1l-10.63-9.42,11.22-8.3a.81.81,0,0,0,.17-1.17A.85.85,0,0,0,740,582l-10.7,7.92V579.05a.84.84,0,1,0-1.68,0v11.51l-13.77-3.12-.11-13.82-2.44-27,18.28,7.9a.67.67,0,0,0,.34.07.81.81,0,0,0,.77-.51.84.84,0,0,0-.43-1.11l-19.13-8.28L710,533.05l0-.26L675.08,488.6l2.51,23.65-2.85,2.94a.85.85,0,0,0,1.22,1.18l3.4-3.51-2-18.62,31,39.2,1,11-24.18,4.77-11.29-.74,2.41-4.75-24.94-58.9-.1-.27-24.72-14.25-13.47-27.67-14.6-19.2H586.4L567.84,434.1a.85.85,0,0,0,.84,1.47" transform="translate(-9 -7)"/><path class="cls-14" d="M629.92,415.45l27.72,23.65a.84.84,0,1,0,1.09-1.29l-27.54-23.46-28.85-37.2a.87.87,0,0,0-1.2-.14.84.84,0,0,0-.14,1.18Z" transform="translate(-9 -7)"/><path class="cls-15" d="M864,788.17s0,0,0,0,0-.07,0,0M962.67,901.4l-.62-1.08-.76-1.49a49,49,0,0,1-3.71-10.73c-.56-2.44-1.05-5.19-1.44-8.27s-.76-6.51-1.19-10.2a61.93,61.93,0,0,0-2.51-12.1,28.93,28.93,0,0,0-7.87-12.33c-.43-.4-.88-.82-1.33-1.22s-1.07-.83-1.62-1.25-1.12-.83-1.71-1.21l-1.78-1a34,34,0,0,0-3.76-1.76c-.65-.29-1.32-.45-2-.69s-1.33-.46-2-.62A99.2,99.2,0,0,0,913.53,835a110.62,110.62,0,0,1-17.27-2.55c-.72-.19-1.42-.41-2.14-.61l-1.08-.31-.54-.15h0l-.09,0-.28-.11a12.84,12.84,0,0,1-2-.84l-.83-.41-.86-.53a20.88,20.88,0,0,1-6-6.09,40.6,40.6,0,0,1-4.26-8.4,93.26,93.26,0,0,1-3-9.62c-.87-3.36-1.64-6.81-2.49-10.41-.44-1.79-.89-3.6-1.49-5.51-.17-.48-.32-.95-.52-1.45l-.29-.75-.36-.78a12.13,12.13,0,0,0-.95-1.62,8.59,8.59,0,0,0-.77-.91,7.17,7.17,0,0,0-1.15-.9,3.14,3.14,0,0,0-.68-.34,4.31,4.31,0,0,0-.79-.24,5.17,5.17,0,0,0-.76-.13l-.57,0a11.62,11.62,0,0,0-1.86.12,27.84,27.84,0,0,0-3.1.62c-2,.49-3.82,1.06-5.66,1.65-3.69,1.21-7.35,2.47-11,3.7a199,199,0,0,1-22.77,6.37,83.12,83.12,0,0,1-11.87,1.56,41.83,41.83,0,0,1-11.75-.9,23.41,23.41,0,0,1-5.38-2,21.07,21.07,0,0,1-2.41-1.49c-.39-.27-.74-.58-1.11-.86l-.53-.48-.26-.24-.3-.28c-3.12-3-6.43-6-9.71-8.95a126.39,126.39,0,0,1-9.43-9,19.06,19.06,0,0,1-3.37-4.89,8.71,8.71,0,0,1-.66-2.48,7.31,7.31,0,0,1,.28-2.48,14.09,14.09,0,0,1,3-4.94,31.94,31.94,0,0,1,2.36-2.45c1.64,1.61,13.53-7.82,20.16-7.41s8.12,9.73,17.43,5.4-7.62-44.7-9.59-48.49-22.22-3.24-28-5.12c-21.13-6.79-32.75,16.47-33.18,19.69a1.21,1.21,0,0,0,.2.78c-.53.67-1.08,1.33-1.64,1.94a9.58,9.58,0,0,1-2.47,2,2.32,2.32,0,0,1-1.1.28,1.77,1.77,0,0,1-1-.33,7.53,7.53,0,0,1-2-2.34,39.68,39.68,0,0,1-2.93-6.76c-.89-2.37-1.73-4.76-2.47-7.19a42.81,42.81,0,0,1-1.65-7.27,13.92,13.92,0,0,1,.7-6.94,12,12,0,0,1,4.46-5.28c2-1.37,4.36-2.61,6.59-4s4.49-2.77,6.64-4.36A42.38,42.38,0,0,0,745,674.2a22.91,22.91,0,0,0,4.55-6.92,17.18,17.18,0,0,0,1.18-8.3,23,23,0,0,0-2.47-7.92c-2.4-4.69-4.48-9.54-6.77-14.39s-4.71-9.72-8.35-13.95a17.8,17.8,0,0,0-6.83-5,14.47,14.47,0,0,0-8.53-.46l-1,.24-1,.33c-.67.2-1.32.49-2,.75l-.48.21-.49.23-.91.45c-.58.27-1.22.68-1.83,1a30.7,30.7,0,0,0-6.48,5.24,51.71,51.71,0,0,0-9,13.77c-2.36,4.94-4.28,10-6.49,14.92a41.76,41.76,0,0,1-3.81,6.9l-.58.77-.61.73c-.41.45-.91,1-1.36,1.45-.91,1-1.89,1.9-2.85,2.82a72.93,72.93,0,0,1-12.65,9.77,33.91,33.91,0,0,1-7.08,3.3,12.87,12.87,0,0,1-7.14.47,7.68,7.68,0,0,1-2.92-1.61,10.22,10.22,0,0,1-2.13-2.72l-.93-1.82-.23-.45a3.83,3.83,0,0,1-.17-.43l-.33-.85-.32-.86a9,9,0,0,1-.24-.89l-.24-.91-.11-.45-.05-.46A13.89,13.89,0,0,1,645,662a21.6,21.6,0,0,1,3.89-6.4c3.34-4,7.58-7.3,11.77-10.85a83.73,83.73,0,0,0,6.18-5.69,25.11,25.11,0,0,0,5.11-7.36c.31-.72.5-1.52.75-2.3A19.44,19.44,0,0,0,673,627a14.12,14.12,0,0,0-.66-4.83,20.52,20.52,0,0,0-2-4.28l-1.11-1.72-1.4-1.87c-.52-.56-1-1.15-1.58-1.7a15.16,15.16,0,0,0-1.92-1.53,10.52,10.52,0,0,0-4.88-1.88,11.07,11.07,0,0,0-5.17.69,18.82,18.82,0,0,0-4.15,2.21,54.54,54.54,0,0,0-6.53,5.52c-2,1.87-3.9,3.77-5.85,5.34a19.41,19.41,0,0,1-2.93,2,5.68,5.68,0,0,1-2.64.83,1.31,1.31,0,0,1-.56,0h-.17l-.43-.12-1-.28-.49-.14-.32-.16a11.56,11.56,0,0,1-2.71-1.6,19.77,19.77,0,0,1-4.55-5.4c-1.33-2.14-2.51-4.51-3.78-6.93a37.16,37.16,0,0,0-4.75-7.34c-.49-.6-.92-1-1.38-1.53l-1.39-1.48c-.93-1-1.87-2-2.84-3-1.91-2-3.91-3.85-6-5.67a43.57,43.57,0,0,0-6.95-5,21.19,21.19,0,0,0-4.18-1.86,12.35,12.35,0,0,0-5.11-.53,9.24,9.24,0,0,0-5.07,2.35,10.89,10.89,0,0,0-1.71,2l-.67,1c-.19.34-.19.36-.28.53l-.22.45A27,27,0,0,0,575,599.6a50.67,50.67,0,0,0-.35,8.36,69.91,69.91,0,0,1-.13,7.6,12.55,12.55,0,0,1-2.1,6.1,11.67,11.67,0,0,1-1,1.22,5.17,5.17,0,0,1-.58.56,8.11,8.11,0,0,1-.65.59c-1,.85-1.94,1.63-3,2.43a37.15,37.15,0,0,1-6.12,4,11.26,11.26,0,0,1-6.07,1.4,8.55,8.55,0,0,1-5.17-2.76,17.05,17.05,0,0,1-2.15-2.64c-.34-.48-.63-1-1-1.5a2.65,2.65,0,0,1-.19-.32l-.22-.42a6.82,6.82,0,0,1-.41-.8,6.54,6.54,0,0,1-.72-2.53c0-.17,0-.31,0-.46s0-.25.11-.34a.44.44,0,0,0,.08-.17l.13-.17c0-.12.22-.23.32-.36a9,9,0,0,1,2.53-1.46c1.06-.44,2.23-.82,3.43-1.21a41.54,41.54,0,0,0,7.63-3.05,13,13,0,0,0,3.67-3,6.72,6.72,0,0,0,.73-1,6.11,6.11,0,0,0,.62-1.15c.2-.44.28-.67.42-1l.18-.45.16-.36a35.07,35.07,0,0,1,3.63-6.08c.73-1,1.49-2.07,2.24-3.3a13.77,13.77,0,0,0,1.05-2.07,8.57,8.57,0,0,0,.57-2.71,6.91,6.91,0,0,0-.57-3,9.26,9.26,0,0,0-1.45-2.22,16.36,16.36,0,0,0-1.64-1.6l-1.41-1.19c-1.75-1.55-3.44-3.31-5.14-5.12a55.48,55.48,0,0,0-5.7-5.47,11.52,11.52,0,0,0-3.88-2c2.88-11.7,2.16-34.31,1.52-41.89-.85-10.14-11.26-9.85-16.74-10.14a6.26,6.26,0,0,0-4.15,1.78,10.32,10.32,0,0,0-.67-1.28l-1-1.48-.48-.7-.39-.67c-.51-.85-1-1.82-1.52-2.78-2-3.9-3.73-8-5.69-12a52.52,52.52,0,0,0-7.2-11.64,17.71,17.71,0,0,0-5.83-4.37,29.93,29.93,0,0,0-13.4-2.65,19.38,19.38,0,0,0-6.89,1.39,12.21,12.21,0,0,0-3.22,2,9,9,0,0,0-2.33,3.22,10,10,0,0,0-.75,3.83l0,.67a3.94,3.94,0,0,1-.07.67c0,.2-.05.38-.09.61l-.14.68a39.42,39.42,0,0,1-1.65,5.56c-.67,1.84-1.43,3.67-2.21,5.49-1.57,3.62-3.27,7.17-5,10.67q-5.25,10.5-10.26,20.51c-1.66,3.37-3.25,6.71-4.68,10.12-.71,1.69-1.39,3.32-2.11,4.93s-1.46,3.22-2.24,4.78a90.17,90.17,0,0,1-10.59,17.11,41.07,41.07,0,0,1-6.65,6.66,21.42,21.42,0,0,1-7.8,3.95,18.49,18.49,0,0,1-2.08.37,14.31,14.31,0,0,1-2.07,0c-.35,0-.69,0-1-.06l-1-.17a7.26,7.26,0,0,1-1-.21l-1-.28-.55-.15a3.36,3.36,0,0,0-.59-.15,10.17,10.17,0,0,0-1.29-.21,10.17,10.17,0,0,0-7.22,1.9,20,20,0,0,0-5.68,7,56.24,56.24,0,0,0-3.29,7.61c-1.8,5-3.12,9.91-4.56,14.41a54.21,54.21,0,0,1-2.37,6.38c-.9,1.92-2,3.82-3.45,4.18a29.41,29.41,0,0,1-5.78,1.44,21.5,21.5,0,0,1-5.43,0,18.66,18.66,0,0,1-8.84-3.81,43.64,43.64,0,0,1-6-5.76,67.14,67.14,0,0,0-4.78-4.92,11.53,11.53,0,0,0-4.52-2.7c-.36-.07-.71-.16-1-.21l-.93,0a11.59,11.59,0,0,0-1.39.13c-.72.21-1.09.29-1.09.29l.53,1.61.88-.21a5.38,5.38,0,0,1,2.56.13,9.88,9.88,0,0,1,3.8,2.37c1.38,1.25,2.84,2.94,4.55,4.86a46.4,46.4,0,0,0,6.22,6.11,21.18,21.18,0,0,0,9.78,4.38,24,24,0,0,0,6,0,33.25,33.25,0,0,0,6.2-1.46,6.47,6.47,0,0,0,.94-.36,5.94,5.94,0,0,0,.87-.57,9,9,0,0,0,1.33-1.38,18.79,18.79,0,0,0,1.82-3.09,59,59,0,0,0,2.56-6.65c1.52-4.56,2.89-9.4,4.7-14.28a56.68,56.68,0,0,1,3.2-7.2,17.5,17.5,0,0,1,4.89-6,7,7,0,0,1,3.35-1.31,6.75,6.75,0,0,1,1.85,0,4.32,4.32,0,0,1,.91.15,3.21,3.21,0,0,1,.48.13l.55.15a18.29,18.29,0,0,0,9.79.45,24.26,24.26,0,0,0,9-4.42,45.18,45.18,0,0,0,7.28-7.09A93.23,93.23,0,0,0,459,560.77c.8-1.59,1.58-3.22,2.32-4.87s1.48-3.35,2.17-5c1.41-3.27,3-6.56,4.67-9.88q5.07-10,10.43-20.43c1.75-3.52,3.51-7.1,5.14-10.8.83-1.87,1.61-3.75,2.35-5.7A43.26,43.26,0,0,0,488,498l.16-.82c.05-.28.09-.6.14-.91s.09-.63.09-.87l0-.86a6.11,6.11,0,0,1,.43-2.2,6,6,0,0,1,3.37-3,15.77,15.77,0,0,1,5.41-1,25.46,25.46,0,0,1,5.82.51,24.25,24.25,0,0,1,5.59,1.83,11.84,11.84,0,0,1,2.37,1.45l.54.4c.18.15.33.34.5.5a10.86,10.86,0,0,1,1,1,48.29,48.29,0,0,1,6.45,10.67c1.87,3.91,3.58,8,5.62,12.13.54,1,1,2.06,1.71,3.14l.46.81.46.7.88,1.34a5.6,5.6,0,0,1,.88,2.86c-3,3.83-5.91,8.7-8.56,12-13.92,17.11-16.66,26.15-13.23,33.89l.51,1.45c.24.61.51,1.11.76,1.67l.19.4a4.34,4.34,0,0,0,.29.57l.59,1a13,13,0,0,0,1.49,1.74,13.58,13.58,0,0,0,3,2.16c9.66,7.82,26.47.16,33.76-1.43a4.32,4.32,0,0,0,2.56-2.31l.27,0a6.09,6.09,0,0,1,2.25,1.22,49.17,49.17,0,0,1,5.06,4.92c1.72,1.82,3.48,3.69,5.51,5.47.52.48,1,.87,1.46,1.25a9.36,9.36,0,0,1,1.05,1,3.73,3.73,0,0,1,.62.93,1.43,1.43,0,0,1,.14.74,3.09,3.09,0,0,1-.21,1,9.84,9.84,0,0,1-.69,1.3c-.56.94-1.29,1.93-2,3a39.75,39.75,0,0,0-4.16,7l-.23.51-.17.44-.34.77a2.11,2.11,0,0,1-.3.55,2.65,2.65,0,0,1-.36.51,8,8,0,0,1-2.22,1.79,34.86,34.86,0,0,1-6.63,2.57c-1.25.42-2.52.82-3.83,1.37a13.84,13.84,0,0,0-4.1,2.44,8.45,8.45,0,0,0-1,1.08c-.14.2-.29.4-.43.62s-.24.46-.35.7a5.9,5.9,0,0,0-.48,1.49,8.07,8.07,0,0,0-.14,1.48,9.72,9.72,0,0,0,.38,2.61l.39,1.16.49,1.12c.17.41.31.62.46.92l.23.44a4,4,0,0,0,.3.52c.36.6.72,1.2,1.12,1.79a23.55,23.55,0,0,0,2.76,3.39,16.16,16.16,0,0,0,3.69,2.84,12.78,12.78,0,0,0,4.68,1.49,13.68,13.68,0,0,0,4.8-.35,20.27,20.27,0,0,0,4.21-1.55,40.85,40.85,0,0,0,7.06-4.55c1.06-.82,2.14-1.71,3.14-2.56.24-.2.54-.45.82-.73s.56-.52.83-.8a17.35,17.35,0,0,0,1.51-1.82,17.91,17.91,0,0,0,3.08-8.64,62.59,62.59,0,0,0,.16-8.27,49.52,49.52,0,0,1,.35-7.5,21.42,21.42,0,0,1,2.05-6.73c1.06-2.18,2.21-3.2,3.76-3.41s3.83.55,5.89,1.76a38.51,38.51,0,0,1,6.06,4.38c1.94,1.67,3.83,3.49,5.66,5.35.93.94,1.83,1.9,2.73,2.88l1.37,1.45c.44.5,1,1,1.33,1.46a32.61,32.61,0,0,1,4,6.2c1.24,2.34,2.47,4.82,4,7.26a25.26,25.26,0,0,0,5.9,6.84,17.11,17.11,0,0,0,4.29,2.45l.6.24.49.14,1,.26.49.13a3.59,3.59,0,0,0,.87.16,6.71,6.71,0,0,0,1.48.07,11.08,11.08,0,0,0,5-1.53,24.17,24.17,0,0,0,3.73-2.62c2.25-1.86,4.17-3.83,6.11-5.7a49.86,49.86,0,0,1,5.83-5.06c2-1.4,4-2.34,5.81-2.11s3.6,1.44,5.17,3.24l1.09,1.37,1.13,1.68a15.47,15.47,0,0,1,1.5,3.09,8.84,8.84,0,0,1-.13,6.4,20.39,20.39,0,0,1-4.07,6.05c-1.75,1.91-3.73,3.7-5.74,5.5-4,3.58-8.37,7.12-12,11.59a25.48,25.48,0,0,0-4.39,7.63,17.5,17.5,0,0,0-.65,9,25.61,25.61,0,0,0,3.13,8.1c0,.08.21.39.31.54l.33.48c.22.3.41.64.66.92l.79.9c.26.27.59.55.87.79a11.35,11.35,0,0,0,4.22,2.22,12.72,12.72,0,0,0,4.62.28,19.06,19.06,0,0,0,4.3-1,36.29,36.29,0,0,0,7.63-3.74,80.77,80.77,0,0,0,12.94-10.36c1-1,1.95-1.94,2.91-2.95.5-.52.91-1,1.39-1.54l.7-.83.65-.87a44.33,44.33,0,0,0,3.94-7.36c2.21-5,4-10.09,6.36-14.93a49.88,49.88,0,0,1,8.57-13.23,28.34,28.34,0,0,1,6-4.9c.56-.32,1.06-.66,1.67-.94l.91-.46a3.68,3.68,0,0,1,.42-.2l.45-.19a16.93,16.93,0,0,1,1.79-.69l.92-.28.91-.23a12.47,12.47,0,0,1,7.29.4,15.79,15.79,0,0,1,6,4.43c3.37,3.92,5.73,8.7,8,13.47s4.32,9.71,6.74,14.46a21,21,0,0,1,2.22,7.12,14.54,14.54,0,0,1-1.08,7.17,20.6,20.6,0,0,1-4.12,6.16,39.36,39.36,0,0,1-5.77,5c-2.07,1.51-4.25,2.85-6.48,4.16s-4.48,2.47-6.8,4a14.72,14.72,0,0,0-5.45,6.4,16.71,16.71,0,0,0-.93,8.29,45.83,45.83,0,0,0,1.68,7.77c.73,2.5,1.57,5,2.42,7.38a43.05,43.05,0,0,0,3.1,7.3,10.11,10.11,0,0,0,2.93,3.38,4.89,4.89,0,0,0,2.56.85,5.39,5.39,0,0,0,2.58-.57,12.66,12.66,0,0,0,3.42-2.67c.79-.83,1.49-1.69,2.18-2.54,4.47,1.35,12.91,1.81,18.92,1.71,8.66-.18,28.53-11.69,30.22-7.46S786.1,729.27,781,737.3c-.48.75-1,1.5-1.52,2.25l-.8.8a61.65,61.65,0,0,1-5.05,4.53c-.84.71-1.77,1.41-2.69,2.13l-1.39,1.06c-.46.37-.94.72-1.4,1.12a44.19,44.19,0,0,0-5.32,5,19.25,19.25,0,0,0-4.07,6.65,12.27,12.27,0,0,0-.54,4.27,13,13,0,0,0,1,4.07,24.48,24.48,0,0,0,4.13,6.26,131.94,131.94,0,0,0,9.72,9.55c3.26,3,6.39,5.89,9.47,8.94l.62.59.68.62c.46.39.92.8,1.41,1.15a25.47,25.47,0,0,0,3.06,2,28.08,28.08,0,0,0,6.59,2.53,45.3,45.3,0,0,0,13.37,1.2A87.15,87.15,0,0,0,821,800.35,199.5,199.5,0,0,0,844.53,794c3.75-1.21,7.42-2.46,11-3.59,1.79-.56,3.58-1.09,5.3-1.53a18.16,18.16,0,0,1,2.43-.47,5.27,5.27,0,0,1,.88-.08v0c.12.25.28.42.43.78.08.16.15.29.23.47l.21.56c.15.34.26.76.4,1.15.51,1.59,1,3.33,1.36,5.06.82,3.49,1.6,7,2.51,10.51a92.28,92.28,0,0,0,3.2,10.3,46.26,46.26,0,0,0,4.87,9.62,26.86,26.86,0,0,0,7.7,7.8l1.17.74,1.33.67a19,19,0,0,0,2.37,1l.28.09a2.22,2.22,0,0,0,.43.15l.6.18,1.19.33c.78.22,1.57.44,2.36.64A115.22,115.22,0,0,0,913,841c5.75.46,11.13.79,15.92,1.95.6.13,1.16.34,1.74.51a14,14,0,0,1,1.7.55,23.94,23.94,0,0,1,3.17,1.4l1.5.78c.46.29.89.59,1.32.89a15,15,0,0,1,1.33.91l1.36,1.18a24,24,0,0,1,6.9,10,61.29,61.29,0,0,1,2.86,11.12c1.2,7.23,2.26,13.61,3.83,18.62a47.62,47.62,0,0,0,4.81,11l1,1.52c.27.42.53.76.72,1l.59.83,1.42-.9-.5-.9" transform="translate(-9 -7)"/><line class="cls-16" x1="680.94" y1="630.38" x2="674.98" y2="610.43"/><line class="cls-17" x1="674.2" y1="603.11" x2="674.2" y2="597.86"/><line class="cls-18" x1="676.2" y1="591.37" x2="684.24" y2="578.66"/><line class="cls-19" x1="689.11" y1="574.79" x2="702.87" y2="568.39"/><line class="cls-20" x1="709.05" y1="568.49" x2="729.23" y2="575.22"/><line class="cls-21" x1="733.92" y1="579.47" x2="742.04" y2="592.91"/><line class="cls-22" x1="742.76" y1="598.92" x2="738.83" y2="618.62"/><line class="cls-23" x1="735.54" y1="623.44" x2="716.43" y2="638.87"/><line class="cls-24" x1="710.94" y1="641.05" x2="701.87" y2="642.57"/><line class="cls-25" x1="696.35" y1="641.44" x2="684.21" y2="635.17"/><path class="cls-26" d="M692.37,641.74l-1.33-.68-.47-1.58m19.31,10.26-1.52.26-1.33-.69m17.62-2.81-1.21,1-1.53.26m25.71-21.08-.31,1.56-1.21,1m5.52-28.31.87,1.43-.32,1.57M739.3,582.59l1.59.53.87,1.43m-28.91-9.61,1.48-.69,1.59.53m-22.11,10,.86-1.37,1.48-.68M683.2,603.48v-1.93l.86-1.37m-.39,16.21-.47-1.58v-1.93" transform="translate(-9 -7)"/><line class="cls-27" x1="721.45" y1="569.72" x2="726.95" y2="493.37"/><line class="cls-28" x1="729.49" y1="487.58" x2="835.54" y2="350.27"/><line class="cls-29" x1="840.41" y1="345.99" x2="880.7" y2="319.3"/><path class="cls-26" d="M890.62,325.7l1.37-.91m-46.78,31.62,1-1.3,1.37-.91M736,499.26l.12-1.66,1-1.29m-7,84.29.12-1.66" transform="translate(-9 -7)"/><line class="cls-30" x1="734.65" y1="573.48" x2="773.37" y2="536.56"/><path class="cls-31" d="M787.86,540.43c13.6-4.84,62.69-22.11,75.22-23.8" transform="translate(-9 -7)"/><path class="cls-32" d="M869.57,516.89c11.62-.57,43.76-7.47,53.29-9.57" transform="translate(-9 -7)"/><line class="cls-33" x1="920.12" y1="498.49" x2="1000.66" y2="470.61"/><path class="cls-26" d="M1010.68,477.27l1.53-.53m-88.27,30.35,1.62-.36,1.54-.54m-63,10.32a3.89,3.89,0,0,1,1.59.12,4.54,4.54,0,0,0,1.62.28m-84.19,25.9,1.19-1.13,1.51-.54m-45,42,1.19-1.13" transform="translate(-9 -7)"/><line class="cls-34" x1="741.93" y1="620.04" x2="864.96" y2="580.31"/><line class="cls-35" x1="871" y1="577.93" x2="919.35" y2="556.31"/><path class="cls-26" d="M929.34,562.88l1.48-.67M875,587l1.55-.5,1.48-.67m-130.72,42.4,1.56-.5" transform="translate(-9 -7)"/><line class="cls-36" x1="713.17" y1="644.35" x2="707.45" y2="703.49"/><line class="cls-37" x1="707.74" y1="709.84" x2="713.15" y2="745.11"/><line class="cls-38" x1="713.52" y1="751.5" x2="713.21" y2="799.24"/><line class="cls-39" x1="712.32" y1="805.59" x2="691.34" y2="893.15"/><line class="cls-40" x1="692.28" y1="899.14" x2="703.07" y2="922.41"/><line class="cls-41" x1="704.35" y1="928.75" x2="707.25" y2="1000.29"/><path class="cls-26" d="M716.3,1008.41l.06,1.67m-3.84-79.71.67,1.46.07,1.68m-13.17-32.32-.37,1.57.67,1.46m21.82-96.9,0,1.63-.37,1.57m.48-57.38.25,1.57v1.63m-6.2-44.76-.16,1.65.24,1.57m6.13-67.28-.16,1.64" transform="translate(-9 -7)"/><path class="cls-26" d="M722.19,752.39h0m0,0h0" transform="translate(-9 -7)"/><line class="cls-42" x1="692.1" y1="566.71" x2="677.49" y2="545.61"/><line class="cls-43" x1="674.9" y1="539.73" x2="661.52" y2="493.35"/><line class="cls-44" x1="661.23" y1="487.11" x2="663.15" y2="472.61"/><line class="cls-45" x1="662.04" y1="466.42" x2="633.53" y2="395.4"/><line class="cls-46" x1="632.73" y1="388.76" x2="634.96" y2="349.45"/><line class="cls-47" x1="634.73" y1="343.15" x2="633.15" y2="329.37"/><line class="cls-48" x1="634.19" y1="323.4" x2="639.5" y2="309.29"/><line class="cls-49" x1="639.15" y1="303.07" x2="628.39" y2="272.44"/><line class="cls-50" x1="625.34" y1="266.23" x2="613.89" y2="246.98"/><path class="cls-26" d="M622.28,253l-.9-1.5M637,278.38l-.55-1.58-.9-1.5m13.3,40,.58-1.52-.56-1.58M642,335.42l-.17-1.5.57-1.51M644,355.28l.1-1.71-.17-1.51m-1.83,49.31-.62-1.54.1-1.72m30.68,80.49.21-1.57-.62-1.54m-1.66,23.81-.45-1.58.2-1.57m15.92,55.6-.91-1.33-.46-1.58m18.71,27.94-.91-1.32" transform="translate(-9 -7)"/><line class="cls-51" x1="406.99" y1="378.4" x2="438.01" y2="410.03"/><line class="cls-43" x1="442.04" y1="415.32" x2="458.87" y2="442.31"/><line class="cls-52" x1="463.38" y1="447.15" x2="492.96" y2="471.52"/><line class="cls-53" x1="498.73" y1="474.79" x2="574.76" y2="505.95"/><line class="cls-54" x1="580.8" y1="508.12" x2="619.59" y2="520.64"/><line class="cls-55" x1="625.04" y1="524.01" x2="683.55" y2="574.56"/><path class="cls-26" d="M693.4,582.3l1.27,1.09M629.57,528l1.5.49,1.27,1.09m-47.55-16.17,1.54.63,1.5.49m-85-35.24,1.3,1.07,1.54.63m-37.23-30.7.88,1.39,1.3,1.07m-22.81-34.86,1.18,1.22.88,1.39m-36.68-37.9,1.19,1.21" transform="translate(-9 -7)"/><line class="cls-56" x1="441.2" y1="531.21" x2="480.48" y2="545.95"/><line class="cls-57" x1="486.73" y1="547.77" x2="586.87" y2="571.3"/><line class="cls-58" x1="593.19" y1="572.51" x2="613.08" y2="575.69"/><line class="cls-59" x1="619.42" y1="577.28" x2="671.54" y2="593.7"/><path class="cls-26" d="M681.6,601l1.6.51m-60.08-18.69,1.58.25,1.59.51m-29.36-5.07,1.6.38,1.58.25M490.49,553.33l1.51.57,1.6.37M446.68,536.9l1.51.57" transform="translate(-9 -7)"/><line class="cls-21" x1="459.73" y1="569.41" x2="472.72" y2="578.22"/><line class="cls-60" x1="478.05" y1="582.13" x2="541.6" y2="631.68"/><line class="cls-61" x1="544.69" y1="637.3" x2="548.47" y2="653.06"/><path class="cls-26" d="M557.75,661.2l.4,1.68m-6.7-23.53,1.29,1,.41,1.68m-70.5-56.18,1.39.94,1.29,1m-19.86-13.58,1.39.94" transform="translate(-9 -7)"/><line class="cls-33" x1="449.54" y1="706.34" x2="494.3" y2="678.22"/><line class="cls-62" x1="500.22" y1="675.3" x2="597.65" y2="635.56"/><line class="cls-63" x1="603.83" y1="633.35" x2="649.12" y2="618.89"/><line class="cls-64" x1="655.66" y1="616.26" x2="671.38" y2="609.09"/><path class="cls-26" d="M681.54,615.57l1.66-.76m-24.06,10.75,1.55-.49,1.66-.76m-54.66,17.83,1.55-.63,1.55-.5M504.21,684.65l1.38-.86,1.55-.64m-51.79,32.2,1.37-.86" transform="translate(-9 -7)"/><line class="cls-40" x1="679.84" y1="639.6" x2="654.12" y2="665.26"/><line class="cls-65" x1="651.74" y1="670.43" x2="650.44" y2="678.99"/><line class="cls-66" x1="647.37" y1="684.14" x2="582.21" y2="750.92"/><line class="cls-67" x1="579.41" y1="756.17" x2="577.17" y2="764.68"/><line class="cls-68" x1="579.18" y1="769.2" x2="582.24" y2="771.71"/><path class="cls-26" d="M592,779.32l1.16,1m-7.2-7.69-.38,1.44,1.16,1m3.72-16.27-1.16,1.19-.38,1.45m70.41-74.45-.22,1.45-1.16,1.19M662.37,673l-1.14,1.14-.22,1.46M691.48,644l-1.14,1.14" transform="translate(-9 -7)"/><line class="cls-69" x1="410.79" y1="871.05" x2="564.44" y2="795.49"/><line class="cls-34" x1="569.44" y1="791.4" x2="697.57" y2="645.03"/><path class="cls-26" d="M707.28,651.22l1.08-1.22M574.44,802l1.49-.73L577,800M416.3,879.78l1.49-.74" transform="translate(-9 -7)"/><line class="cls-70" x1="555.09" y1="906.9" x2="588.13" y2="858.15"/><line class="cls-60" x1="591.54" y1="852.58" x2="669.18" y2="716.31"/><line class="cls-71" x1="670.32" y1="709.9" x2="668.86" y2="682.29"/><path class="cls-26" d="M677.8,688.13l-.1-1.71m1,36,.81-1.42-.09-1.71m-81.7,145,.92-1.36.81-1.42M562,917.06l.92-1.35" transform="translate(-9 -7)"/><line class="cls-72" x1="646.69" y1="677.52" x2="626.81" y2="667.28"/><line class="cls-21" x1="621.63" y1="668.91" x2="563.94" y2="736.14"/><line class="cls-43" x1="558.83" y1="740.26" x2="526.91" y2="759.54"/><line class="cls-73" x1="520.86" y1="762.32" x2="474.44" y2="779.34"/><line class="cls-74" x1="469.31" y1="782.88" x2="452.07" y2="800.62"/><line class="cls-75" x1="446.73" y1="803.98" x2="402.27" y2="823"/><line class="cls-76" x1="397.41" y1="826.94" x2="371.32" y2="858.87"/><path class="cls-26" d="M379.66,866.69l-1,1.23m31.61-37.48-1.52.65-1,1.24m52.63-24-1.09,1.12-1.52.65m24.63-23.39-1.57.58-1.09,1.12M535,767.11l-1.41.86-1.57.57M572.21,744l-1.09,1.28-1.41.85m65-72.39-1.56-.8-1.09,1.27m27.28,12.21-1.56-.8" transform="translate(-9 -7)"/><line class="cls-77" x1="744" y1="621.73" x2="801.05" y2="639.68"/><line class="cls-78" x1="807.86" y1="640.76" x2="818.5" y2="641.38"/><line class="cls-33" x1="824.91" y1="643.08" x2="922.59" y2="686.26"/><line class="cls-79" x1="928.29" y1="689.65" x2="987.31" y2="731.52"/><path class="cls-26" d="M997.24,739.18l1.38,1m-66-46.46,1.49.66,1.37,1M828.7,648.46l1.76.1,1.49.66M811.11,647l1.58.5,1.76.1m-65.15-20,1.58.5" transform="translate(-9 -7)"/><line class="cls-80" x1="739.73" y1="625.64" x2="753.53" y2="641.8"/><line class="cls-81" x1="758.94" y1="645.75" x2="809.1" y2="671.23"/><line class="cls-82" x1="815.29" y1="673.36" x2="871.49" y2="686.34"/><line class="cls-83" x1="877.13" y1="689.17" x2="958.85" y2="749.27"/><path class="cls-26" d="M968.72,756.92l1.31,1m-88.5-64.3,1.57.36,1.31,1m-65.27-16.15,1.52.77,1.57.36m-59-30.23,1.09,1.27,1.53.78m-19.69-22.05,1.08,1.27" transform="translate(-9 -7)"/><line class="cls-84" x1="754.59" y1="646.86" x2="755.33" y2="728.59"/><line class="cls-85" x1="754.17" y1="734.95" x2="744.33" y2="764.79"/><path class="cls-26" d="M753,772.82l-.51,1.55m11.85-37.67v1.66l-.51,1.55M763.55,650l0,1.65" transform="translate(-9 -7)"/><line class="cls-86" x1="791.98" y1="804.71" x2="815.21" y2="863.62"/><line class="cls-87" x1="818.77" y1="868.89" x2="854.83" y2="907.81"/><path class="cls-26" d="M864.57,915.6l1.1,1.2M824.6,871.61l.59,1.51,1.11,1.19m-26.69-66.08.59,1.5" transform="translate(-9 -7)"/><line class="cls-88" x1="543.74" y1="391.16" x2="600.24" y2="515.03"/><g class="cls-89"><g class="cls-90"><line class="cls-91" x1="955.85" y1="703.71" x2="984.98" y2="783.79"/><path class="cls-92" d="M999.73,798.76c23.66,24.57,131.43,136.49,149.21,154.79" transform="translate(-9 -7)"/><path class="cls-93" d="M1155.53,960.72c13.45,15.68,51.42,62.33,67.13,82.35" transform="translate(-9 -7)"/><path class="cls-94" d="M1228.81,1050.9c20,25.18,75.35,93.23,86.9,107.41" transform="translate(-9 -7)"/><path class="cls-95" d="M1317.84,1160.93h0m-93.2-115.32h0m-73.39-89.7h0M995.14,794h0m-32.62-89.7h0" transform="translate(-9 -7)"/></g></g><line class="cls-96" x1="1046.24" y1="694.06" x2="1161.06" y2="718.83"/><path class="cls-97" d="M1173.34,726.54h0m-124.66-26.89h0" transform="translate(-9 -7)"/><path class="cls-98" d="M588.68,408.83c12.39,16.28,46.78,60.83,60.82,72.65" transform="translate(-9 -7)"/><path class="cls-99" d="M662,485c12.52.17,33.32-1.64,43.38-2.51" transform="translate(-9 -7)"/><path class="cls-100" d="M718.12,482.47c5.6.43,13.24,1,18.21,1.45" transform="translate(-9 -7)"/><path class="cls-101" d="M748.67,487.62c12.75,5.7,38.8,17.26,50.2,21.71" transform="translate(-9 -7)"/><line class="cls-102" x1="813.39" y1="514.49" x2="819.44" y2="521.01"/><line class="cls-103" x1="822.21" y1="532.4" x2="818.13" y2="561.76"/><line class="cls-104" x1="819.67" y1="573.64" x2="832.08" y2="609.97"/><line class="cls-105" x1="838.4" y1="621.07" x2="857.15" y2="646.34"/><path class="cls-106" d="M878.07,660.07c6.45,1.71,15.25,4.12,21.63,6.17" transform="translate(-9 -7)"/><path class="cls-107" d="M912.85,671c6.22,2.16,13.9,4.59,18.92,6.15" transform="translate(-9 -7)"/><line class="cls-108" x1="932.22" y1="679.19" x2="936.93" y2="687.53"/><path class="cls-109" d="M947.14,696.67l1.75,3.1m-15-21.93c2,.61,3.17,1,3.17,1l1.75,3.1m-36.65-14.86c1.35.46,2.52.89,3.45,1.28s1.93.78,3.09,1.21m-41.2-14.39,2,2.7s1.36.34,3.57.92m-31.36-39.93,1,2.91,2,2.7m-17.87-53.61L826.4,574l1,2.91M830,529.64l2.26,2.45-.44,3.16m-18.3-21.15c2.06.91,3.6,1.68,3.6,1.68l2.27,2.44M801,510.14a15.41,15.41,0,0,0,3.25,1,13.78,13.78,0,0,1,3.87.86M738.3,484.09l3.07.25,3.1,1.39m-36.78-3.46c1.85-.16,3.06-.26,3.4-.26s1.5.07,3.08.18m-63,.62a8.54,8.54,0,0,0,2.84,1.53,24,24,0,0,0,3.38.45m-72.93-86-.34,4.05,2,2.59m-.79-16.57-.34,4" transform="translate(-9 -7)"/><line class="cls-110" x1="905.41" y1="760.32" x2="871.23" y2="760.32"/><line class="cls-111" x1="857.68" y1="754.12" x2="849.4" y2="747.21"/><line class="cls-112" x1="837.62" y1="747.54" x2="774.29" y2="793.08"/><line class="cls-113" x1="761.89" y1="795.62" x2="686.67" y2="787.69"/><line class="cls-114" x1="674.51" y1="784.13" x2="628.83" y2="763.62"/><line class="cls-115" x1="618.22" y1="756.76" x2="586.35" y2="731.07"/><line class="cls-116" x1="577.9" y1="722.02" x2="560.76" y2="699.16"/><line class="cls-117" x1="555.94" y1="687.89" x2="543.83" y2="638.48"/><line class="cls-118" x1="536.88" y1="628.76" x2="481.43" y2="584.18"/><path class="cls-109" d="M488.82,589.89l-2.46-2-3.5-2.33m69.47,57.87-.76-3.11-2.47-2m19.46,66.21-1.86-2.48-.76-3.11m27.74,37.77-2.52-2-1.86-2.48M636,769.78l-2.88-1.29-2.53-2m62.9,28-3.31-.35-2.88-1.3m94.15,8.62-2.77,2-3.32-.35m80.88-50.71-3-2.53-2.77,2m27.34,15.48h-3.61l-3-2.53M923,767.32h-3.61" transform="translate(-9 -7)"/><line class="cls-119" x1="693.11" y1="892.38" x2="700.12" y2="875.56"/><path class="cls-120" d="M717.05,872.19c6.84-6.5,17.9-16.91,24.24-22.28" transform="translate(-9 -7)"/><path class="cls-121" d="M753.88,843.68c2.89-1.24,6-2.74,8.52-4.12" transform="translate(-9 -7)"/><path class="cls-122" d="M768.7,829.87c.79-2.34,1.72-4.92,2.5-7" transform="translate(-9 -7)"/><line class="cls-123" x1="774.71" y1="791.71" x2="795.99" y2="759.81"/><line class="cls-124" x1="800.95" y1="748.72" x2="815.88" y2="701.18"/><line class="cls-125" x1="819.06" y1="688.91" x2="832.58" y2="628.1"/><path class="cls-126" d="M842.05,633l.7-3.16m-17.26,76.36.94-3,.71-3.16m-21.06,65.11,1.71-2.56.94-3m-30.9,48.91,2-4,1.7-2.56m-9.7,19.2c.6-1.61,1-2.67,1-2.67l2-4m-10.33,23.8c1.53-1,2.51-1.82,2.51-2.35a12.9,12.9,0,0,1,.63-2.78m-24.5,15.18a9.54,9.54,0,0,1,2.9-1.92,14.42,14.42,0,0,0,3.37-1m-39.52,35.26,1.18-2.84,2.53-2.42m-14.18,30.37,1.18-2.84" transform="translate(-9 -7)"/><g class="cls-127"><g class="cls-128"><line class="cls-129" x1="220.08" y1="99.75" x2="146.25" y2="155.11"/><path class="cls-130" d="M147.5,172.45c-7,14.35-22.38,46.36-26.73,60.59" transform="translate(-9 -7)"/><path class="cls-131" d="M110.63,259.68c-12.79,19.56-29.55,48.41-32.51,67.73" transform="translate(-9 -7)"/><path class="cls-132" d="M77.39,340.38c-1.6,26.59-10,89.28-18.66,113.4" transform="translate(-9 -7)"/><path class="cls-133" d="M54.41,465.91c-3.83,20.73,8.62,53-4.74,72.47" transform="translate(-9 -7)"/><path class="cls-131" d="M41.25,548.53c-16.18,23-24.94,70.64-26.3,93.27" transform="translate(-9 -7)"/><path class="cls-134" d="M14.32,654.82c-1.69,14.79-7.49,24.65-1.71,40" transform="translate(-9 -7)"/><path class="cls-135" d="M18.57,706.14c11.36,16.56,33.26,32.44,44.69,42.41" transform="translate(-9 -7)"/><path class="cls-136" d="M73.37,756c10.74,4,26.81,1.8,43.18,23.32" transform="translate(-9 -7)"/><path class="cls-137" d="M123.62,790.19c12.95,23.23,16,49.95,16.73,61.26" transform="translate(-9 -7)"/><line class="cls-138" x1="130.44" y1="857.87" x2="111.41" y2="991.04"/><path class="cls-139" d="M124.66,1009.63c13.51,15.7,51.71,58.88,84.88,85" transform="translate(-9 -7)"/><path class="cls-140" d="M211.3,1096l2.66,2m-93.88-97.69-.48,3.36s.75.91,2.15,2.55m18.72-152.58c.1,2.12.1,3.31.1,3.31l-.48,3.36M117.79,781c.6.84,1.21,1.71,1.81,2.62s1.21,1.84,1.79,2.78M64.85,750c.86.78,1.64,1.51,2.33,2.2a15,15,0,0,0,2.47,2M13.4,696.83c.41.95.86,1.92,1.36,2.92s1,1.88,1.54,2.83M14.83,644c0,1.2-.07,2.32-.07,3.33s0,2.18-.08,3.23M48.39,540.12a30.84,30.84,0,0,1-2.18,2.43c-.76.76-1.51,1.58-2.25,2.45m14-89.24q-.65,1.64-1.29,2.94a24.17,24.17,0,0,0-1.23,3m22.37-132.1a31.83,31.83,0,0,0-.17,3.32c0,.95,0,2-.07,3.21m39.93-86.59a23.82,23.82,0,0,1-2.59,3.64L113.08,256m7.07-20.7a14.54,14.54,0,0,0-.55,3.36,36.69,36.69,0,0,1-.25,4.47m34.24-79.74-2.54,1.9-1.51,3.06m85.39-65.94-2.54,1.91" transform="translate(-9 -7)"/></g></g><g class="cls-141"><g class="cls-142"><path class="cls-143" d="M1010.5,11c42.32,20.14,183.65,116.57,229.25,141.27" transform="translate(-9 -7)"/><path class="cls-144" d="M1251.32,158.24c40.64,21.39,97.3,60.66,136.93,117.82" transform="translate(-9 -7)"/><path class="cls-145" d="M1395.5,286.87c29.57,44.62,80,123.58,119,204.54" transform="translate(-9 -7)"/><path class="cls-146" d="M1520.09,503.28c17.11,37.29,38.45,98,8.56,213" transform="translate(-9 -7)"/><path class="cls-147" d="M1525.23,729c-31.13,115-56.11,198.87-66.28,230.34" transform="translate(-9 -7)"/><path class="cls-148" d="M1454.88,971.85c-6.07,19.18-11.77,40.7-14.29,50.44" transform="translate(-9 -7)"/><path class="cls-140" d="M1440.05,1024.4c-.53,2-.81,3.18-.81,3.18m19-66.14-1,3.14c-.35,1-.69,2.06-1,3.11m71.88-249.3c-.28,1.06-.56,2.12-.85,3.19s-.58,2.12-.86,3.18m-11-231.4c.47,1,.94,2,1.4,2.95s.94,2,1.41,3M1389.47,277.84l1.83,2.7c.59.9,1.19,1.8,1.81,2.72m-151.45-130,2.9,1.5,2.92,1.47m-244-148.2c.9.3,1.92.69,3,1.16" transform="translate(-9 -7)"/></g></g><line class="cls-149" x1="535.82" y1="737.27" x2="530.62" y2="732.08"/><line class="cls-150" x1="524.44" y1="722.39" x2="508.19" y2="686.95"/><line class="cls-151" x1="504.69" y1="674.53" x2="499.25" y2="643.56"/><path class="cls-152" d="M512.69,639.32c7.92-8.32,22.52-23.55,29.87-30.39" transform="translate(-9 -7)"/><path class="cls-153" d="M553.26,601.07c4.77-3.82,11.07-9.32,15.15-12.92" transform="translate(-9 -7)"/><line class="cls-154" x1="566.54" y1="570.11" x2="574.23" y2="551.26"/><line class="cls-155" x1="580.44" y1="539.5" x2="625.9" y2="466.82"/><path class="cls-126" d="M636.06,472l1.75-2.79m-53.72,87,1.28-3.13,1.75-2.79m-17,36.45,2.48-2.21,1.27-3.13m-29.6,26.07c1.42-1.25,2.37-2,2.69-2a8.62,8.62,0,0,0,2.84-1.65m-41.89,44.56-.58-3.31,2.31-2.43m6.76,49.52-1.3-2.83-.58-3.31m23.94,51.89-2-2-1.3-2.83m14.12,15.64-2-2" transform="translate(-9 -7)"/><g class="cls-156"><g class="cls-157"><path class="cls-158" d="M280.66,102.35c2.06,4.22,5.09,9.78,6.85,13" transform="translate(-9 -7)"/><line class="cls-159" x1="283.96" y1="116.2" x2="314.06" y2="156.01"/><line class="cls-160" x1="321.34" y1="162.47" x2="392.65" y2="213.85"/><line class="cls-161" x1="400.19" y1="219.94" x2="466.25" y2="276.57"/><line class="cls-162" x1="472.42" y1="284.16" x2="544.91" y2="391.26"/><path class="cls-95" d="M555.76,401h0M477.7,285.67h0m-73.41-62.91h0m-79.23-57.09h0M288.94,117.9h0m-10.48-21h0" transform="translate(-9 -7)"/></g></g><rect class="cls-163" x="969.92" y="679.78" width="83.83" height="33.2" rx="5.07"/><rect class="cls-163" x="973.57" y="682.92" width="76.43" height="26.13"/><text class="cls-164" transform="translate(990.17 693.83)"><tspan class="cls-165" x="23.54" y="0"></tspan><tspan class="cls-166" x="28.29" y="0"></tspan><tspan class="cls-165" x="33.63" y="0"></tspan><tspan x="38.42" y="0"></tspan></text><text class="cls-167" transform="translate(1033.4 693.83)"> </text><text class="cls-167" transform="translate(983.21 705.39)"><tspan class="cls-168" x="7.47" y="0"></tspan><tspan x="14.49" y="0"></tspan></text><polygon class="cls-163" points="1043.97 681.64 1032.4 671.23 1032.4 681.64 1043.97 681.64"/><rect class="cls-163" x="227.24" y="180.27" width="90.63" height="33.2" rx="5.07"/><rect class="cls-163" x="227.14" y="183.36" width="90.73" height="26.13"/><text class="cls-164" transform="translate(250.89 194.27)"><tspan class="cls-169" x="23.54" y="0"></tspan><tspan x="28.29" y="0"></tspan><tspan class="cls-165" x="33.63" y="0"></tspan><tspan x="38.42" y="0"></tspan></text><text class="cls-167" transform="translate(294.12 194.27)"> </text><text class="cls-167" transform="translate(233.99 205.83)"><tspan class="cls-170" x="25.1" y="0"></tspan><tspan x="32.41" y="0"></tspan></text><polygon class="cls-163" points="304.69 182.13 293.12 171.72 293.12 182.13 304.69 182.13"/><rect class="cls-163" x="278.33" y="250.21" width="83.83" height="33.2" rx="5.07"/><rect class="cls-163" x="278.24" y="253.35" width="83.93" height="23.76"/><text class="cls-164" transform="translate(298.58 264.26)"><tspan class="cls-165" x="23.54" y="0"></tspan><tspan class="cls-166" x="28.29" y="0"></tspan><tspan class="cls-165" x="33.63" y="0"></tspan><tspan x="38.42" y="0"></tspan></text><text class="cls-167" transform="translate(341.82 264.26)"> </text><text class="cls-167" transform="translate(293.26 275.82)"></text><polygon class="cls-163" points="352.39 252.07 340.81 241.66 340.81 252.07 352.39 252.07"/><rect class="cls-163" x="320.25" y="155.9" width="83.83" height="33.2" rx="5.07"/><rect class="cls-163" x="320.15" y="159.03" width="83.93" height="23.76"/><text class="cls-164" transform="translate(340.5 169.95)"><tspan class="cls-165" x="23.54" y="0"></tspan><tspan class="cls-166" x="28.29" y="0"></tspan><tspan class="cls-165" x="33.63" y="0"></tspan><tspan x="38.42" y="0"></tspan></text><text class="cls-167" transform="translate(383.73 169.95)"> </text><text class="cls-167" transform="translate(330.2 181.51)"><tspan class="cls-171" x="16.95" y="0"></tspan><tspan x="23.04" y="0"></tspan></text><polygon class="cls-163" points="394.3 157.76 382.73 147.34 382.73 157.76 394.3 157.76"/><rect class="cls-163" x="355.22" y="218.69" width="83.83" height="33.2" rx="5.07"/><rect class="cls-163" x="355.13" y="221.83" width="83.93" height="23.76"/><text class="cls-164" transform="translate(375.48 232.74)"><tspan class="cls-165" x="23.54" y="0"></tspan><tspan class="cls-166" x="28.29" y="0"></tspan><tspan class="cls-165" x="33.63" y="0"></tspan><tspan x="38.42" y="0"></tspan></text><text class="cls-167" transform="translate(418.71 232.74)"> </text><text class="cls-167" transform="translate(421.35 232.74)"> </text><text class="cls-167" transform="translate(379.95 244.3)"><tspan class="cls-172" x="19.82" y="0"></tspan><tspan x="28.1" y="0"></tspan></text><polygon class="cls-163" points="429.28 220.55 417.71 210.14 417.71 220.55 429.28 220.55"/><g class="cls-173"><g class="cls-174"><path class="cls-175" d="M935.69,560.82c8.76-4.21,25.13-12,32-14.83" transform="translate(-9 -7)"/><path class="cls-176" d="M977.44,543.66c9.19-2,27-6.12,50.44-10.86" transform="translate(-9 -7)"/><path class="cls-177" d="M1037.84,530.84c33.89-6.41,100.32-16.79,115.88-19.2" transform="translate(-9 -7)"/><path class="cls-178" d="M1163.44,509.31c16.46-4.64,60-16.71,74.15-18.85" transform="translate(-9 -7)"/><line class="cls-179" x1="1238.89" y1="483.13" x2="1249.37" y2="483.13"/><line class="cls-180" x1="1259.45" y1="482.21" x2="1400.98" y2="462.59"/><path class="cls-181" d="M1419.92,468.33c25.89-3.17,119.67-14.77,142.67-19.44" transform="translate(-9 -7)"/><path class="cls-95" d="M1565.85,448.14h0m-152.57,21h0m-151.42,21h0m-21,0h0m-83.86,21h0m-125.79,21h0M970.68,545h0m-40.76,18.66h0" transform="translate(-9 -7)"/></g></g><path class="cls-182" d="M483.94,560c-1.23-13.23,3.92-32.63,10.48-40.77,2.62-9.59,4.2-16.81,6.18-26.6,3.39-3.71,3.1-33.75,3.14-42.13-2.33-17.48,11-21.21,15.15-30.29,10.59-17.61,34.72-15.68,50.28-27.67,7.72-6,16.27-10.06,25.31-13.31,3.21-5.41,9.84-6.76,14.23-10.09,16.21-4.41,29.14-16.55,46.61-17.7,22,5.09,45.78-5.35,62.79,12.85,16.13,9.47,36,4.5,53.59,8.16,3.8,1.42,9.63,7.09,13.82,7.19,6.19,3.83,12.32,8.33,18.93,10.47,6.95,3.79,14.35,4,18.66,11.48,8.34,10,18.86,17.6,28.7,26.72,18.05,15,33.92,34.07,54.28,45.13,2.47,3.11,10.42,6.32,10.07,10.84,9.61,20.83,11.23,41.93,14,60.57-.09,16.68,6,32.95-1.06,48.89,1.45,4.41-3.76,6.06-2.28,10.46-1.71,11.56-3.33,23-7.14,34.1-1.19,13.81,3.08,30.85-2.27,44-11.5,32.6-6.51,50.36,4.71,82.68-2.71,28.67-57.31,79.58-80.69,92.06-16.08,8.59-22.72,30.12-40.59,35,15.37-7.19-43.58,30.28-35,21-15.42.42-29.5,4.12-43.1-3.5-2.29-1-10.52.92-12.82,0-2.37-1.59-4.75-2.92-8.16-2.33-18.88-6.31-34.95-14-54.37-21.27-20.26-6.42-35.61-18.37-48.15-34.64-16.87-23.5-27.65-46.69-40.77-73.39-19.24-29.35-19.81-15.14-35-52.42-3.41-7.91-27.38-42.9-27.75-51.38-2.42-5.65-6.16-20.13-6-26.67C484.59,622.34,482.65,592.64,483.94,560Z" transform="translate(-9 -7)"/><rect class="cls-183" x="830.19" y="421.35" width="44.32" height="17.7" rx="5.02"/><text class="cls-184" transform="translate(836.95 433.41)"></text><rect class="cls-185" x="31.44" y="421.35" width="44.32" height="17.7" rx="5.02"/><rect class="cls-185" x="35.05" y="423.87" width="37.17" height="15.19"/><text class="cls-184" transform="translate(38.92 433.41)"></text><rect class="cls-186" x="737.08" y="821.2" width="34.93" height="17.7" rx="5.02"/><text class="cls-184" transform="translate(743.03 833.25)"><tspan class="cls-187"></tspan><tspan x="16.49" y="0"></tspan></text><rect class="cls-186" x="998.95" y="514.97" width="23.36" height="20.03" rx="5.02"/><text class="cls-184" transform="translate(1003.54 528.18)">7</text><rect class="cls-186" x="993.13" y="794.65" width="23.36" height="20.03" rx="5.02"/><text class="cls-184" transform="translate(997.22 807.87)">5</text><rect class="cls-183" x="1106.15" y="699.17" width="23.36" height="20.03" rx="5.02"/><text class="cls-184" transform="translate(1108.48 712.39)">12</text><rect class="cls-186" x="559.98" y="536.63" width="34.93" height="17.7" rx="5.02"/><text class="cls-184" transform="translate(567.53 548.68)"><tspan class="cls-188"></tspan><tspan class="cls-187" x="7.39" y="0"></tspan><tspan x="13.29" y="0"></tspan></text><rect class="cls-183" x="799.96" y="559.22" width="34.93" height="17.7" rx="5.02"/><text class="cls-184" transform="translate(807.09 571.27)"><tspan class="cls-187" x="7.48" y="0"></tspan><tspan x="14.11" y="0"></tspan></text><rect class="cls-183" x="599.72" y="762.98" width="79.1" height="17.7" rx="5.02"/><text class="cls-184" transform="translate(605.49 775.03)"><tspan class="cls-189"></tspan><tspan class="cls-187" x="10.4" y="0"></tspan><tspan class="cls-190" x="23.37" y="0"></tspan><tspan class="cls-187" x="33.43" y="0"> </tspan><tspan class="cls-191" x="35.54" y="0"></tspan><tspan class="cls-192" x="47.01" y="0"></tspan><tspan class="cls-193" x="51.98" y="0"></tspan><tspan class="cls-194" x="56.91" y="0"></tspan><tspan x="62.48" y="0"></tspan></text><rect class="cls-186" x="495.56" y="197.89" width="23.36" height="20.03" rx="5.02"/><path class="cls-195" d="M516.92,215.6l-.75.33c-.7.31-1.49.66-2.26,1a16.69,16.69,0,0,1-2.6.83,5.43,5.43,0,0,1-1.47.18,3.23,3.23,0,0,1-.67-.11.63.63,0,0,1-.46-.38l-1.35-3a.08.08,0,0,1,0,0l0-.13.11-.1a.71.71,0,0,1,.78,0l.41.3,1.17.87a.89.89,0,0,0,.64.25,1.12,1.12,0,0,0,.37-.09l2.34-1,1.28-.58,2.81-1.25,4.58-2a4.05,4.05,0,0,1,1.61-.4,2.88,2.88,0,0,1,1.88.49l.2.17c.23.23-.05.48-.11.52a4.44,4.44,0,0,1-.38.27,26.16,26.16,0,0,1-2.69,1.47l-1.27.61-.07,0-.75.36h0l-2.67,5.77-.2.43a3.32,3.32,0,0,1-.5.87,1.56,1.56,0,0,1-.76.54l-.3.09Z" transform="translate(-9 -7)"/><path class="cls-195" d="M511.42,211.6h0l3,1.8,2.65-1.18-.64-.2L514,211.3l-.26-.08a4.21,4.21,0,0,0-1.34-.28,1.8,1.8,0,0,0-1,.25l-.17.15.13.18a.19.19,0,0,0,.08.08" transform="translate(-9 -7)"/><text class="cls-196" transform="translate(486.92 228.39)"><tspan class="cls-197" x="28.15" y="0"></tspan><tspan x="33.87" y="0"></tspan></text><text class="cls-198" transform="translate(525.31 228.39)"> </text><text class="cls-196" transform="translate(465.94 239.13)"></text><rect class="cls-186" x="1011.76" y="868.56" width="23.36" height="20.03" rx="5.02"/><path class="cls-195" d="M1033.13,886.28l-.76.33c-.7.31-1.49.65-2.26,1a15.74,15.74,0,0,1-2.6.84,6.3,6.3,0,0,1-1.47.18,4.07,4.07,0,0,1-.67-.11.66.66,0,0,1-.46-.39l-1.35-3s0,0,0-.05l0-.13.1-.1a.73.73,0,0,1,.79,0l.4.3,1.18.88a.92.92,0,0,0,.64.25,1.2,1.2,0,0,0,.37-.1l2.33-1,1.28-.57,2.81-1.25,4.58-2a4.42,4.42,0,0,1,1.62-.4,2.91,2.91,0,0,1,1.87.5l.2.16c.24.24-.05.48-.11.53a4.44,4.44,0,0,1-.38.27,27.05,27.05,0,0,1-2.69,1.47l-1.27.6-.06,0-.75.36h0q-1.34,2.88-2.66,5.77l-.2.43a4.24,4.24,0,0,1-.5.87,1.61,1.61,0,0,1-.77.53l-.3.1Z" transform="translate(-9 -7)"/><path class="cls-195" d="M1027.63,882.28h0l3,1.8,2.65-1.19-.63-.19-2.39-.73-.25-.08a4.63,4.63,0,0,0-1.35-.27,1.65,1.65,0,0,0-1,.25l-.17.14.13.19a.39.39,0,0,0,.09.08" transform="translate(-9 -7)"/><text class="cls-196" transform="translate(1003.12 899.06)"><tspan class="cls-197" x="28.15" y="0"></tspan><tspan x="33.87" y="0"></tspan></text><text class="cls-198" transform="translate(1041.51 899.06)"> </text><text class="cls-196" transform="translate(987.76 909.8)"><tspan class="cls-194"></tspan><tspan x="9.9" y="0"></tspan><tspan class="cls-193" x="16.53" y="0"></tspan><tspan x="23.27" y="0"></tspan></text><rect class="cls-185" x="1464.91" y="822.73" width="44.32" height="17.7" rx="5.02"/><rect class="cls-185" x="1468.52" y="825.24" width="37.17" height="15.19"/><text class="cls-184" transform="translate(1472.4 834.78)"></text><g class="cls-199"><g class="cls-200"><rect class="cls-195" x="836.16" y="268.5" width="121.57" height="107.59" transform="translate(33.04 736.62) rotate(-46)"/></g></g><g class="cls-201"><g class="cls-202"><rect class="cls-195" x="974.56" y="434.03" width="125.76" height="59.91" transform="translate(-107.27 415.41) rotate(-22)"/></g></g></g></g></svg>